<ttFont>
    <TTGlyph name=".ttfautohint" xMin="0" yMin="0" xMax="0" yMax="0">
      <contour>
        <pt x="0" y="0" on="1"/>
      </contour>
    </TTGlyph>
    <TTGlyph name="A" xMin="0" yMin="0" xMax="1026" yMax="1298">
      <contour>
        <pt x="0" y="0" on="1"/>
        <pt x="426" y="1298" on="1"/>
        <pt x="559" y="1298" on="1"/>
        <pt x="1026" y="0" on="1"/>
        <pt x="786" y="0" on="1"/>
        <pt x="670" y="330" on="1"/>
        <pt x="336" y="330" on="1"/>
        <pt x="236" y="0" on="1"/>
      </contour>
      <contour>
        <pt x="629" y="489" on="1"/>
        <pt x="496" y="913" on="1"/>
        <pt x="371" y="489" on="1"/>
      </contour>
    </TTGlyph>
    <TTGlyph name="AE" xMin="-4" yMin="0" xMax="1016" yMax="1276">
      <contour>
        <pt x="389" y="1276" on="1"/>
        <pt x="1016" y="1276" on="1"/>
        <pt x="1016" y="1081" on="1"/>
        <pt x="694" y="1081" on="1"/>
        <pt x="694" y="764" on="1"/>
        <pt x="965" y="764" on="1"/>
        <pt x="965" y="563" on="1"/>
        <pt x="694" y="563" on="1"/>
        <pt x="694" y="197" on="1"/>
        <pt x="1012" y="197" on="1"/>
        <pt x="1012" y="0" on="1"/>
        <pt x="481" y="0" on="1"/>
        <pt x="481" y="326" on="1"/>
        <pt x="307" y="326" on="1"/>
        <pt x="217" y="0" on="1"/>
        <pt x="-4" y="0" on="1"/>
      </contour>
      <contour>
        <pt x="483" y="967" on="1"/>
        <pt x="358" y="514" on="1"/>
        <pt x="483" y="514" on="1"/>
      </contour>
    </TTGlyph>
    <TTGlyph name="Aacute" xMin="0" yMin="0" xMax="1026" yMax="1671">
      <component glyphName=".ttfautohint" x="0" y="0" flags="0x0"/>
      <component glyphName="A" x="0" y="0" flags="0x204"/>
      <component glyphName="acute.cap" x="-32" y="0" flags="0x4"/>
    </TTGlyph>
    <TTGlyph name="Abreve" xMin="0" yMin="0" xMax="1026" yMax="1655">
      <component glyphName=".ttfautohint" x="0" y="0" flags="0x0"/>
      <component glyphName="A" x="0" y="0" flags="0x204"/>
      <component glyphName="breve.cap" x="0" y="0" flags="0x4"/>
    </TTGlyph>
    <TTGlyph name="Acircumflex" xMin="0" yMin="0" xMax="1026" yMax="1638">
      <component glyphName=".ttfautohint" x="0" y="0" flags="0x0"/>
      <component glyphName="A" x="0" y="0" flags="0x204"/>
      <component glyphName="circumflex.cap" x="-22" y="0" flags="0x4"/>
    </TTGlyph>
    <TTGlyph name="Adieresis" xMin="0" yMin="0" xMax="1026" yMax="1663">
      <component glyphName=".ttfautohint" x="0" y="0" flags="0x0"/>
      <component glyphName="A" x="0" y="0" flags="0x204"/>
      <component glyphName="dieresis.cap" x="0" y="0" flags="0x4"/>
    </TTGlyph>
    <TTGlyph name="Agrave" xMin="0" yMin="0" xMax="1026" yMax="1671">
      <component glyphName=".ttfautohint" x="0" y="0" flags="0x0"/>
      <component glyphName="A" x="0" y="0" flags="0x204"/>
      <component glyphName="grave.cap" x="-48" y="0" flags="0x4"/>
    </TTGlyph>
    <TTGlyph name="Aogonek" xMin="0" yMin="-373" xMax="1028" yMax="1307">
      <contour>
        <pt x="786" y="0" on="1"/>
        <pt x="670" y="330" on="1"/>
        <pt x="336" y="330" on="1"/>
        <pt x="236" y="0" on="1"/>
        <pt x="0" y="0" on="1"/>
        <pt x="424" y="1307" on="1"/>
        <pt x="561" y="1307" on="1"/>
        <pt x="1028" y="0" on="1"/>
        <pt x="980" y="-45" on="0"/>
        <pt x="918" y="-102" on="0"/>
        <pt x="882" y="-140" on="0"/>
        <pt x="868" y="-164" on="0"/>
        <pt x="868" y="-176" on="1"/>
        <pt x="868" y="-190" on="0"/>
        <pt x="884" y="-209" on="0"/>
        <pt x="899" y="-209" on="1"/>
        <pt x="911" y="-209" on="0"/>
        <pt x="933" y="-203" on="0"/>
        <pt x="962" y="-185" on="0"/>
        <pt x="1000" y="-154" on="0"/>
        <pt x="1028" y="-129" on="1"/>
        <pt x="1028" y="-307" on="1"/>
        <pt x="986" y="-339" on="0"/>
        <pt x="902" y="-373" on="0"/>
        <pt x="854" y="-373" on="1"/>
        <pt x="757" y="-373" on="0"/>
        <pt x="666" y="-289" on="0"/>
        <pt x="666" y="-223" on="1"/>
        <pt x="666" y="-199" on="0"/>
        <pt x="678" y="-152" on="0"/>
        <pt x="710" y="-100" on="0"/>
        <pt x="766" y="-39" on="0"/>
        <pt x="809" y="0" on="1"/>
      </contour>
      <contour>
        <pt x="627" y="489" on="1"/>
        <pt x="496" y="877" on="1"/>
        <pt x="373" y="489" on="1"/>
      </contour>
    </TTGlyph>
    <TTGlyph name="Apostrophe" xMin="346" yMin="815" xMax="670" yMax="1319">
      <contour>
        <pt x="670" y="1157" on="1"/>
        <pt x="670" y="1020" on="0"/>
        <pt x="465" y="815" on="1"/>
        <pt x="346" y="918" on="1"/>
        <pt x="371" y="942" on="0"/>
        <pt x="414" y="989" on="0"/>
        <pt x="444" y="1032" on="0"/>
        <pt x="461" y="1066" on="0"/>
        <pt x="461" y="1077" on="1"/>
        <pt x="461" y="1080" on="0"/>
        <pt x="448" y="1094" on="0"/>
        <pt x="440" y="1102" on="1"/>
        <pt x="419" y="1120" on="0"/>
        <pt x="383" y="1162" on="0"/>
        <pt x="383" y="1194" on="1"/>
        <pt x="383" y="1221" on="0"/>
        <pt x="403" y="1267" on="0"/>
        <pt x="440" y="1300" on="0"/>
        <pt x="490" y="1319" on="0"/>
        <pt x="520" y="1319" on="1"/>
        <pt x="549" y="1319" on="0"/>
        <pt x="603" y="1295" on="0"/>
        <pt x="645" y="1253" on="0"/>
        <pt x="670" y="1193" on="0"/>
      </contour>
    </TTGlyph>
    <TTGlyph name="Aring" xMin="0" yMin="0" xMax="1026" yMax="1661">
      <contour>
        <pt x="489" y="1661" on="1"/>
        <pt x="533" y="1661" on="0"/>
        <pt x="611" y="1629" on="0"/>
        <pt x="670" y="1573" on="0"/>
        <pt x="705" y="1500" on="0"/>
        <pt x="705" y="1458" on="1"/>
        <pt x="705" y="1426" on="0"/>
        <pt x="684" y="1367" on="0"/>
        <pt x="648" y="1317" on="0"/>
        <pt x="598" y="1279" on="0"/>
        <pt x="569" y="1268" on="1"/>
        <pt x="1026" y="0" on="1"/>
        <pt x="786" y="0" on="1"/>
        <pt x="670" y="330" on="1"/>
        <pt x="336" y="330" on="1"/>
        <pt x="236" y="0" on="1"/>
        <pt x="0" y="0" on="1"/>
        <pt x="416" y="1266" on="1"/>
        <pt x="386" y="1277" on="0"/>
        <pt x="336" y="1315" on="0"/>
        <pt x="299" y="1365" on="0"/>
        <pt x="279" y="1425" on="0"/>
        <pt x="279" y="1458" on="1"/>
        <pt x="279" y="1500" on="0"/>
        <pt x="313" y="1573" on="0"/>
        <pt x="370" y="1629" on="0"/>
        <pt x="446" y="1661" on="0"/>
      </contour>
      <contour>
        <pt x="629" y="489" on="1"/>
        <pt x="496" y="899" on="1"/>
        <pt x="371" y="489" on="1"/>
      </contour>
      <contour>
        <pt x="426" y="1460" on="1"/>
        <pt x="426" y="1428" on="0"/>
        <pt x="464" y="1384" on="0"/>
        <pt x="492" y="1384" on="1"/>
        <pt x="519" y="1384" on="0"/>
        <pt x="557" y="1428" on="0"/>
        <pt x="557" y="1460" on="1"/>
        <pt x="557" y="1492" on="0"/>
        <pt x="519" y="1538" on="0"/>
        <pt x="492" y="1538" on="1"/>
        <pt x="464" y="1538" on="0"/>
        <pt x="426" y="1492" on="0"/>
      </contour>
    </TTGlyph>
    <TTGlyph name="Atilde" xMin="0" yMin="0" xMax="1026" yMax="1669">
      <component glyphName=".ttfautohint" x="0" y="0" flags="0x0"/>
      <component glyphName="A" x="0" y="0" flags="0x204"/>
      <component glyphName="tilde.cap" x="0" y="0" flags="0x4"/>
    </TTGlyph>
    <TTGlyph name="B" xMin="82" yMin="0" xMax="965" yMax="1276">
      <contour>
        <pt x="82" y="1276" on="1"/>
        <pt x="469" y="1276" on="1"/>
        <pt x="585" y="1276" on="0"/>
        <pt x="753" y="1228" on="0"/>
        <pt x="863" y="1141" on="0"/>
        <pt x="915" y="1019" on="0"/>
        <pt x="915" y="946" on="1"/>
        <pt x="915" y="908" on="0"/>
        <pt x="894" y="832" on="0"/>
        <pt x="853" y="763" on="0"/>
        <pt x="796" y="704" on="0"/>
        <pt x="760" y="684" on="1"/>
        <pt x="805" y="663" on="0"/>
        <pt x="880" y="595" on="0"/>
        <pt x="934" y="513" on="0"/>
        <pt x="965" y="421" on="0"/>
        <pt x="965" y="375" on="1"/>
        <pt x="965" y="291" on="0"/>
        <pt x="906" y="152" on="0"/>
        <pt x="783" y="54" on="0"/>
        <pt x="595" y="0" on="0"/>
        <pt x="467" y="0" on="1"/>
        <pt x="82" y="0" on="1"/>
      </contour>
      <contour>
        <pt x="311" y="1085" on="1"/>
        <pt x="311" y="778" on="1"/>
        <pt x="451" y="778" on="1"/>
        <pt x="516" y="778" on="0"/>
        <pt x="605" y="802" on="0"/>
        <pt x="660" y="844" on="0"/>
        <pt x="684" y="901" on="0"/>
        <pt x="684" y="934" on="1"/>
        <pt x="684" y="964" on="0"/>
        <pt x="658" y="1019" on="0"/>
        <pt x="606" y="1060" on="0"/>
        <pt x="525" y="1085" on="0"/>
        <pt x="471" y="1085" on="1"/>
      </contour>
      <contour>
        <pt x="311" y="592" on="1"/>
        <pt x="311" y="195" on="1"/>
        <pt x="489" y="195" on="1"/>
        <pt x="543" y="195" on="0"/>
        <pt x="630" y="213" on="0"/>
        <pt x="692" y="257" on="0"/>
        <pt x="725" y="328" on="0"/>
        <pt x="725" y="381" on="1"/>
        <pt x="725" y="426" on="0"/>
        <pt x="696" y="503" on="0"/>
        <pt x="633" y="560" on="0"/>
        <pt x="530" y="592" on="0"/>
        <pt x="457" y="592" on="1"/>
      </contour>
    </TTGlyph>
    <TTGlyph name="C" xMin="59" yMin="-37" xMax="997" yMax="1309">
      <contour>
        <pt x="791" y="915" on="1"/>
        <pt x="782" y="918" on="0"/>
        <pt x="776" y="930" on="0"/>
        <pt x="775" y="947" on="0"/>
        <pt x="773" y="969" on="0"/>
        <pt x="768" y="981" on="1"/>
        <pt x="739" y="1047" on="0"/>
        <pt x="641" y="1122" on="0"/>
        <pt x="565" y="1122" on="1"/>
        <pt x="504" y="1122" on="0"/>
        <pt x="405" y="1053" on="0"/>
        <pt x="335" y="927" on="0"/>
        <pt x="297" y="749" on="0"/>
        <pt x="297" y="641" on="1"/>
        <pt x="297" y="536" on="0"/>
        <pt x="338" y="359" on="0"/>
        <pt x="412" y="229" on="0"/>
        <pt x="516" y="156" on="0"/>
        <pt x="578" y="156" on="1"/>
        <pt x="652" y="156" on="0"/>
        <pt x="764" y="247" on="0"/>
        <pt x="809" y="326" on="1"/>
        <pt x="983" y="213" on="1"/>
        <pt x="911" y="89" on="0"/>
        <pt x="705" y="-37" on="0"/>
        <pt x="584" y="-37" on="1"/>
        <pt x="471" y="-37" on="0"/>
        <pt x="279" y="44" on="0"/>
        <pt x="138" y="210" on="0"/>
        <pt x="59" y="461" on="0"/>
        <pt x="59" y="631" on="1"/>
        <pt x="59" y="756" on="0"/>
        <pt x="102" y="955" on="0"/>
        <pt x="177" y="1105" on="0"/>
        <pt x="277" y="1211" on="0"/>
        <pt x="390" y="1278" on="0"/>
        <pt x="510" y="1309" on="0"/>
        <pt x="567" y="1309" on="1"/>
        <pt x="639" y="1309" on="0"/>
        <pt x="771" y="1267" on="0"/>
        <pt x="882" y="1190" on="0"/>
        <pt x="969" y="1083" on="0"/>
        <pt x="997" y="1018" on="1"/>
      </contour>
    </TTGlyph>
    <TTGlyph name="Cacute" xMin="59" yMin="-37" xMax="997" yMax="1671">
      <component glyphName=".ttfautohint" x="59" y="0" flags="0x0"/>
      <component glyphName="C" x="0" y="0" flags="0x204"/>
      <component glyphName="acute.cap" x="-34" y="0" flags="0x4"/>
    </TTGlyph>
    <TTGlyph name="Ccaron" xMin="59" yMin="-37" xMax="997" yMax="1638">
      <component glyphName=".ttfautohint" x="59" y="0" flags="0x0"/>
      <component glyphName="C" x="0" y="0" flags="0x204"/>
      <component glyphName="caron.cap" x="72" y="0" flags="0x4"/>
    </TTGlyph>
    <TTGlyph name="Ccedilla" xMin="59" yMin="-389" xMax="997" yMax="1309">
      <contour>
        <pt x="629" y="-215" on="1"/>
        <pt x="629" y="-204" on="0"/>
        <pt x="601" y="-182" on="0"/>
        <pt x="575" y="-182" on="1"/>
        <pt x="475" y="-182" on="1"/>
        <pt x="496" y="-31" on="1"/>
        <pt x="400" y="-16" on="0"/>
        <pt x="239" y="79" on="0"/>
        <pt x="124" y="244" on="0"/>
        <pt x="59" y="478" on="0"/>
        <pt x="59" y="631" on="1"/>
        <pt x="59" y="756" on="0"/>
        <pt x="102" y="955" on="0"/>
        <pt x="177" y="1105" on="0"/>
        <pt x="277" y="1211" on="0"/>
        <pt x="390" y="1278" on="0"/>
        <pt x="510" y="1309" on="0"/>
        <pt x="567" y="1309" on="1"/>
        <pt x="639" y="1309" on="0"/>
        <pt x="771" y="1267" on="0"/>
        <pt x="882" y="1190" on="0"/>
        <pt x="969" y="1083" on="0"/>
        <pt x="997" y="1018" on="1"/>
        <pt x="791" y="915" on="1"/>
        <pt x="782" y="918" on="0"/>
        <pt x="776" y="930" on="0"/>
        <pt x="775" y="947" on="0"/>
        <pt x="773" y="969" on="0"/>
        <pt x="768" y="981" on="1"/>
        <pt x="739" y="1047" on="0"/>
        <pt x="641" y="1122" on="0"/>
        <pt x="565" y="1122" on="1"/>
        <pt x="504" y="1122" on="0"/>
        <pt x="405" y="1053" on="0"/>
        <pt x="335" y="927" on="0"/>
        <pt x="297" y="749" on="0"/>
        <pt x="297" y="641" on="1"/>
        <pt x="297" y="536" on="0"/>
        <pt x="338" y="359" on="0"/>
        <pt x="412" y="229" on="0"/>
        <pt x="516" y="156" on="0"/>
        <pt x="578" y="156" on="1"/>
        <pt x="652" y="156" on="0"/>
        <pt x="764" y="247" on="0"/>
        <pt x="809" y="326" on="1"/>
        <pt x="983" y="213" on="1"/>
        <pt x="921" y="108" on="0"/>
        <pt x="756" y="-12" on="0"/>
        <pt x="659" y="-29" on="1"/>
        <pt x="655" y="-63" on="1"/>
        <pt x="733" y="-71" on="0"/>
        <pt x="815" y="-149" on="0"/>
        <pt x="815" y="-209" on="1"/>
        <pt x="815" y="-241" on="0"/>
        <pt x="783" y="-306" on="0"/>
        <pt x="718" y="-357" on="0"/>
        <pt x="620" y="-389" on="0"/>
        <pt x="553" y="-389" on="1"/>
        <pt x="488" y="-389" on="0"/>
        <pt x="357" y="-346" on="0"/>
        <pt x="295" y="-295" on="1"/>
        <pt x="371" y="-166" on="1"/>
        <pt x="401" y="-191" on="0"/>
        <pt x="453" y="-224" on="0"/>
        <pt x="503" y="-243" on="0"/>
        <pt x="552" y="-250" on="0"/>
        <pt x="578" y="-250" on="1"/>
        <pt x="607" y="-250" on="0"/>
        <pt x="629" y="-226" on="0"/>
      </contour>
    </TTGlyph>
    <TTGlyph name="D" xMin="90" yMin="0" xMax="975" yMax="1276">
      <contour>
        <pt x="90" y="1276" on="1"/>
        <pt x="420" y="1276" on="1"/>
        <pt x="505" y="1276" on="0"/>
        <pt x="635" y="1252" on="0"/>
        <pt x="735" y="1207" on="0"/>
        <pt x="812" y="1141" on="0"/>
        <pt x="844" y="1098" on="1"/>
        <pt x="909" y="1010" on="0"/>
        <pt x="975" y="775" on="0"/>
        <pt x="975" y="629" on="1"/>
        <pt x="975" y="484" on="0"/>
        <pt x="910" y="251" on="0"/>
        <pt x="769" y="88" on="0"/>
        <pt x="549" y="0" on="0"/>
        <pt x="395" y="0" on="1"/>
        <pt x="90" y="0" on="1"/>
      </contour>
      <contour>
        <pt x="313" y="1085" on="1"/>
        <pt x="313" y="180" on="1"/>
        <pt x="391" y="180" on="1"/>
        <pt x="572" y="180" on="0"/>
        <pt x="745" y="409" on="0"/>
        <pt x="745" y="623" on="1"/>
        <pt x="745" y="731" on="0"/>
        <pt x="708" y="902" on="0"/>
        <pt x="627" y="1022" on="0"/>
        <pt x="501" y="1085" on="0"/>
        <pt x="412" y="1085" on="1"/>
      </contour>
    </TTGlyph>
    <TTGlyph name="Dcaron" xMin="90" yMin="0" xMax="975" yMax="1638">
      <component glyphName=".ttfautohint" x="90" y="0" flags="0x0"/>
      <component glyphName="D" x="0" y="0" flags="0x204"/>
      <component glyphName="caron.cap" x="-11" y="0" flags="0x4"/>
    </TTGlyph>
    <TTGlyph name="Dcroat" xMin="10" yMin="0" xMax="975" yMax="1276">
      <contour>
        <pt x="90" y="580" on="1"/>
        <pt x="10" y="580" on="1"/>
        <pt x="10" y="768" on="1"/>
        <pt x="90" y="768" on="1"/>
        <pt x="90" y="1276" on="1"/>
        <pt x="420" y="1276" on="1"/>
        <pt x="505" y="1276" on="0"/>
        <pt x="635" y="1252" on="0"/>
        <pt x="735" y="1207" on="0"/>
        <pt x="812" y="1141" on="0"/>
        <pt x="844" y="1098" on="1"/>
        <pt x="909" y="1010" on="0"/>
        <pt x="975" y="775" on="0"/>
        <pt x="975" y="629" on="1"/>
        <pt x="975" y="484" on="0"/>
        <pt x="910" y="251" on="0"/>
        <pt x="769" y="88" on="0"/>
        <pt x="549" y="0" on="0"/>
        <pt x="395" y="0" on="1"/>
        <pt x="90" y="0" on="1"/>
      </contour>
      <contour>
        <pt x="313" y="1085" on="1"/>
        <pt x="313" y="768" on="1"/>
        <pt x="506" y="768" on="1"/>
        <pt x="506" y="580" on="1"/>
        <pt x="313" y="580" on="1"/>
        <pt x="313" y="180" on="1"/>
        <pt x="391" y="180" on="1"/>
        <pt x="572" y="180" on="0"/>
        <pt x="745" y="409" on="0"/>
        <pt x="745" y="623" on="1"/>
        <pt x="745" y="731" on="0"/>
        <pt x="708" y="902" on="0"/>
        <pt x="627" y="1022" on="0"/>
        <pt x="501" y="1085" on="0"/>
        <pt x="412" y="1085" on="1"/>
      </contour>
    </TTGlyph>
    <TTGlyph name="E" xMin="115" yMin="0" xMax="946" yMax="1276">
      <contour>
        <pt x="115" y="1276" on="1"/>
        <pt x="946" y="1276" on="1"/>
        <pt x="946" y="1079" on="1"/>
        <pt x="338" y="1079" on="1"/>
        <pt x="338" y="764" on="1"/>
        <pt x="842" y="764" on="1"/>
        <pt x="842" y="563" on="1"/>
        <pt x="338" y="563" on="1"/>
        <pt x="338" y="197" on="1"/>
        <pt x="942" y="197" on="1"/>
        <pt x="942" y="0" on="1"/>
        <pt x="115" y="0" on="1"/>
      </contour>
    </TTGlyph>
    <TTGlyph name="Eacute" xMin="115" yMin="0" xMax="946" yMax="1671">
      <component glyphName=".ttfautohint" x="115" y="0" flags="0x0"/>
      <component glyphName="E" x="0" y="0" flags="0x204"/>
      <component glyphName="acute.cap" x="0" y="0" flags="0x4"/>
    </TTGlyph>
    <TTGlyph name="Ecaron" xMin="115" yMin="0" xMax="946" yMax="1638">
      <component glyphName=".ttfautohint" x="115" y="0" flags="0x0"/>
      <component glyphName="E" x="0" y="0" flags="0x204"/>
      <component glyphName="caron.cap" x="39" y="0" flags="0x4"/>
    </TTGlyph>
    <TTGlyph name="Ecircumflex" xMin="115" yMin="0" xMax="946" yMax="1638">
      <component glyphName=".ttfautohint" x="115" y="0" flags="0x0"/>
      <component glyphName="E" x="0" y="0" flags="0x204"/>
      <component glyphName="circumflex.cap" x="-5" y="0" flags="0x4"/>
    </TTGlyph>
    <TTGlyph name="Edieresis" xMin="115" yMin="0" xMax="946" yMax="1663">
      <component glyphName=".ttfautohint" x="115" y="0" flags="0x0"/>
      <component glyphName="E" x="0" y="0" flags="0x204"/>
      <component glyphName="dieresis.cap" x="12" y="0" flags="0x4"/>
    </TTGlyph>
    <TTGlyph name="Egrave" xMin="115" yMin="0" xMax="946" yMax="1671">
      <component glyphName=".ttfautohint" x="115" y="0" flags="0x0"/>
      <component glyphName="E" x="0" y="0" flags="0x204"/>
      <component glyphName="grave.cap" x="-48" y="0" flags="0x4"/>
    </TTGlyph>
    <TTGlyph name="Eng" xMin="70" yMin="-39" xMax="932" yMax="1307">
      <contour>
        <pt x="598" y="158" on="1"/>
        <pt x="700" y="158" on="0"/>
        <pt x="700" y="348" on="1"/>
        <pt x="700" y="860" on="1"/>
        <pt x="700" y="930" on="0"/>
        <pt x="677" y="1026" on="0"/>
        <pt x="637" y="1084" on="0"/>
        <pt x="581" y="1110" on="0"/>
        <pt x="547" y="1110" on="1"/>
        <pt x="503" y="1110" on="0"/>
        <pt x="417" y="1070" on="0"/>
        <pt x="349" y="1000" on="0"/>
        <pt x="307" y="902" on="0"/>
        <pt x="307" y="844" on="1"/>
        <pt x="307" y="0" on="1"/>
        <pt x="70" y="0" on="1"/>
        <pt x="70" y="1276" on="1"/>
        <pt x="307" y="1276" on="1"/>
        <pt x="307" y="1182" on="1"/>
        <pt x="361" y="1236" on="0"/>
        <pt x="495" y="1307" on="0"/>
        <pt x="569" y="1307" on="1"/>
        <pt x="657" y="1307" on="0"/>
        <pt x="792" y="1256" on="0"/>
        <pt x="884" y="1148" on="0"/>
        <pt x="932" y="980" on="0"/>
        <pt x="932" y="864" on="1"/>
        <pt x="932" y="356" on="1"/>
        <pt x="932" y="257" on="0"/>
        <pt x="885" y="109" on="0"/>
        <pt x="796" y="10" on="0"/>
        <pt x="670" y="-39" on="0"/>
        <pt x="592" y="-39" on="1"/>
        <pt x="538" y="-39" on="0"/>
        <pt x="426" y="-2" on="0"/>
        <pt x="365" y="35" on="1"/>
        <pt x="471" y="221" on="1"/>
        <pt x="489" y="221" on="0"/>
        <pt x="502" y="201" on="1"/>
        <pt x="511" y="185" on="0"/>
        <pt x="558" y="158" on="0"/>
      </contour>
    </TTGlyph>
    <TTGlyph name="Eogonek" xMin="115" yMin="-373" xMax="946" yMax="1276">
      <contour>
        <pt x="115" y="1276" on="1"/>
        <pt x="946" y="1276" on="1"/>
        <pt x="946" y="1079" on="1"/>
        <pt x="338" y="1079" on="1"/>
        <pt x="338" y="764" on="1"/>
        <pt x="842" y="764" on="1"/>
        <pt x="842" y="563" on="1"/>
        <pt x="338" y="563" on="1"/>
        <pt x="338" y="197" on="1"/>
        <pt x="942" y="197" on="1"/>
        <pt x="942" y="0" on="1"/>
        <pt x="894" y="-45" on="0"/>
        <pt x="832" y="-102" on="0"/>
        <pt x="796" y="-140" on="0"/>
        <pt x="782" y="-164" on="0"/>
        <pt x="782" y="-176" on="1"/>
        <pt x="782" y="-190" on="0"/>
        <pt x="798" y="-209" on="0"/>
        <pt x="813" y="-209" on="1"/>
        <pt x="825" y="-209" on="0"/>
        <pt x="847" y="-203" on="0"/>
        <pt x="876" y="-185" on="0"/>
        <pt x="914" y="-154" on="0"/>
        <pt x="942" y="-129" on="1"/>
        <pt x="942" y="-307" on="1"/>
        <pt x="900" y="-339" on="0"/>
        <pt x="816" y="-373" on="0"/>
        <pt x="768" y="-373" on="1"/>
        <pt x="671" y="-373" on="0"/>
        <pt x="580" y="-289" on="0"/>
        <pt x="580" y="-223" on="1"/>
        <pt x="580" y="-199" on="0"/>
        <pt x="599" y="-152" on="0"/>
        <pt x="639" y="-100" on="0"/>
        <pt x="700" y="-39" on="0"/>
        <pt x="743" y="0" on="1"/>
        <pt x="115" y="0" on="1"/>
      </contour>
    </TTGlyph>
    <TTGlyph name="Eth" xMin="10" yMin="0" xMax="975" yMax="1276">
      <contour>
        <pt x="90" y="580" on="1"/>
        <pt x="10" y="580" on="1"/>
        <pt x="10" y="768" on="1"/>
        <pt x="90" y="768" on="1"/>
        <pt x="90" y="1276" on="1"/>
        <pt x="420" y="1276" on="1"/>
        <pt x="505" y="1276" on="0"/>
        <pt x="635" y="1252" on="0"/>
        <pt x="735" y="1207" on="0"/>
        <pt x="812" y="1141" on="0"/>
        <pt x="844" y="1098" on="1"/>
        <pt x="909" y="1010" on="0"/>
        <pt x="975" y="775" on="0"/>
        <pt x="975" y="629" on="1"/>
        <pt x="975" y="484" on="0"/>
        <pt x="910" y="251" on="0"/>
        <pt x="769" y="88" on="0"/>
        <pt x="549" y="0" on="0"/>
        <pt x="395" y="0" on="1"/>
        <pt x="90" y="0" on="1"/>
      </contour>
      <contour>
        <pt x="313" y="1085" on="1"/>
        <pt x="313" y="768" on="1"/>
        <pt x="506" y="768" on="1"/>
        <pt x="506" y="580" on="1"/>
        <pt x="313" y="580" on="1"/>
        <pt x="313" y="180" on="1"/>
        <pt x="391" y="180" on="1"/>
        <pt x="572" y="180" on="0"/>
        <pt x="745" y="409" on="0"/>
        <pt x="745" y="623" on="1"/>
        <pt x="745" y="731" on="0"/>
        <pt x="708" y="902" on="0"/>
        <pt x="627" y="1022" on="0"/>
        <pt x="501" y="1085" on="0"/>
        <pt x="412" y="1085" on="1"/>
      </contour>
    </TTGlyph>
    <TTGlyph name="Euro" xMin="39" yMin="-31" xMax="981" yMax="1290">
      <contour>
        <pt x="905" y="954" on="1"/>
        <pt x="887" y="978" on="0"/>
        <pt x="848" y="1032" on="0"/>
        <pt x="794" y="1078" on="0"/>
        <pt x="715" y="1108" on="0"/>
        <pt x="657" y="1108" on="1"/>
        <pt x="568" y="1108" on="0"/>
        <pt x="426" y="989" on="0"/>
        <pt x="395" y="872" on="1"/>
        <pt x="877" y="872" on="1"/>
        <pt x="807" y="686" on="1"/>
        <pt x="365" y="686" on="1"/>
        <pt x="363" y="669" on="0"/>
        <pt x="362" y="637" on="0"/>
        <pt x="362" y="625" on="1"/>
        <pt x="362" y="594" on="1"/>
        <pt x="778" y="594" on="1"/>
        <pt x="707" y="410" on="1"/>
        <pt x="383" y="410" on="1"/>
        <pt x="412" y="288" on="0"/>
        <pt x="552" y="158" on="0"/>
        <pt x="655" y="158" on="1"/>
        <pt x="717" y="158" on="0"/>
        <pt x="821" y="216" on="0"/>
        <pt x="877" y="268" on="1"/>
        <pt x="971" y="100" on="1"/>
        <pt x="898" y="37" on="0"/>
        <pt x="743" y="-31" on="0"/>
        <pt x="647" y="-31" on="1"/>
        <pt x="554" y="-31" on="0"/>
        <pt x="395" y="29" on="0"/>
        <pt x="270" y="143" on="0"/>
        <pt x="185" y="307" on="0"/>
        <pt x="166" y="410" on="1"/>
        <pt x="39" y="410" on="1"/>
        <pt x="82" y="594" on="1"/>
        <pt x="147" y="598" on="1"/>
        <pt x="147" y="643" on="1"/>
        <pt x="147" y="654" on="0"/>
        <pt x="148" y="674" on="0"/>
        <pt x="150" y="686" on="1"/>
        <pt x="41" y="686" on="1"/>
        <pt x="84" y="872" on="1"/>
        <pt x="180" y="872" on="1"/>
        <pt x="205" y="985" on="0"/>
        <pt x="304" y="1144" on="0"/>
        <pt x="433" y="1244" on="0"/>
        <pt x="586" y="1290" on="0"/>
        <pt x="666" y="1290" on="1"/>
        <pt x="856" y="1290" on="0"/>
        <pt x="981" y="1153" on="1"/>
      </contour>
    </TTGlyph>
    <TTGlyph name="F" xMin="139" yMin="0" xMax="932" yMax="1276">
      <contour>
        <pt x="139" y="1276" on="1"/>
        <pt x="932" y="1276" on="1"/>
        <pt x="932" y="1081" on="1"/>
        <pt x="369" y="1081" on="1"/>
        <pt x="369" y="782" on="1"/>
        <pt x="823" y="782" on="1"/>
        <pt x="823" y="590" on="1"/>
        <pt x="369" y="590" on="1"/>
        <pt x="369" y="0" on="1"/>
        <pt x="139" y="0" on="1"/>
      </contour>
    </TTGlyph>
    <TTGlyph name="G" xMin="33" yMin="-37" xMax="956" yMax="1309">
      <contour>
        <pt x="813" y="913" on="1"/>
        <pt x="795" y="921" on="0"/>
        <pt x="773" y="936" on="0"/>
        <pt x="761" y="952" on="0"/>
        <pt x="754" y="968" on="0"/>
        <pt x="750" y="977" on="1"/>
        <pt x="738" y="1005" on="0"/>
        <pt x="697" y="1054" on="0"/>
        <pt x="645" y="1092" on="0"/>
        <pt x="583" y="1114" on="0"/>
        <pt x="549" y="1114" on="1"/>
        <pt x="498" y="1114" on="0"/>
        <pt x="398" y="1065" on="0"/>
        <pt x="319" y="955" on="0"/>
        <pt x="270" y="780" on="0"/>
        <pt x="270" y="653" on="1"/>
        <pt x="270" y="537" on="0"/>
        <pt x="312" y="353" on="0"/>
        <pt x="388" y="226" on="0"/>
        <pt x="491" y="158" on="0"/>
        <pt x="553" y="158" on="1"/>
        <pt x="599" y="158" on="0"/>
        <pt x="695" y="180" on="0"/>
        <pt x="735" y="211" on="1"/>
        <pt x="735" y="451" on="1"/>
        <pt x="518" y="451" on="1"/>
        <pt x="518" y="645" on="1"/>
        <pt x="952" y="645" on="1"/>
        <pt x="952" y="109" on="1"/>
        <pt x="860" y="32" on="0"/>
        <pt x="665" y="-37" on="0"/>
        <pt x="553" y="-37" on="1"/>
        <pt x="428" y="-37" on="0"/>
        <pt x="234" y="62" on="0"/>
        <pt x="102" y="241" on="0"/>
        <pt x="33" y="489" on="0"/>
        <pt x="33" y="639" on="1"/>
        <pt x="33" y="773" on="0"/>
        <pt x="84" y="977" on="0"/>
        <pt x="168" y="1126" on="0"/>
        <pt x="277" y="1225" on="0"/>
        <pt x="392" y="1284" on="0"/>
        <pt x="506" y="1309" on="0"/>
        <pt x="553" y="1309" on="1"/>
        <pt x="618" y="1309" on="0"/>
        <pt x="737" y="1273" on="0"/>
        <pt x="841" y="1207" on="0"/>
        <pt x="925" y="1115" on="0"/>
        <pt x="956" y="1059" on="1"/>
      </contour>
    </TTGlyph>
    <TTGlyph name="Gbreve" xMin="33" yMin="-37" xMax="956" yMax="1667">
      <component glyphName=".ttfautohint" x="33" y="0" flags="0x0"/>
      <component glyphName="G" x="0" y="0" flags="0x204"/>
      <component glyphName="breve.cap" x="39" y="12" flags="0x4"/>
    </TTGlyph>
    <TTGlyph name="H" xMin="88" yMin="0" xMax="954" yMax="1276">
      <contour>
        <pt x="936" y="0" on="1"/>
        <pt x="700" y="0" on="1"/>
        <pt x="700" y="571" on="1"/>
        <pt x="324" y="571" on="1"/>
        <pt x="324" y="0" on="1"/>
        <pt x="88" y="0" on="1"/>
        <pt x="88" y="1276" on="1"/>
        <pt x="338" y="1276" on="1"/>
        <pt x="342" y="1272" on="0"/>
        <pt x="342" y="1266" on="1"/>
        <pt x="342" y="1262" on="0"/>
        <pt x="337" y="1253" on="0"/>
        <pt x="331" y="1239" on="0"/>
        <pt x="325" y="1219" on="0"/>
        <pt x="324" y="1204" on="1"/>
        <pt x="324" y="762" on="1"/>
        <pt x="700" y="762" on="1"/>
        <pt x="700" y="1276" on="1"/>
        <pt x="950" y="1276" on="1"/>
        <pt x="954" y="1272" on="0"/>
        <pt x="954" y="1266" on="1"/>
        <pt x="954" y="1262" on="0"/>
        <pt x="949" y="1253" on="0"/>
        <pt x="943" y="1239" on="0"/>
        <pt x="937" y="1219" on="0"/>
        <pt x="936" y="1204" on="1"/>
      </contour>
    </TTGlyph>
    <TTGlyph name="I" xMin="150" yMin="0" xMax="885" yMax="1276">
      <contour>
        <pt x="162" y="1276" on="1"/>
        <pt x="874" y="1276" on="1"/>
        <pt x="874" y="1085" on="1"/>
        <pt x="627" y="1085" on="1"/>
        <pt x="627" y="188" on="1"/>
        <pt x="885" y="188" on="1"/>
        <pt x="885" y="0" on="1"/>
        <pt x="150" y="0" on="1"/>
        <pt x="150" y="190" on="1"/>
        <pt x="397" y="190" on="1"/>
        <pt x="397" y="1085" on="1"/>
        <pt x="162" y="1085" on="1"/>
      </contour>
    </TTGlyph>
    <TTGlyph name="Iacute" xMin="150" yMin="0" xMax="885" yMax="1671">
      <component glyphName=".ttfautohint" x="150" y="0" flags="0x0"/>
      <component glyphName="I" x="0" y="0" flags="0x204"/>
      <component glyphName="acute.cap" x="0" y="0" flags="0x4"/>
    </TTGlyph>
    <TTGlyph name="Icircumflex" xMin="150" yMin="0" xMax="885" yMax="1638">
      <component glyphName=".ttfautohint" x="150" y="0" flags="0x0"/>
      <component glyphName="I" x="0" y="0" flags="0x204"/>
      <component glyphName="circumflex.cap" x="-24" y="0" flags="0x4"/>
    </TTGlyph>
    <TTGlyph name="Idieresis" xMin="150" yMin="0" xMax="885" yMax="1663">
      <component glyphName=".ttfautohint" x="150" y="0" flags="0x0"/>
      <component glyphName="I" x="0" y="0" flags="0x204"/>
      <component glyphName="dieresis.cap" x="6" y="0" flags="0x4"/>
    </TTGlyph>
    <TTGlyph name="Idotaccent" xMin="150" yMin="0" xMax="885" yMax="1667">
      <component glyphName=".ttfautohint" x="150" y="0" flags="0x0"/>
      <component glyphName="I" x="0" y="0" flags="0x204"/>
      <component glyphName="dotaccent.cap" x="0" y="0" flags="0x4"/>
    </TTGlyph>
    <TTGlyph name="Igrave" xMin="150" yMin="0" xMax="885" yMax="1671">
      <component glyphName=".ttfautohint" x="150" y="0" flags="0x0"/>
      <component glyphName="I" x="0" y="0" flags="0x204"/>
      <component glyphName="grave.cap" x="-48" y="0" flags="0x4"/>
    </TTGlyph>
    <TTGlyph name="J" xMin="51" yMin="-35" xMax="950" yMax="1276">
      <contour>
        <pt x="291" y="1276" on="1"/>
        <pt x="950" y="1276" on="1"/>
        <pt x="950" y="1085" on="1"/>
        <pt x="758" y="1085" on="1"/>
        <pt x="758" y="412" on="1"/>
        <pt x="758" y="295" on="0"/>
        <pt x="700" y="126" on="0"/>
        <pt x="600" y="17" on="0"/>
        <pt x="468" y="-35" on="0"/>
        <pt x="393" y="-35" on="1"/>
        <pt x="290" y="-35" on="0"/>
        <pt x="117" y="55" on="0"/>
        <pt x="51" y="143" on="1"/>
        <pt x="197" y="319" on="1"/>
        <pt x="207" y="316" on="0"/>
        <pt x="218" y="301" on="0"/>
        <pt x="226" y="280" on="0"/>
        <pt x="235" y="255" on="0"/>
        <pt x="242" y="242" on="1"/>
        <pt x="254" y="226" on="0"/>
        <pt x="279" y="197" on="0"/>
        <pt x="311" y="175" on="0"/>
        <pt x="354" y="162" on="0"/>
        <pt x="383" y="162" on="1"/>
        <pt x="458" y="162" on="0"/>
        <pt x="528" y="291" on="0"/>
        <pt x="528" y="438" on="1"/>
        <pt x="528" y="1085" on="1"/>
        <pt x="291" y="1085" on="1"/>
      </contour>
    </TTGlyph>
    <TTGlyph name="K" xMin="88" yMin="-10" xMax="1036" yMax="1292">
      <contour>
        <pt x="324" y="0" on="1"/>
        <pt x="88" y="0" on="1"/>
        <pt x="88" y="1276" on="1"/>
        <pt x="338" y="1276" on="1"/>
        <pt x="342" y="1272" on="0"/>
        <pt x="342" y="1266" on="1"/>
        <pt x="342" y="1262" on="0"/>
        <pt x="337" y="1253" on="0"/>
        <pt x="331" y="1239" on="0"/>
        <pt x="325" y="1219" on="0"/>
        <pt x="324" y="1204" on="1"/>
        <pt x="324" y="788" on="1"/>
        <pt x="758" y="1292" on="1"/>
        <pt x="792" y="1284" on="0"/>
        <pt x="854" y="1276" on="0"/>
        <pt x="877" y="1276" on="1"/>
        <pt x="1018" y="1276" on="1"/>
        <pt x="543" y="733" on="1"/>
        <pt x="1036" y="2" on="1"/>
        <pt x="758" y="-10" on="1"/>
        <pt x="379" y="582" on="1"/>
        <pt x="324" y="522" on="1"/>
      </contour>
    </TTGlyph>
    <TTGlyph name="L" xMin="125" yMin="0" xMax="940" yMax="1276">
      <contour>
        <pt x="940" y="193" on="1"/>
        <pt x="940" y="0" on="1"/>
        <pt x="125" y="0" on="1"/>
        <pt x="125" y="1276" on="1"/>
        <pt x="375" y="1276" on="1"/>
        <pt x="379" y="1272" on="0"/>
        <pt x="379" y="1266" on="1"/>
        <pt x="379" y="1258" on="0"/>
        <pt x="364" y="1235" on="0"/>
        <pt x="360" y="1204" on="1"/>
        <pt x="360" y="193" on="1"/>
      </contour>
    </TTGlyph>
    <TTGlyph name="Lacute" xMin="125" yMin="0" xMax="940" yMax="1671">
      <component glyphName=".ttfautohint" x="125" y="0" flags="0x0"/>
      <component glyphName="L" x="0" y="0" flags="0x204"/>
      <component glyphName="acute.cap" x="-34" y="0" flags="0x4"/>
    </TTGlyph>
    <TTGlyph name="Lcaron" xMin="125" yMin="0" xMax="940" yMax="1319">
      <component glyphName=".ttfautohint" x="125" y="0" flags="0x0"/>
      <component glyphName="L" x="0" y="0" flags="0x204"/>
      <component glyphName="Apostrophe" x="236" y="0" flags="0x4"/>
    </TTGlyph>
    <TTGlyph name="Lslash" xMin="10" yMin="2" xMax="940" yMax="1276">
      <contour>
        <pt x="940" y="195" on="1"/>
        <pt x="940" y="2" on="1"/>
        <pt x="125" y="2" on="1"/>
        <pt x="125" y="453" on="1"/>
        <pt x="10" y="416" on="1"/>
        <pt x="10" y="610" on="1"/>
        <pt x="125" y="647" on="1"/>
        <pt x="125" y="1276" on="1"/>
        <pt x="375" y="1276" on="1"/>
        <pt x="379" y="1272" on="0"/>
        <pt x="379" y="1266" on="1"/>
        <pt x="379" y="1258" on="0"/>
        <pt x="364" y="1235" on="0"/>
        <pt x="360" y="1204" on="1"/>
        <pt x="360" y="724" on="1"/>
        <pt x="643" y="817" on="1"/>
        <pt x="663" y="826" on="0"/>
        <pt x="700" y="850" on="0"/>
        <pt x="717" y="864" on="1"/>
        <pt x="717" y="645" on="1"/>
        <pt x="360" y="529" on="1"/>
        <pt x="360" y="195" on="1"/>
      </contour>
    </TTGlyph>
    <TTGlyph name="M" xMin="61" yMin="0" xMax="975" yMax="1278">
      <contour>
        <pt x="61" y="1276" on="1"/>
        <pt x="303" y="1276" on="1"/>
        <pt x="518" y="676" on="1"/>
        <pt x="731" y="1278" on="1"/>
        <pt x="975" y="1278" on="1"/>
        <pt x="975" y="0" on="1"/>
        <pt x="768" y="0" on="1"/>
        <pt x="768" y="926" on="1"/>
        <pt x="590" y="444" on="1"/>
        <pt x="438" y="444" on="1"/>
        <pt x="266" y="926" on="1"/>
        <pt x="266" y="0" on="1"/>
        <pt x="61" y="0" on="1"/>
      </contour>
    </TTGlyph>
    <TTGlyph name="N" xMin="66" yMin="0" xMax="977" yMax="1276">
      <contour>
        <pt x="958" y="0" on="1"/>
        <pt x="705" y="0" on="1"/>
        <pt x="272" y="965" on="1"/>
        <pt x="272" y="0" on="1"/>
        <pt x="66" y="0" on="1"/>
        <pt x="66" y="1276" on="1"/>
        <pt x="346" y="1276" on="1"/>
        <pt x="752" y="362" on="1"/>
        <pt x="752" y="1276" on="1"/>
        <pt x="973" y="1276" on="1"/>
        <pt x="977" y="1272" on="0"/>
        <pt x="977" y="1266" on="1"/>
        <pt x="977" y="1258" on="0"/>
        <pt x="962" y="1235" on="0"/>
        <pt x="958" y="1204" on="1"/>
      </contour>
    </TTGlyph>
    <TTGlyph name="Nacute" xMin="66" yMin="0" xMax="977" yMax="1671">
      <component glyphName=".ttfautohint" x="66" y="0" flags="0x0"/>
      <component glyphName="N" x="0" y="0" flags="0x204"/>
      <component glyphName="acute.cap" x="-34" y="0" flags="0x4"/>
    </TTGlyph>
    <TTGlyph name="Ncaron" xMin="66" yMin="0" xMax="977" yMax="1638">
      <component glyphName=".ttfautohint" x="66" y="0" flags="0x0"/>
      <component glyphName="N" x="0" y="0" flags="0x204"/>
      <component glyphName="caron.cap" x="39" y="0" flags="0x4"/>
    </TTGlyph>
    <TTGlyph name="Ntilde" xMin="66" yMin="0" xMax="977" yMax="1669">
      <component glyphName=".ttfautohint" x="66" y="0" flags="0x0"/>
      <component glyphName="N" x="0" y="0" flags="0x204"/>
      <component glyphName="tilde.cap" x="10" y="0" flags="0x4"/>
    </TTGlyph>
    <TTGlyph name="O" xMin="35" yMin="-37" xMax="989" yMax="1309">
      <contour>
        <pt x="514" y="-37" on="1"/>
        <pt x="401" y="-37" on="0"/>
        <pt x="223" y="64" on="0"/>
        <pt x="100" y="245" on="0"/>
        <pt x="35" y="494" on="0"/>
        <pt x="35" y="641" on="1"/>
        <pt x="35" y="789" on="0"/>
        <pt x="102" y="1035" on="0"/>
        <pt x="227" y="1211" on="0"/>
        <pt x="405" y="1309" on="0"/>
        <pt x="516" y="1309" on="1"/>
        <pt x="612" y="1309" on="0"/>
        <pt x="784" y="1227" on="0"/>
        <pt x="913" y="1061" on="0"/>
        <pt x="989" y="809" on="0"/>
        <pt x="989" y="639" on="1"/>
        <pt x="989" y="516" on="0"/>
        <pt x="951" y="320" on="0"/>
        <pt x="885" y="170" on="0"/>
        <pt x="795" y="63" on="0"/>
        <pt x="689" y="-5" on="0"/>
        <pt x="573" y="-37" on="0"/>
      </contour>
      <contour>
        <pt x="272" y="653" on="1"/>
        <pt x="272" y="536" on="0"/>
        <pt x="308" y="356" on="0"/>
        <pt x="373" y="234" on="0"/>
        <pt x="462" y="172" on="0"/>
        <pt x="516" y="172" on="1"/>
        <pt x="562" y="172" on="0"/>
        <pt x="647" y="218" on="0"/>
        <pt x="711" y="328" on="0"/>
        <pt x="750" y="509" on="0"/>
        <pt x="750" y="643" on="1"/>
        <pt x="750" y="771" on="0"/>
        <pt x="708" y="947" on="0"/>
        <pt x="642" y="1056" on="0"/>
        <pt x="559" y="1104" on="0"/>
        <pt x="518" y="1104" on="1"/>
        <pt x="469" y="1104" on="0"/>
        <pt x="380" y="1060" on="0"/>
        <pt x="312" y="956" on="0"/>
        <pt x="272" y="783" on="0"/>
      </contour>
    </TTGlyph>
    <TTGlyph name="OE" xMin="6" yMin="-14" xMax="1010" yMax="1294">
      <contour>
        <pt x="369" y="1294" on="1"/>
        <pt x="397" y="1294" on="0"/>
        <pt x="463" y="1270" on="0"/>
        <pt x="489" y="1247" on="1"/>
        <pt x="489" y="1278" on="1"/>
        <pt x="1010" y="1278" on="1"/>
        <pt x="1010" y="1081" on="1"/>
        <pt x="692" y="1081" on="1"/>
        <pt x="692" y="764" on="1"/>
        <pt x="961" y="764" on="1"/>
        <pt x="961" y="565" on="1"/>
        <pt x="692" y="565" on="1"/>
        <pt x="692" y="197" on="1"/>
        <pt x="1006" y="197" on="1"/>
        <pt x="1006" y="0" on="1"/>
        <pt x="487" y="0" on="1"/>
        <pt x="487" y="33" on="1"/>
        <pt x="460" y="11" on="0"/>
        <pt x="391" y="-14" on="0"/>
        <pt x="362" y="-14" on="1"/>
        <pt x="281" y="-14" on="0"/>
        <pt x="150" y="64" on="0"/>
        <pt x="57" y="224" on="0"/>
        <pt x="6" y="471" on="0"/>
        <pt x="6" y="639" on="1"/>
        <pt x="6" y="964" on="0"/>
        <pt x="195" y="1294" on="0"/>
      </contour>
      <contour>
        <pt x="369" y="1104" on="1"/>
        <pt x="338" y="1104" on="0"/>
        <pt x="286" y="1059" on="0"/>
        <pt x="247" y="953" on="0"/>
        <pt x="225" y="774" on="0"/>
        <pt x="225" y="641" on="1"/>
        <pt x="225" y="421" on="0"/>
        <pt x="302" y="182" on="0"/>
        <pt x="385" y="182" on="1"/>
        <pt x="423" y="182" on="0"/>
        <pt x="471" y="242" on="0"/>
        <pt x="477" y="295" on="1"/>
        <pt x="477" y="977" on="1"/>
        <pt x="466" y="1031" on="0"/>
        <pt x="414" y="1104" on="0"/>
      </contour>
    </TTGlyph>
    <TTGlyph name="Oacute" xMin="35" yMin="-37" xMax="989" yMax="1671">
      <component glyphName=".ttfautohint" x="35" y="0" flags="0x0"/>
      <component glyphName="O" x="0" y="0" flags="0x204"/>
      <component glyphName="acute.cap" x="0" y="0" flags="0x4"/>
    </TTGlyph>
    <TTGlyph name="Ocircumflex" xMin="35" yMin="-37" xMax="989" yMax="1638">
      <component glyphName=".ttfautohint" x="35" y="0" flags="0x0"/>
      <component glyphName="O" x="0" y="0" flags="0x204"/>
      <component glyphName="circumflex.cap" x="0" y="0" flags="0x4"/>
    </TTGlyph>
    <TTGlyph name="Odieresis" xMin="35" yMin="-37" xMax="989" yMax="1663">
      <component glyphName=".ttfautohint" x="35" y="0" flags="0x0"/>
      <component glyphName="O" x="0" y="0" flags="0x204"/>
      <component glyphName="dieresis.cap" x="12" y="0" flags="0x4"/>
    </TTGlyph>
    <TTGlyph name="Ograve" xMin="35" yMin="-37" xMax="989" yMax="1671">
      <component glyphName=".ttfautohint" x="35" y="0" flags="0x0"/>
      <component glyphName="O" x="0" y="0" flags="0x204"/>
      <component glyphName="grave.cap" x="-48" y="0" flags="0x4"/>
    </TTGlyph>
    <TTGlyph name="Ohungarumlaut" xMin="35" yMin="-37" xMax="989" yMax="1686">
      <component glyphName=".ttfautohint" x="35" y="0" flags="0x0"/>
      <component glyphName="O" x="0" y="0" flags="0x204"/>
      <component glyphName="hungarumlaut.cap" x="0" y="0" flags="0x4"/>
    </TTGlyph>
    <TTGlyph name="Oslash" xMin="35" yMin="-141" xMax="995" yMax="1397">
      <contour>
        <pt x="514" y="-37" on="1"/>
        <pt x="455" y="-37" on="0"/>
        <pt x="352" y="-8" on="0"/>
        <pt x="305" y="16" on="1"/>
        <pt x="221" y="-141" on="1"/>
        <pt x="41" y="-47" on="1"/>
        <pt x="154" y="166" on="1"/>
        <pt x="95" y="256" on="0"/>
        <pt x="35" y="498" on="0"/>
        <pt x="35" y="641" on="1"/>
        <pt x="35" y="789" on="0"/>
        <pt x="102" y="1035" on="0"/>
        <pt x="227" y="1211" on="0"/>
        <pt x="405" y="1309" on="0"/>
        <pt x="516" y="1309" on="1"/>
        <pt x="573" y="1309" on="0"/>
        <pt x="680" y="1278" on="0"/>
        <pt x="729" y="1249" on="1"/>
        <pt x="807" y="1397" on="1"/>
        <pt x="995" y="1300" on="1"/>
        <pt x="883" y="1092" on="1"/>
        <pt x="932" y="1010" on="0"/>
        <pt x="989" y="784" on="0"/>
        <pt x="989" y="639" on="1"/>
        <pt x="989" y="516" on="0"/>
        <pt x="951" y="320" on="0"/>
        <pt x="885" y="170" on="0"/>
        <pt x="795" y="63" on="0"/>
        <pt x="689" y="-5" on="0"/>
        <pt x="573" y="-37" on="0"/>
      </contour>
      <contour>
        <pt x="627" y="1059" on="1"/>
        <pt x="576" y="1104" on="0"/>
        <pt x="518" y="1104" on="1"/>
        <pt x="469" y="1104" on="0"/>
        <pt x="380" y="1060" on="0"/>
        <pt x="312" y="956" on="0"/>
        <pt x="272" y="783" on="0"/>
        <pt x="272" y="653" on="1"/>
        <pt x="272" y="588" on="0"/>
        <pt x="284" y="478" on="0"/>
        <pt x="293" y="430" on="1"/>
      </contour>
      <contour>
        <pt x="737" y="819" on="1"/>
        <pt x="410" y="209" on="1"/>
        <pt x="433" y="190" on="0"/>
        <pt x="487" y="172" on="0"/>
        <pt x="516" y="172" on="1"/>
        <pt x="562" y="172" on="0"/>
        <pt x="647" y="218" on="0"/>
        <pt x="711" y="328" on="0"/>
        <pt x="750" y="509" on="0"/>
        <pt x="750" y="643" on="1"/>
        <pt x="750" y="693" on="0"/>
        <pt x="743" y="781" on="0"/>
      </contour>
    </TTGlyph>
    <TTGlyph name="Otilde" xMin="35" yMin="-37" xMax="989" yMax="1669">
      <component glyphName=".ttfautohint" x="35" y="0" flags="0x0"/>
      <component glyphName="O" x="0" y="0" flags="0x204"/>
      <component glyphName="tilde.cap" x="10" y="0" flags="0x4"/>
    </TTGlyph>
    <TTGlyph name="P" xMin="102" yMin="0" xMax="965" yMax="1276">
      <contour>
        <pt x="102" y="1276" on="1"/>
        <pt x="535" y="1276" on="1"/>
        <pt x="649" y="1276" on="0"/>
        <pt x="811" y="1215" on="0"/>
        <pt x="916" y="1110" on="0"/>
        <pt x="965" y="971" on="0"/>
        <pt x="965" y="893" on="1"/>
        <pt x="965" y="815" on="0"/>
        <pt x="917" y="678" on="0"/>
        <pt x="815" y="576" on="0"/>
        <pt x="656" y="516" on="0"/>
        <pt x="545" y="516" on="1"/>
        <pt x="336" y="516" on="1"/>
        <pt x="336" y="0" on="1"/>
        <pt x="102" y="0" on="1"/>
      </contour>
      <contour>
        <pt x="336" y="1073" on="1"/>
        <pt x="336" y="711" on="1"/>
        <pt x="528" y="711" on="1"/>
        <pt x="581" y="711" on="0"/>
        <pt x="657" y="738" on="0"/>
        <pt x="706" y="785" on="0"/>
        <pt x="729" y="849" on="0"/>
        <pt x="729" y="887" on="1"/>
        <pt x="729" y="927" on="0"/>
        <pt x="705" y="995" on="0"/>
        <pt x="656" y="1045" on="0"/>
        <pt x="581" y="1073" on="0"/>
        <pt x="530" y="1073" on="1"/>
      </contour>
    </TTGlyph>
    <TTGlyph name="Q" xMin="35" yMin="-299" xMax="989" yMax="1309">
      <contour>
        <pt x="401" y="-23" on="1"/>
        <pt x="314" y="0" on="0"/>
        <pt x="177" y="117" on="0"/>
        <pt x="84" y="291" on="0"/>
        <pt x="35" y="513" on="0"/>
        <pt x="35" y="641" on="1"/>
        <pt x="35" y="789" on="0"/>
        <pt x="102" y="1035" on="0"/>
        <pt x="227" y="1211" on="0"/>
        <pt x="405" y="1309" on="0"/>
        <pt x="516" y="1309" on="1"/>
        <pt x="612" y="1309" on="0"/>
        <pt x="784" y="1227" on="0"/>
        <pt x="913" y="1061" on="0"/>
        <pt x="989" y="809" on="0"/>
        <pt x="989" y="639" on="1"/>
        <pt x="989" y="482" on="0"/>
        <pt x="929" y="250" on="0"/>
        <pt x="828" y="90" on="0"/>
        <pt x="694" y="-4" on="0"/>
        <pt x="621" y="-23" on="1"/>
        <pt x="624" y="-58" on="0"/>
        <pt x="667" y="-102" on="0"/>
        <pt x="711" y="-100" on="1"/>
        <pt x="913" y="-92" on="1"/>
        <pt x="907" y="-299" on="1"/>
        <pt x="743" y="-299" on="1"/>
        <pt x="570" y="-299" on="0"/>
        <pt x="406" y="-170" on="0"/>
      </contour>
      <contour>
        <pt x="272" y="653" on="1"/>
        <pt x="272" y="536" on="0"/>
        <pt x="308" y="356" on="0"/>
        <pt x="373" y="234" on="0"/>
        <pt x="462" y="172" on="0"/>
        <pt x="516" y="172" on="1"/>
        <pt x="562" y="172" on="0"/>
        <pt x="647" y="218" on="0"/>
        <pt x="711" y="328" on="0"/>
        <pt x="750" y="509" on="0"/>
        <pt x="750" y="643" on="1"/>
        <pt x="750" y="771" on="0"/>
        <pt x="708" y="947" on="0"/>
        <pt x="642" y="1056" on="0"/>
        <pt x="559" y="1104" on="0"/>
        <pt x="518" y="1104" on="1"/>
        <pt x="469" y="1104" on="0"/>
        <pt x="380" y="1060" on="0"/>
        <pt x="312" y="956" on="0"/>
        <pt x="272" y="783" on="0"/>
      </contour>
    </TTGlyph>
    <TTGlyph name="R" xMin="96" yMin="0" xMax="1001" yMax="1276">
      <contour>
        <pt x="96" y="1276" on="1"/>
        <pt x="500" y="1276" on="1"/>
        <pt x="619" y="1276" on="0"/>
        <pt x="788" y="1221" on="0"/>
        <pt x="896" y="1121" on="0"/>
        <pt x="946" y="981" on="0"/>
        <pt x="946" y="895" on="1"/>
        <pt x="946" y="843" on="0"/>
        <pt x="911" y="737" on="0"/>
        <pt x="848" y="644" on="0"/>
        <pt x="757" y="573" on="0"/>
        <pt x="702" y="555" on="1"/>
        <pt x="1001" y="0" on="1"/>
        <pt x="743" y="0" on="1"/>
        <pt x="479" y="528" on="1"/>
        <pt x="330" y="528" on="1"/>
        <pt x="330" y="0" on="1"/>
        <pt x="96" y="0" on="1"/>
      </contour>
      <contour>
        <pt x="330" y="1073" on="1"/>
        <pt x="330" y="723" on="1"/>
        <pt x="514" y="723" on="1"/>
        <pt x="565" y="723" on="0"/>
        <pt x="640" y="748" on="0"/>
        <pt x="688" y="793" on="0"/>
        <pt x="711" y="857" on="0"/>
        <pt x="711" y="895" on="1"/>
        <pt x="711" y="985" on="0"/>
        <pt x="617" y="1073" on="0"/>
        <pt x="514" y="1073" on="1"/>
      </contour>
    </TTGlyph>
    <TTGlyph name="Racute" xMin="96" yMin="0" xMax="1001" yMax="1671">
      <component glyphName=".ttfautohint" x="96" y="0" flags="0x0"/>
      <component glyphName="R" x="0" y="0" flags="0x204"/>
      <component glyphName="acute.cap" x="-34" y="0" flags="0x4"/>
    </TTGlyph>
    <TTGlyph name="Rcaron" xMin="96" yMin="0" xMax="1001" yMax="1638">
      <component glyphName=".ttfautohint" x="96" y="0" flags="0x0"/>
      <component glyphName="R" x="0" y="0" flags="0x204"/>
      <component glyphName="caron.cap" x="39" y="0" flags="0x4"/>
    </TTGlyph>
    <TTGlyph name="S" xMin="57" yMin="-37" xMax="942" yMax="1309">
      <contour>
        <pt x="780" y="946" on="1"/>
        <pt x="765" y="947" on="0"/>
        <pt x="752" y="957" on="0"/>
        <pt x="745" y="973" on="0"/>
        <pt x="741" y="992" on="0"/>
        <pt x="735" y="1001" on="1"/>
        <pt x="701" y="1052" on="0"/>
        <pt x="579" y="1120" on="0"/>
        <pt x="496" y="1120" on="1"/>
        <pt x="460" y="1120" on="0"/>
        <pt x="401" y="1097" on="0"/>
        <pt x="360" y="1058" on="0"/>
        <pt x="338" y="1007" on="0"/>
        <pt x="338" y="979" on="1"/>
        <pt x="338" y="946" on="0"/>
        <pt x="361" y="887" on="0"/>
        <pt x="422" y="830" on="0"/>
        <pt x="527" y="772" on="0"/>
        <pt x="608" y="739" on="1"/>
        <pt x="705" y="700" on="0"/>
        <pt x="834" y="615" on="0"/>
        <pt x="911" y="520" on="0"/>
        <pt x="942" y="413" on="0"/>
        <pt x="942" y="352" on="1"/>
        <pt x="942" y="280" on="0"/>
        <pt x="893" y="140" on="0"/>
        <pt x="784" y="31" on="0"/>
        <pt x="612" y="-37" on="0"/>
        <pt x="489" y="-37" on="1"/>
        <pt x="359" y="-37" on="0"/>
        <pt x="145" y="62" on="0"/>
        <pt x="57" y="156" on="1"/>
        <pt x="174" y="360" on="1"/>
        <pt x="186" y="357" on="0"/>
        <pt x="199" y="345" on="0"/>
        <pt x="209" y="329" on="0"/>
        <pt x="219" y="309" on="0"/>
        <pt x="227" y="297" on="1"/>
        <pt x="248" y="271" on="0"/>
        <pt x="303" y="221" on="0"/>
        <pt x="373" y="183" on="0"/>
        <pt x="457" y="160" on="0"/>
        <pt x="508" y="160" on="1"/>
        <pt x="602" y="160" on="0"/>
        <pt x="709" y="247" on="0"/>
        <pt x="709" y="340" on="1"/>
        <pt x="709" y="369" on="0"/>
        <pt x="685" y="422" on="0"/>
        <pt x="628" y="473" on="0"/>
        <pt x="532" y="526" on="0"/>
        <pt x="459" y="555" on="1"/>
        <pt x="363" y="594" on="0"/>
        <pt x="227" y="680" on="0"/>
        <pt x="140" y="778" on="0"/>
        <pt x="100" y="888" on="0"/>
        <pt x="100" y="950" on="1"/>
        <pt x="100" y="1025" on="0"/>
        <pt x="162" y="1155" on="0"/>
        <pt x="273" y="1253" on="0"/>
        <pt x="426" y="1309" on="0"/>
        <pt x="518" y="1309" on="1"/>
        <pt x="634" y="1309" on="0"/>
        <pt x="838" y="1211" on="0"/>
        <pt x="909" y="1118" on="1"/>
      </contour>
    </TTGlyph>
    <TTGlyph name="Sacute" xMin="57" yMin="-37" xMax="942" yMax="1671">
      <component glyphName=".ttfautohint" x="57" y="0" flags="0x0"/>
      <component glyphName="S" x="0" y="0" flags="0x204"/>
      <component glyphName="acute.cap" x="-34" y="0" flags="0x4"/>
    </TTGlyph>
    <TTGlyph name="Scaron" xMin="57" yMin="-37" xMax="942" yMax="1640">
      <component glyphName=".ttfautohint" x="57" y="0" flags="0x0"/>
      <component glyphName="S" x="0" y="0" flags="0x204"/>
      <component glyphName="caron.cap" x="49" y="2" flags="0x4"/>
    </TTGlyph>
    <TTGlyph name="Scedilla" xMin="57" yMin="-389" xMax="942" yMax="1309">
      <contour>
        <pt x="780" y="946" on="1"/>
        <pt x="765" y="947" on="0"/>
        <pt x="752" y="957" on="0"/>
        <pt x="745" y="973" on="0"/>
        <pt x="741" y="992" on="0"/>
        <pt x="735" y="1001" on="1"/>
        <pt x="701" y="1052" on="0"/>
        <pt x="579" y="1120" on="0"/>
        <pt x="496" y="1120" on="1"/>
        <pt x="460" y="1120" on="0"/>
        <pt x="401" y="1097" on="0"/>
        <pt x="360" y="1058" on="0"/>
        <pt x="338" y="1007" on="0"/>
        <pt x="338" y="979" on="1"/>
        <pt x="338" y="946" on="0"/>
        <pt x="361" y="887" on="0"/>
        <pt x="422" y="830" on="0"/>
        <pt x="527" y="772" on="0"/>
        <pt x="608" y="739" on="1"/>
        <pt x="705" y="700" on="0"/>
        <pt x="834" y="615" on="0"/>
        <pt x="911" y="520" on="0"/>
        <pt x="942" y="413" on="0"/>
        <pt x="942" y="352" on="1"/>
        <pt x="942" y="288" on="0"/>
        <pt x="904" y="164" on="0"/>
        <pt x="821" y="61" on="0"/>
        <pt x="690" y="-14" on="0"/>
        <pt x="598" y="-29" on="1"/>
        <pt x="594" y="-63" on="1"/>
        <pt x="671" y="-71" on="0"/>
        <pt x="754" y="-149" on="0"/>
        <pt x="754" y="-209" on="1"/>
        <pt x="754" y="-241" on="0"/>
        <pt x="722" y="-306" on="0"/>
        <pt x="657" y="-357" on="0"/>
        <pt x="559" y="-389" on="0"/>
        <pt x="492" y="-389" on="1"/>
        <pt x="427" y="-389" on="0"/>
        <pt x="295" y="-346" on="0"/>
        <pt x="233" y="-295" on="1"/>
        <pt x="309" y="-166" on="1"/>
        <pt x="339" y="-191" on="0"/>
        <pt x="391" y="-224" on="0"/>
        <pt x="441" y="-243" on="0"/>
        <pt x="490" y="-250" on="0"/>
        <pt x="516" y="-250" on="1"/>
        <pt x="545" y="-250" on="0"/>
        <pt x="567" y="-226" on="0"/>
        <pt x="567" y="-215" on="1"/>
        <pt x="567" y="-204" on="0"/>
        <pt x="540" y="-182" on="0"/>
        <pt x="514" y="-182" on="1"/>
        <pt x="414" y="-182" on="1"/>
        <pt x="432" y="-35" on="1"/>
        <pt x="210" y="-12" on="0"/>
        <pt x="57" y="156" on="1"/>
        <pt x="174" y="360" on="1"/>
        <pt x="186" y="357" on="0"/>
        <pt x="199" y="345" on="0"/>
        <pt x="209" y="329" on="0"/>
        <pt x="219" y="309" on="0"/>
        <pt x="227" y="297" on="1"/>
        <pt x="248" y="271" on="0"/>
        <pt x="303" y="221" on="0"/>
        <pt x="373" y="183" on="0"/>
        <pt x="457" y="160" on="0"/>
        <pt x="508" y="160" on="1"/>
        <pt x="602" y="160" on="0"/>
        <pt x="709" y="247" on="0"/>
        <pt x="709" y="340" on="1"/>
        <pt x="709" y="369" on="0"/>
        <pt x="685" y="422" on="0"/>
        <pt x="628" y="473" on="0"/>
        <pt x="532" y="526" on="0"/>
        <pt x="459" y="555" on="1"/>
        <pt x="363" y="594" on="0"/>
        <pt x="227" y="680" on="0"/>
        <pt x="140" y="778" on="0"/>
        <pt x="100" y="888" on="0"/>
        <pt x="100" y="950" on="1"/>
        <pt x="100" y="1025" on="0"/>
        <pt x="162" y="1155" on="0"/>
        <pt x="273" y="1253" on="0"/>
        <pt x="426" y="1309" on="0"/>
        <pt x="518" y="1309" on="1"/>
        <pt x="634" y="1309" on="0"/>
        <pt x="838" y="1211" on="0"/>
        <pt x="909" y="1118" on="1"/>
      </contour>
    </TTGlyph>
    <TTGlyph name="T" xMin="41" yMin="0" xMax="981" yMax="1276">
      <contour>
        <pt x="41" y="1276" on="1"/>
        <pt x="981" y="1276" on="1"/>
        <pt x="981" y="1077" on="1"/>
        <pt x="621" y="1077" on="1"/>
        <pt x="621" y="0" on="1"/>
        <pt x="387" y="0" on="1"/>
        <pt x="387" y="1077" on="1"/>
        <pt x="41" y="1077" on="1"/>
      </contour>
    </TTGlyph>
    <TTGlyph name="Tcaron" xMin="41" yMin="0" xMax="981" yMax="1638">
      <component glyphName=".ttfautohint" x="41" y="0" flags="0x0"/>
      <component glyphName="T" x="0" y="0" flags="0x204"/>
      <component glyphName="caron.cap" x="39" y="0" flags="0x4"/>
    </TTGlyph>
    <TTGlyph name="Tcedilla" xMin="41" yMin="-389" xMax="981" yMax="1276">
      <contour>
        <pt x="41" y="1276" on="1"/>
        <pt x="981" y="1276" on="1"/>
        <pt x="981" y="1077" on="1"/>
        <pt x="621" y="1077" on="1"/>
        <pt x="621" y="0" on="1"/>
        <pt x="582" y="0" on="1"/>
        <pt x="573" y="-63" on="1"/>
        <pt x="651" y="-71" on="0"/>
        <pt x="733" y="-149" on="0"/>
        <pt x="733" y="-209" on="1"/>
        <pt x="733" y="-241" on="0"/>
        <pt x="701" y="-306" on="0"/>
        <pt x="636" y="-357" on="0"/>
        <pt x="538" y="-389" on="0"/>
        <pt x="471" y="-389" on="1"/>
        <pt x="406" y="-389" on="0"/>
        <pt x="275" y="-346" on="0"/>
        <pt x="213" y="-295" on="1"/>
        <pt x="289" y="-166" on="1"/>
        <pt x="319" y="-191" on="0"/>
        <pt x="371" y="-224" on="0"/>
        <pt x="421" y="-243" on="0"/>
        <pt x="470" y="-250" on="0"/>
        <pt x="496" y="-250" on="1"/>
        <pt x="525" y="-250" on="0"/>
        <pt x="547" y="-226" on="0"/>
        <pt x="547" y="-215" on="1"/>
        <pt x="547" y="-204" on="0"/>
        <pt x="520" y="-182" on="0"/>
        <pt x="494" y="-182" on="1"/>
        <pt x="393" y="-182" on="1"/>
        <pt x="418" y="0" on="1"/>
        <pt x="387" y="0" on="1"/>
        <pt x="387" y="1077" on="1"/>
        <pt x="41" y="1077" on="1"/>
      </contour>
    </TTGlyph>
    <TTGlyph name="Thorn" xMin="102" yMin="0" xMax="965" yMax="1276">
      <contour>
        <pt x="102" y="1276" on="1"/>
        <pt x="352" y="1276" on="1"/>
        <pt x="356" y="1272" on="0"/>
        <pt x="356" y="1266" on="1"/>
        <pt x="356" y="1262" on="0"/>
        <pt x="351" y="1253" on="0"/>
        <pt x="345" y="1239" on="0"/>
        <pt x="339" y="1219" on="0"/>
        <pt x="338" y="1204" on="1"/>
        <pt x="338" y="1057" on="1"/>
        <pt x="535" y="1057" on="1"/>
        <pt x="649" y="1057" on="0"/>
        <pt x="811" y="996" on="0"/>
        <pt x="916" y="891" on="0"/>
        <pt x="965" y="752" on="0"/>
        <pt x="965" y="674" on="1"/>
        <pt x="965" y="596" on="0"/>
        <pt x="917" y="459" on="0"/>
        <pt x="815" y="357" on="0"/>
        <pt x="656" y="297" on="0"/>
        <pt x="545" y="297" on="1"/>
        <pt x="336" y="297" on="1"/>
        <pt x="336" y="0" on="1"/>
        <pt x="102" y="0" on="1"/>
      </contour>
      <contour>
        <pt x="336" y="492" on="1"/>
        <pt x="528" y="492" on="1"/>
        <pt x="581" y="492" on="0"/>
        <pt x="657" y="519" on="0"/>
        <pt x="706" y="566" on="0"/>
        <pt x="729" y="630" on="0"/>
        <pt x="729" y="668" on="1"/>
        <pt x="729" y="704" on="0"/>
        <pt x="705" y="771" on="0"/>
        <pt x="656" y="823" on="0"/>
        <pt x="581" y="854" on="0"/>
        <pt x="530" y="854" on="1"/>
        <pt x="338" y="854" on="1"/>
      </contour>
    </TTGlyph>
    <TTGlyph name="U" xMin="76" yMin="-29" xMax="948" yMax="1276">
      <contour>
        <pt x="76" y="1276" on="1"/>
        <pt x="319" y="1276" on="1"/>
        <pt x="323" y="1273" on="0"/>
        <pt x="324" y="1269" on="0"/>
        <pt x="324" y="1266" on="1"/>
        <pt x="324" y="1262" on="0"/>
        <pt x="319" y="1253" on="0"/>
        <pt x="313" y="1239" on="0"/>
        <pt x="306" y="1219" on="0"/>
        <pt x="305" y="1204" on="1"/>
        <pt x="305" y="449" on="1"/>
        <pt x="305" y="383" on="0"/>
        <pt x="325" y="276" on="0"/>
        <pt x="373" y="202" on="0"/>
        <pt x="453" y="162" on="0"/>
        <pt x="512" y="162" on="1"/>
        <pt x="573" y="162" on="0"/>
        <pt x="654" y="203" on="0"/>
        <pt x="703" y="279" on="0"/>
        <pt x="723" y="387" on="0"/>
        <pt x="723" y="455" on="1"/>
        <pt x="723" y="1276" on="1"/>
        <pt x="948" y="1276" on="1"/>
        <pt x="948" y="457" on="1"/>
        <pt x="948" y="332" on="0"/>
        <pt x="886" y="149" on="0"/>
        <pt x="772" y="29" on="0"/>
        <pt x="610" y="-29" on="0"/>
        <pt x="510" y="-29" on="1"/>
        <pt x="403" y="-29" on="0"/>
        <pt x="241" y="37" on="0"/>
        <pt x="131" y="161" on="0"/>
        <pt x="76" y="339" on="0"/>
        <pt x="76" y="451" on="1"/>
      </contour>
    </TTGlyph>
    <TTGlyph name="Uacute" xMin="76" yMin="-29" xMax="948" yMax="1671">
      <component glyphName=".ttfautohint" x="76" y="0" flags="0x0"/>
      <component glyphName="U" x="0" y="0" flags="0x204"/>
      <component glyphName="acute.cap" x="0" y="0" flags="0x4"/>
    </TTGlyph>
    <TTGlyph name="Ucircumflex" xMin="76" yMin="-29" xMax="948" yMax="1638">
      <component glyphName=".ttfautohint" x="76" y="0" flags="0x0"/>
      <component glyphName="U" x="0" y="0" flags="0x204"/>
      <component glyphName="circumflex.cap" x="0" y="0" flags="0x4"/>
    </TTGlyph>
    <TTGlyph name="Udieresis" xMin="76" yMin="-29" xMax="948" yMax="1663">
      <component glyphName=".ttfautohint" x="76" y="0" flags="0x0"/>
      <component glyphName="U" x="0" y="0" flags="0x204"/>
      <component glyphName="dieresis.cap" x="29" y="0" flags="0x4"/>
    </TTGlyph>
    <TTGlyph name="Ugrave" xMin="76" yMin="-29" xMax="948" yMax="1671">
      <component glyphName=".ttfautohint" x="76" y="0" flags="0x0"/>
      <component glyphName="U" x="0" y="0" flags="0x204"/>
      <component glyphName="grave.cap" x="-50" y="0" flags="0x4"/>
    </TTGlyph>
    <TTGlyph name="Uhungarumlaut" xMin="76" yMin="-29" xMax="956" yMax="1686">
      <component glyphName=".ttfautohint" x="76" y="0" flags="0x0"/>
      <component glyphName="U" x="0" y="0" flags="0x204"/>
      <component glyphName="hungarumlaut.cap" x="0" y="0" flags="0x4"/>
    </TTGlyph>
    <TTGlyph name="Uring" xMin="76" yMin="-29" xMax="948" yMax="1669">
      <component glyphName=".ttfautohint" x="76" y="0" flags="0x0"/>
      <component glyphName="U" x="0" y="0" flags="0x204"/>
      <component glyphName="ring.cap" x="0" y="0" flags="0x4"/>
    </TTGlyph>
    <TTGlyph name="V" xMin="20" yMin="0" xMax="1020" yMax="1276">
      <contour>
        <pt x="20" y="1276" on="1"/>
        <pt x="262" y="1276" on="1"/>
        <pt x="530" y="371" on="1"/>
        <pt x="784" y="1276" on="1"/>
        <pt x="1020" y="1276" on="1"/>
        <pt x="610" y="0" on="1"/>
        <pt x="434" y="0" on="1"/>
      </contour>
    </TTGlyph>
    <TTGlyph name="W" xMin="12" yMin="0" xMax="1022" yMax="1276">
      <contour>
        <pt x="12" y="1276" on="1"/>
        <pt x="236" y="1276" on="1"/>
        <pt x="309" y="434" on="1"/>
        <pt x="459" y="1171" on="1"/>
        <pt x="606" y="1171" on="1"/>
        <pt x="756" y="440" on="1"/>
        <pt x="809" y="1276" on="1"/>
        <pt x="1022" y="1276" on="1"/>
        <pt x="870" y="0" on="1"/>
        <pt x="690" y="0" on="1"/>
        <pt x="522" y="776" on="1"/>
        <pt x="352" y="0" on="1"/>
        <pt x="168" y="0" on="1"/>
      </contour>
    </TTGlyph>
    <TTGlyph name="X" xMin="43" yMin="0" xMax="1012" yMax="1276">
      <contour>
        <pt x="733" y="1276" on="1"/>
        <pt x="971" y="1276" on="1"/>
        <pt x="653" y="653" on="1"/>
        <pt x="1012" y="0" on="1"/>
        <pt x="754" y="0" on="1"/>
        <pt x="520" y="438" on="1"/>
        <pt x="293" y="0" on="1"/>
        <pt x="43" y="0" on="1"/>
        <pt x="387" y="651" on="1"/>
        <pt x="47" y="1276" on="1"/>
        <pt x="297" y="1276" on="1"/>
        <pt x="518" y="858" on="1"/>
      </contour>
    </TTGlyph>
    <TTGlyph name="Y" xMin="18" yMin="0" xMax="1018" yMax="1276">
      <contour>
        <pt x="18" y="1276" on="1"/>
        <pt x="274" y="1276" on="1"/>
        <pt x="537" y="760" on="1"/>
        <pt x="770" y="1276" on="1"/>
        <pt x="1018" y="1276" on="1"/>
        <pt x="653" y="502" on="1"/>
        <pt x="653" y="0" on="1"/>
        <pt x="412" y="0" on="1"/>
        <pt x="412" y="504" on="1"/>
      </contour>
    </TTGlyph>
    <TTGlyph name="Yacute" xMin="18" yMin="0" xMax="1018" yMax="1671">
      <component glyphName=".ttfautohint" x="18" y="0" flags="0x0"/>
      <component glyphName="Y" x="0" y="0" flags="0x204"/>
      <component glyphName="acute.cap" x="0" y="0" flags="0x4"/>
    </TTGlyph>
    <TTGlyph name="Ydieresis" xMin="18" yMin="0" xMax="1018" yMax="1663">
      <component glyphName=".ttfautohint" x="18" y="0" flags="0x0"/>
      <component glyphName="Y" x="0" y="0" flags="0x204"/>
      <component glyphName="dieresis.cap" x="14" y="0" flags="0x4"/>
    </TTGlyph>
    <TTGlyph name="Z" xMin="84" yMin="0" xMax="975" yMax="1276">
      <contour>
        <pt x="106" y="1276" on="1"/>
        <pt x="944" y="1276" on="1"/>
        <pt x="944" y="1137" on="1"/>
        <pt x="377" y="197" on="1"/>
        <pt x="868" y="197" on="1"/>
        <pt x="890" y="200" on="0"/>
        <pt x="917" y="210" on="0"/>
        <pt x="938" y="220" on="0"/>
        <pt x="959" y="227" on="0"/>
        <pt x="975" y="227" on="1"/>
        <pt x="975" y="0" on="1"/>
        <pt x="84" y="0" on="1"/>
        <pt x="84" y="139" on="1"/>
        <pt x="662" y="1077" on="1"/>
        <pt x="106" y="1077" on="1"/>
      </contour>
    </TTGlyph>
    <TTGlyph name="Zacute" xMin="84" yMin="0" xMax="975" yMax="1671">
      <component glyphName=".ttfautohint" x="84" y="0" flags="0x0"/>
      <component glyphName="Z" x="0" y="0" flags="0x204"/>
      <component glyphName="acute.cap" x="-34" y="0" flags="0x4"/>
    </TTGlyph>
    <TTGlyph name="Zcaron" xMin="84" yMin="0" xMax="975" yMax="1638">
      <component glyphName=".ttfautohint" x="84" y="0" flags="0x0"/>
      <component glyphName="Z" x="0" y="0" flags="0x204"/>
      <component glyphName="caron.cap" x="37" y="0" flags="0x4"/>
    </TTGlyph>
    <TTGlyph name="Zdotaccent" xMin="84" yMin="0" xMax="975" yMax="1654">
      <component glyphName=".ttfautohint" x="84" y="0" flags="0x0"/>
      <component glyphName="Z" x="0" y="0" flags="0x204"/>
      <component glyphName="dotaccent.cap" x="31" y="-13" flags="0x4"/>
    </TTGlyph>
    <TTGlyph name="a" xMin="82" yMin="-25" xMax="905" yMax="977">
      <contour>
        <pt x="154" y="821" on="1"/>
        <pt x="302" y="977" on="0"/>
        <pt x="516" y="977" on="1"/>
        <pt x="607" y="977" on="0"/>
        <pt x="751" y="931" on="0"/>
        <pt x="851" y="834" on="0"/>
        <pt x="905" y="685" on="0"/>
        <pt x="905" y="582" on="1"/>
        <pt x="905" y="0" on="1"/>
        <pt x="686" y="0" on="1"/>
        <pt x="686" y="86" on="1"/>
        <pt x="632" y="35" on="0"/>
        <pt x="483" y="-25" on="0"/>
        <pt x="408" y="-25" on="1"/>
        <pt x="324" y="-25" on="0"/>
        <pt x="201" y="20" on="0"/>
        <pt x="121" y="96" on="0"/>
        <pt x="82" y="198" on="0"/>
        <pt x="82" y="254" on="1"/>
        <pt x="82" y="328" on="0"/>
        <pt x="145" y="451" on="0"/>
        <pt x="267" y="540" on="0"/>
        <pt x="446" y="590" on="0"/>
        <pt x="563" y="590" on="1"/>
        <pt x="684" y="590" on="1"/>
        <pt x="682" y="699" on="0"/>
        <pt x="598" y="797" on="0"/>
        <pt x="508" y="797" on="1"/>
        <pt x="391" y="797" on="0"/>
        <pt x="270" y="670" on="1"/>
      </contour>
      <contour>
        <pt x="606" y="418" on="1"/>
        <pt x="516" y="420" on="0"/>
        <pt x="400" y="395" on="0"/>
        <pt x="334" y="351" on="0"/>
        <pt x="309" y="294" on="0"/>
        <pt x="309" y="266" on="1"/>
        <pt x="309" y="242" on="0"/>
        <pt x="331" y="200" on="0"/>
        <pt x="369" y="169" on="0"/>
        <pt x="420" y="150" on="0"/>
        <pt x="449" y="150" on="1"/>
        <pt x="496" y="150" on="0"/>
        <pt x="571" y="183" on="0"/>
        <pt x="627" y="229" on="0"/>
        <pt x="665" y="279" on="0"/>
        <pt x="674" y="297" on="1"/>
        <pt x="682" y="312" on="0"/>
        <pt x="690" y="371" on="0"/>
        <pt x="690" y="416" on="1"/>
      </contour>
    </TTGlyph>
    <TTGlyph name="aacute" xMin="82" yMin="-25" xMax="905" yMax="1462">
      <component glyphName=".ttfautohint" x="82" y="0" flags="0x0"/>
      <component glyphName="a" x="0" y="0" flags="0x204"/>
      <component glyphName="acute" x="0" y="0" flags="0x4"/>
    </TTGlyph>
    <TTGlyph name="abreve" xMin="82" yMin="-25" xMax="905" yMax="1382">
      <component glyphName=".ttfautohint" x="82" y="0" flags="0x0"/>
      <component glyphName="a" x="0" y="0" flags="0x204"/>
      <component glyphName="breve" x="18" y="0" flags="0x4"/>
    </TTGlyph>
    <TTGlyph name="acircumflex" xMin="82" yMin="-25" xMax="905" yMax="1427">
      <component glyphName=".ttfautohint" x="82" y="0" flags="0x0"/>
      <component glyphName="a" x="0" y="0" flags="0x204"/>
      <component glyphName="circumflex" x="14" y="0" flags="0x4"/>
    </TTGlyph>
    <TTGlyph name="acute" xMin="408" yMin="1059" xMax="737" yMax="1462">
      <contour>
        <pt x="571" y="1462" on="1"/>
        <pt x="737" y="1348" on="1"/>
        <pt x="522" y="1059" on="1"/>
        <pt x="408" y="1126" on="1"/>
      </contour>
    </TTGlyph>
    <TTGlyph name="acute.cap" xMin="340" yMin="1339" xMax="764" yMax="1671">
      <contour>
        <pt x="764" y="1468" on="1"/>
        <pt x="395" y="1339" on="1"/>
        <pt x="340" y="1440" on="1"/>
        <pt x="653" y="1671" on="1"/>
      </contour>
    </TTGlyph>
    <TTGlyph name="adieresis" xMin="82" yMin="-25" xMax="905" yMax="1386">
      <component glyphName=".ttfautohint" x="82" y="0" flags="0x0"/>
      <component glyphName="a" x="0" y="0" flags="0x204"/>
      <component glyphName="dieresis" x="25" y="0" flags="0x4"/>
    </TTGlyph>
    <TTGlyph name="ae" xMin="4" yMin="-25" xMax="1024" yMax="975">
      <contour>
        <pt x="35" y="842" on="1"/>
        <pt x="87" y="910" on="0"/>
        <pt x="228" y="975" on="0"/>
        <pt x="309" y="975" on="1"/>
        <pt x="340" y="975" on="0"/>
        <pt x="404" y="956" on="0"/>
        <pt x="463" y="924" on="0"/>
        <pt x="513" y="881" on="0"/>
        <pt x="530" y="858" on="1"/>
        <pt x="546" y="882" on="0"/>
        <pt x="589" y="925" on="0"/>
        <pt x="639" y="956" on="0"/>
        <pt x="694" y="975" on="0"/>
        <pt x="723" y="975" on="1"/>
        <pt x="798" y="975" on="0"/>
        <pt x="908" y="915" on="0"/>
        <pt x="978" y="805" on="0"/>
        <pt x="1012" y="650" on="0"/>
        <pt x="1012" y="555" on="1"/>
        <pt x="1012" y="455" on="1"/>
        <pt x="606" y="438" on="1"/>
        <pt x="606" y="365" on="1"/>
        <pt x="606" y="315" on="0"/>
        <pt x="628" y="234" on="0"/>
        <pt x="670" y="175" on="0"/>
        <pt x="730" y="143" on="0"/>
        <pt x="768" y="143" on="1"/>
        <pt x="849" y="143" on="0"/>
        <pt x="911" y="248" on="1"/>
        <pt x="1024" y="109" on="1"/>
        <pt x="970" y="44" on="0"/>
        <pt x="835" y="-25" on="0"/>
        <pt x="758" y="-25" on="1"/>
        <pt x="687" y="-25" on="0"/>
        <pt x="566" y="42" on="0"/>
        <pt x="524" y="100" on="1"/>
        <pt x="506" y="72" on="0"/>
        <pt x="456" y="26" on="0"/>
        <pt x="397" y="-7" on="0"/>
        <pt x="332" y="-25" on="0"/>
        <pt x="299" y="-25" on="1"/>
        <pt x="231" y="-25" on="0"/>
        <pt x="122" y="23" on="0"/>
        <pt x="46" y="104" on="0"/>
        <pt x="4" y="208" on="0"/>
        <pt x="4" y="264" on="1"/>
        <pt x="4" y="337" on="0"/>
        <pt x="62" y="459" on="0"/>
        <pt x="170" y="547" on="0"/>
        <pt x="323" y="599" on="0"/>
        <pt x="418" y="602" on="1"/>
        <pt x="418" y="701" on="0"/>
        <pt x="355" y="811" on="0"/>
        <pt x="299" y="811" on="1"/>
        <pt x="261" y="811" on="0"/>
        <pt x="185" y="760" on="0"/>
        <pt x="147" y="698" on="1"/>
      </contour>
      <contour>
        <pt x="424" y="430" on="1"/>
        <pt x="362" y="427" on="0"/>
        <pt x="278" y="399" on="0"/>
        <pt x="226" y="355" on="0"/>
        <pt x="203" y="297" on="0"/>
        <pt x="203" y="264" on="1"/>
        <pt x="203" y="243" on="0"/>
        <pt x="219" y="202" on="0"/>
        <pt x="247" y="170" on="0"/>
        <pt x="283" y="150" on="0"/>
        <pt x="303" y="150" on="1"/>
        <pt x="369" y="150" on="0"/>
        <pt x="424" y="241" on="0"/>
        <pt x="424" y="332" on="1"/>
      </contour>
      <contour>
        <pt x="827" y="614" on="1"/>
        <pt x="827" y="625" on="1"/>
        <pt x="827" y="665" on="0"/>
        <pt x="814" y="734" on="0"/>
        <pt x="787" y="783" on="0"/>
        <pt x="748" y="811" on="0"/>
        <pt x="723" y="811" on="1"/>
        <pt x="694" y="811" on="0"/>
        <pt x="651" y="778" on="0"/>
        <pt x="621" y="723" on="0"/>
        <pt x="606" y="649" on="0"/>
        <pt x="606" y="608" on="1"/>
      </contour>
    </TTGlyph>
    <TTGlyph name="afii57929" xMin="344" yMin="897" xMax="668" yMax="1401">
      <contour>
        <pt x="668" y="1239" on="1"/>
        <pt x="668" y="1102" on="0"/>
        <pt x="463" y="897" on="1"/>
        <pt x="344" y="999" on="1"/>
        <pt x="369" y="1023" on="0"/>
        <pt x="412" y="1071" on="0"/>
        <pt x="442" y="1113" on="0"/>
        <pt x="459" y="1148" on="0"/>
        <pt x="459" y="1159" on="1"/>
        <pt x="459" y="1162" on="0"/>
        <pt x="446" y="1176" on="0"/>
        <pt x="438" y="1184" on="1"/>
        <pt x="417" y="1202" on="0"/>
        <pt x="381" y="1244" on="0"/>
        <pt x="381" y="1276" on="1"/>
        <pt x="381" y="1303" on="0"/>
        <pt x="401" y="1349" on="0"/>
        <pt x="438" y="1382" on="0"/>
        <pt x="488" y="1401" on="0"/>
        <pt x="518" y="1401" on="1"/>
        <pt x="547" y="1401" on="0"/>
        <pt x="601" y="1377" on="0"/>
        <pt x="643" y="1335" on="0"/>
        <pt x="668" y="1275" on="0"/>
      </contour>
    </TTGlyph>
    <TTGlyph name="agrave" xMin="82" yMin="-25" xMax="905" yMax="1462">
      <component glyphName=".ttfautohint" x="82" y="0" flags="0x0"/>
      <component glyphName="a" x="0" y="0" flags="0x204"/>
      <component glyphName="uni02CB" x="0" y="0" flags="0x4"/>
    </TTGlyph>
    <TTGlyph name="ampersand" xMin="61" yMin="-43" xMax="1006" yMax="1296">
      <contour>
        <pt x="797" y="532" on="1"/>
        <pt x="798" y="544" on="0"/>
        <pt x="798" y="570" on="0"/>
        <pt x="801" y="594" on="0"/>
        <pt x="810" y="616" on="0"/>
        <pt x="821" y="625" on="1"/>
        <pt x="1006" y="496" on="1"/>
        <pt x="967" y="430" on="0"/>
        <pt x="892" y="311" on="0"/>
        <pt x="860" y="264" on="1"/>
        <pt x="875" y="243" on="0"/>
        <pt x="911" y="197" on="0"/>
        <pt x="947" y="150" on="0"/>
        <pt x="982" y="104" on="0"/>
        <pt x="997" y="84" on="1"/>
        <pt x="825" y="-43" on="1"/>
        <pt x="725" y="115" on="1"/>
        <pt x="694" y="84" on="0"/>
        <pt x="620" y="30" on="0"/>
        <pt x="538" y="-10" on="0"/>
        <pt x="450" y="-33" on="0"/>
        <pt x="406" y="-33" on="1"/>
        <pt x="321" y="-33" on="0"/>
        <pt x="192" y="19" on="0"/>
        <pt x="105" y="109" on="0"/>
        <pt x="61" y="233" on="0"/>
        <pt x="61" y="305" on="1"/>
        <pt x="61" y="364" on="0"/>
        <pt x="100" y="482" on="0"/>
        <pt x="168" y="587" on="0"/>
        <pt x="261" y="676" on="0"/>
        <pt x="315" y="707" on="1"/>
        <pt x="244" y="785" on="0"/>
        <pt x="172" y="942" on="0"/>
        <pt x="172" y="1010" on="1"/>
        <pt x="172" y="1070" on="0"/>
        <pt x="220" y="1175" on="0"/>
        <pt x="302" y="1252" on="0"/>
        <pt x="413" y="1296" on="0"/>
        <pt x="475" y="1296" on="1"/>
        <pt x="542" y="1296" on="0"/>
        <pt x="651" y="1247" on="0"/>
        <pt x="729" y="1167" on="0"/>
        <pt x="772" y="1064" on="0"/>
        <pt x="772" y="1010" on="1"/>
        <pt x="772" y="962" on="0"/>
        <pt x="743" y="864" on="0"/>
        <pt x="690" y="773" on="0"/>
        <pt x="615" y="697" on="0"/>
        <pt x="569" y="672" on="1"/>
        <pt x="743" y="422" on="1"/>
        <pt x="762" y="447" on="0"/>
        <pt x="789" y="505" on="0"/>
      </contour>
      <contour>
        <pt x="381" y="1008" on="1"/>
        <pt x="381" y="969" on="0"/>
        <pt x="423" y="871" on="0"/>
        <pt x="471" y="809" on="1"/>
        <pt x="496" y="824" on="0"/>
        <pt x="533" y="868" on="0"/>
        <pt x="557" y="919" on="0"/>
        <pt x="569" y="973" on="0"/>
        <pt x="569" y="999" on="1"/>
        <pt x="569" y="1025" on="0"/>
        <pt x="557" y="1071" on="0"/>
        <pt x="533" y="1106" on="0"/>
        <pt x="499" y="1126" on="0"/>
        <pt x="477" y="1126" on="1"/>
        <pt x="429" y="1126" on="0"/>
        <pt x="381" y="1059" on="0"/>
      </contour>
      <contour>
        <pt x="406" y="563" on="1"/>
        <pt x="373" y="542" on="0"/>
        <pt x="326" y="487" on="0"/>
        <pt x="298" y="424" on="0"/>
        <pt x="285" y="359" on="0"/>
        <pt x="285" y="328" on="1"/>
        <pt x="285" y="294" on="0"/>
        <pt x="307" y="229" on="0"/>
        <pt x="347" y="178" on="0"/>
        <pt x="402" y="147" on="0"/>
        <pt x="434" y="147" on="1"/>
        <pt x="491" y="147" on="0"/>
        <pt x="582" y="215" on="0"/>
        <pt x="614" y="264" on="1"/>
      </contour>
    </TTGlyph>
    <TTGlyph name="aogonek" xMin="82" yMin="-373" xMax="905" yMax="977">
      <contour>
        <pt x="154" y="821" on="1"/>
        <pt x="302" y="977" on="0"/>
        <pt x="516" y="977" on="1"/>
        <pt x="607" y="977" on="0"/>
        <pt x="751" y="931" on="0"/>
        <pt x="851" y="834" on="0"/>
        <pt x="905" y="685" on="0"/>
        <pt x="905" y="582" on="1"/>
        <pt x="905" y="0" on="1"/>
        <pt x="857" y="-45" on="0"/>
        <pt x="795" y="-102" on="0"/>
        <pt x="759" y="-140" on="0"/>
        <pt x="745" y="-164" on="0"/>
        <pt x="745" y="-176" on="1"/>
        <pt x="745" y="-190" on="0"/>
        <pt x="761" y="-209" on="0"/>
        <pt x="776" y="-209" on="1"/>
        <pt x="788" y="-209" on="0"/>
        <pt x="810" y="-203" on="0"/>
        <pt x="839" y="-185" on="0"/>
        <pt x="877" y="-154" on="0"/>
        <pt x="905" y="-129" on="1"/>
        <pt x="905" y="-307" on="1"/>
        <pt x="863" y="-339" on="0"/>
        <pt x="779" y="-373" on="0"/>
        <pt x="731" y="-373" on="1"/>
        <pt x="634" y="-373" on="0"/>
        <pt x="543" y="-289" on="0"/>
        <pt x="543" y="-223" on="1"/>
        <pt x="543" y="-199" on="0"/>
        <pt x="555" y="-152" on="0"/>
        <pt x="587" y="-100" on="0"/>
        <pt x="643" y="-39" on="0"/>
        <pt x="686" y="0" on="1"/>
        <pt x="686" y="86" on="1"/>
        <pt x="632" y="35" on="0"/>
        <pt x="483" y="-25" on="0"/>
        <pt x="408" y="-25" on="1"/>
        <pt x="324" y="-25" on="0"/>
        <pt x="201" y="20" on="0"/>
        <pt x="121" y="96" on="0"/>
        <pt x="82" y="198" on="0"/>
        <pt x="82" y="254" on="1"/>
        <pt x="82" y="328" on="0"/>
        <pt x="145" y="451" on="0"/>
        <pt x="267" y="540" on="0"/>
        <pt x="446" y="590" on="0"/>
        <pt x="563" y="590" on="1"/>
        <pt x="684" y="590" on="1"/>
        <pt x="682" y="699" on="0"/>
        <pt x="598" y="797" on="0"/>
        <pt x="508" y="797" on="1"/>
        <pt x="391" y="797" on="0"/>
        <pt x="270" y="670" on="1"/>
      </contour>
      <contour>
        <pt x="690" y="416" on="1"/>
        <pt x="669" y="418" on="0"/>
        <pt x="628" y="418" on="0"/>
        <pt x="606" y="418" on="1"/>
        <pt x="516" y="418" on="0"/>
        <pt x="400" y="392" on="0"/>
        <pt x="334" y="349" on="0"/>
        <pt x="309" y="294" on="0"/>
        <pt x="309" y="266" on="1"/>
        <pt x="309" y="242" on="0"/>
        <pt x="331" y="200" on="0"/>
        <pt x="369" y="169" on="0"/>
        <pt x="420" y="150" on="0"/>
        <pt x="449" y="150" on="1"/>
        <pt x="496" y="150" on="0"/>
        <pt x="572" y="182" on="0"/>
        <pt x="629" y="228" on="0"/>
        <pt x="666" y="279" on="0"/>
        <pt x="674" y="297" on="1"/>
        <pt x="683" y="311" on="0"/>
        <pt x="690" y="371" on="0"/>
      </contour>
    </TTGlyph>
    <TTGlyph name="aring" xMin="82" yMin="-25" xMax="905" yMax="1456">
      <component glyphName=".ttfautohint" x="82" y="0" flags="0x0"/>
      <component glyphName="a" x="0" y="0" flags="0x204"/>
      <component glyphName="ring" x="0" y="0" flags="0x4"/>
    </TTGlyph>
    <TTGlyph name="asciicircum" xMin="158" yMin="680" xMax="856" yMax="1280">
      <contour>
        <pt x="158" y="760" on="1"/>
        <pt x="489" y="1280" on="1"/>
        <pt x="563" y="1280" on="1"/>
        <pt x="856" y="760" on="1"/>
        <pt x="688" y="680" on="1"/>
        <pt x="518" y="1034" on="1"/>
        <pt x="326" y="680" on="1"/>
      </contour>
    </TTGlyph>
    <TTGlyph name="asciitilde" xMin="55" yMin="649" xMax="989" yMax="999">
      <contour>
        <pt x="55" y="776" on="1"/>
        <pt x="86" y="826" on="0"/>
        <pt x="165" y="908" on="0"/>
        <pt x="249" y="967" on="0"/>
        <pt x="333" y="999" on="0"/>
        <pt x="369" y="999" on="1"/>
        <pt x="400" y="999" on="0"/>
        <pt x="451" y="986" on="0"/>
        <pt x="498" y="962" on="0"/>
        <pt x="544" y="928" on="0"/>
        <pt x="571" y="907" on="1"/>
        <pt x="599" y="886" on="0"/>
        <pt x="651" y="852" on="0"/>
        <pt x="674" y="852" on="1"/>
        <pt x="695" y="852" on="0"/>
        <pt x="730" y="868" on="0"/>
        <pt x="767" y="902" on="0"/>
        <pt x="809" y="955" on="0"/>
        <pt x="836" y="993" on="1"/>
        <pt x="989" y="870" on="1"/>
        <pt x="961" y="825" on="0"/>
        <pt x="892" y="745" on="0"/>
        <pt x="813" y="684" on="0"/>
        <pt x="728" y="649" on="0"/>
        <pt x="684" y="649" on="1"/>
        <pt x="634" y="649" on="0"/>
        <pt x="553" y="685" on="0"/>
        <pt x="524" y="707" on="1"/>
        <pt x="503" y="722" on="0"/>
        <pt x="465" y="754" on="0"/>
        <pt x="429" y="779" on="0"/>
        <pt x="390" y="795" on="0"/>
        <pt x="367" y="795" on="1"/>
        <pt x="336" y="795" on="0"/>
        <pt x="263" y="733" on="0"/>
        <pt x="221" y="664" on="1"/>
      </contour>
    </TTGlyph>
    <TTGlyph name="asterisk" xMin="70" yMin="205" xMax="965" yMax="1075">
      <contour>
        <pt x="406" y="1075" on="1"/>
        <pt x="647" y="1075" on="1"/>
        <pt x="604" y="760" on="1"/>
        <pt x="889" y="889" on="1"/>
        <pt x="965" y="713" on="1"/>
        <pt x="645" y="614" on="1"/>
        <pt x="879" y="334" on="1"/>
        <pt x="715" y="207" on="1"/>
        <pt x="516" y="508" on="1"/>
        <pt x="311" y="205" on="1"/>
        <pt x="150" y="334" on="1"/>
        <pt x="389" y="612" on="1"/>
        <pt x="70" y="711" on="1"/>
        <pt x="141" y="897" on="1"/>
        <pt x="434" y="760" on="1"/>
      </contour>
    </TTGlyph>
    <TTGlyph name="at" xMin="51" yMin="-29" xMax="969" yMax="1309">
      <contour>
        <pt x="918" y="70" on="1"/>
        <pt x="845" y="14" on="0"/>
        <pt x="692" y="-29" on="0"/>
        <pt x="602" y="-29" on="1"/>
        <pt x="490" y="-29" on="0"/>
        <pt x="290" y="57" on="0"/>
        <pt x="139" y="227" on="0"/>
        <pt x="51" y="481" on="0"/>
        <pt x="51" y="649" on="1"/>
        <pt x="51" y="816" on="0"/>
        <pt x="139" y="1064" on="0"/>
        <pt x="282" y="1228" on="0"/>
        <pt x="463" y="1309" on="0"/>
        <pt x="557" y="1309" on="1"/>
        <pt x="651" y="1309" on="0"/>
        <pt x="803" y="1246" on="0"/>
        <pt x="911" y="1115" on="0"/>
        <pt x="969" y="914" on="0"/>
        <pt x="969" y="776" on="1"/>
        <pt x="969" y="334" on="1"/>
        <pt x="782" y="334" on="1"/>
        <pt x="782" y="397" on="1"/>
        <pt x="756" y="365" on="0"/>
        <pt x="665" y="319" on="0"/>
        <pt x="612" y="319" on="1"/>
        <pt x="553" y="319" on="0"/>
        <pt x="452" y="362" on="0"/>
        <pt x="377" y="438" on="0"/>
        <pt x="334" y="541" on="0"/>
        <pt x="334" y="602" on="1"/>
        <pt x="334" y="678" on="0"/>
        <pt x="384" y="799" on="0"/>
        <pt x="490" y="883" on="0"/>
        <pt x="654" y="928" on="0"/>
        <pt x="768" y="930" on="1"/>
        <pt x="763" y="978" on="0"/>
        <pt x="729" y="1058" on="0"/>
        <pt x="672" y="1115" on="0"/>
        <pt x="596" y="1147" on="0"/>
        <pt x="551" y="1147" on="1"/>
        <pt x="493" y="1147" on="0"/>
        <pt x="382" y="1086" on="0"/>
        <pt x="294" y="963" on="0"/>
        <pt x="240" y="777" on="0"/>
        <pt x="240" y="651" on="1"/>
        <pt x="240" y="528" on="0"/>
        <pt x="301" y="336" on="0"/>
        <pt x="404" y="205" on="0"/>
        <pt x="540" y="137" on="0"/>
        <pt x="614" y="137" on="1"/>
        <pt x="664" y="137" on="0"/>
        <pt x="779" y="172" on="0"/>
        <pt x="836" y="221" on="1"/>
      </contour>
      <contour>
        <pt x="776" y="776" on="1"/>
        <pt x="712" y="775" on="0"/>
        <pt x="619" y="748" on="0"/>
        <pt x="559" y="704" on="0"/>
        <pt x="530" y="647" on="0"/>
        <pt x="530" y="616" on="1"/>
        <pt x="530" y="555" on="0"/>
        <pt x="589" y="481" on="0"/>
        <pt x="637" y="481" on="1"/>
        <pt x="679" y="481" on="0"/>
        <pt x="732" y="516" on="0"/>
        <pt x="764" y="589" on="0"/>
        <pt x="776" y="700" on="0"/>
      </contour>
    </TTGlyph>
    <TTGlyph name="atilde" xMin="82" yMin="-25" xMax="905" yMax="1421">
      <component glyphName=".ttfautohint" x="82" y="0" flags="0x0"/>
      <component glyphName="a" x="0" y="0" flags="0x204"/>
      <component glyphName="tilde" x="18" y="0" flags="0x4"/>
    </TTGlyph>
    <TTGlyph name="b" xMin="102" yMin="-31" xMax="956" yMax="1382">
      <contour>
        <pt x="102" y="1382" on="1"/>
        <pt x="360" y="1382" on="1"/>
        <pt x="360" y="1370" on="0"/>
        <pt x="352" y="1356" on="0"/>
        <pt x="343" y="1345" on="0"/>
        <pt x="333" y="1333" on="0"/>
        <pt x="332" y="1323" on="1"/>
        <pt x="332" y="874" on="1"/>
        <pt x="377" y="924" on="0"/>
        <pt x="493" y="977" on="0"/>
        <pt x="553" y="977" on="1"/>
        <pt x="634" y="977" on="0"/>
        <pt x="780" y="917" on="0"/>
        <pt x="891" y="797" on="0"/>
        <pt x="956" y="618" on="0"/>
        <pt x="956" y="498" on="1"/>
        <pt x="956" y="366" on="0"/>
        <pt x="885" y="167" on="0"/>
        <pt x="769" y="35" on="0"/>
        <pt x="621" y="-31" on="0"/>
        <pt x="545" y="-31" on="1"/>
        <pt x="473" y="-31" on="0"/>
        <pt x="341" y="32" on="0"/>
        <pt x="293" y="92" on="1"/>
        <pt x="262" y="0" on="1"/>
        <pt x="102" y="0" on="1"/>
      </contour>
      <contour>
        <pt x="330" y="489" on="1"/>
        <pt x="330" y="400" on="0"/>
        <pt x="356" y="275" on="0"/>
        <pt x="404" y="196" on="0"/>
        <pt x="473" y="160" on="0"/>
        <pt x="516" y="160" on="1"/>
        <pt x="550" y="160" on="0"/>
        <pt x="624" y="192" on="0"/>
        <pt x="686" y="264" on="0"/>
        <pt x="725" y="381" on="0"/>
        <pt x="725" y="467" on="1"/>
        <pt x="725" y="558" on="0"/>
        <pt x="686" y="689" on="0"/>
        <pt x="649" y="729" on="1"/>
        <pt x="621" y="760" on="0"/>
        <pt x="558" y="791" on="0"/>
        <pt x="510" y="791" on="1"/>
        <pt x="454" y="791" on="0"/>
        <pt x="384" y="742" on="0"/>
        <pt x="345" y="658" on="0"/>
        <pt x="330" y="549" on="0"/>
      </contour>
    </TTGlyph>
    <TTGlyph name="backslash" xMin="104" yMin="-96" xMax="922" yMax="1374">
      <contour>
        <pt x="922" y="-10" on="1"/>
        <pt x="743" y="-96" on="1"/>
        <pt x="104" y="1280" on="1"/>
        <pt x="283" y="1374" on="1"/>
      </contour>
    </TTGlyph>
    <TTGlyph name="bar" xMin="403" yMin="-309" xMax="623" yMax="1335">
      <contour>
        <pt x="403" y="1335" on="1"/>
        <pt x="623" y="1335" on="1"/>
        <pt x="623" y="-309" on="1"/>
        <pt x="403" y="-309" on="1"/>
      </contour>
    </TTGlyph>
    <TTGlyph name="braceleft" xMin="92" yMin="-326" xMax="854" yMax="1305">
      <contour>
        <pt x="291" y="53" on="1"/>
        <pt x="291" y="69" on="0"/>
        <pt x="293" y="122" on="0"/>
        <pt x="295" y="180" on="0"/>
        <pt x="297" y="236" on="0"/>
        <pt x="297" y="256" on="1"/>
        <pt x="297" y="307" on="0"/>
        <pt x="281" y="373" on="0"/>
        <pt x="251" y="412" on="0"/>
        <pt x="206" y="428" on="0"/>
        <pt x="178" y="428" on="1"/>
        <pt x="92" y="428" on="1"/>
        <pt x="92" y="610" on="1"/>
        <pt x="176" y="610" on="1"/>
        <pt x="239" y="610" on="0"/>
        <pt x="301" y="687" on="0"/>
        <pt x="301" y="774" on="1"/>
        <pt x="301" y="786" on="0"/>
        <pt x="300" y="833" on="0"/>
        <pt x="298" y="884" on="0"/>
        <pt x="297" y="928" on="0"/>
        <pt x="297" y="936" on="1"/>
        <pt x="297" y="1119" on="0"/>
        <pt x="493" y="1305" on="0"/>
        <pt x="688" y="1305" on="1"/>
        <pt x="854" y="1305" on="1"/>
        <pt x="854" y="1120" on="1"/>
        <pt x="653" y="1120" on="1"/>
        <pt x="587" y="1120" on="0"/>
        <pt x="524" y="1038" on="0"/>
        <pt x="524" y="956" on="1"/>
        <pt x="524" y="942" on="0"/>
        <pt x="525" y="897" on="0"/>
        <pt x="527" y="849" on="0"/>
        <pt x="528" y="807" on="0"/>
        <pt x="528" y="797" on="1"/>
        <pt x="528" y="706" on="0"/>
        <pt x="451" y="564" on="0"/>
        <pt x="383" y="520" on="1"/>
        <pt x="414" y="500" on="0"/>
        <pt x="465" y="441" on="0"/>
        <pt x="503" y="366" on="0"/>
        <pt x="524" y="277" on="0"/>
        <pt x="524" y="227" on="1"/>
        <pt x="524" y="216" on="0"/>
        <pt x="523" y="161" on="0"/>
        <pt x="521" y="104" on="0"/>
        <pt x="520" y="57" on="0"/>
        <pt x="520" y="53" on="1"/>
        <pt x="520" y="-52" on="0"/>
        <pt x="608" y="-145" on="0"/>
        <pt x="709" y="-145" on="1"/>
        <pt x="852" y="-145" on="1"/>
        <pt x="852" y="-326" on="1"/>
        <pt x="737" y="-326" on="1"/>
        <pt x="716" y="-326" on="0"/>
        <pt x="633" y="-321" on="0"/>
        <pt x="538" y="-306" on="0"/>
        <pt x="446" y="-279" on="0"/>
        <pt x="416" y="-256" on="1"/>
        <pt x="353" y="-208" on="0"/>
        <pt x="291" y="-49" on="0"/>
      </contour>
    </TTGlyph>
    <TTGlyph name="braceright" xMin="172" yMin="-326" xMax="934" yMax="1305">
      <contour>
        <pt x="735" y="53" on="1"/>
        <pt x="735" y="-49" on="0"/>
        <pt x="673" y="-208" on="0"/>
        <pt x="610" y="-256" on="1"/>
        <pt x="580" y="-279" on="0"/>
        <pt x="488" y="-306" on="0"/>
        <pt x="393" y="-321" on="0"/>
        <pt x="310" y="-326" on="0"/>
        <pt x="289" y="-326" on="1"/>
        <pt x="174" y="-326" on="1"/>
        <pt x="174" y="-145" on="1"/>
        <pt x="317" y="-145" on="1"/>
        <pt x="418" y="-145" on="0"/>
        <pt x="506" y="-52" on="0"/>
        <pt x="506" y="53" on="1"/>
        <pt x="506" y="57" on="0"/>
        <pt x="505" y="104" on="0"/>
        <pt x="503" y="161" on="0"/>
        <pt x="502" y="216" on="0"/>
        <pt x="502" y="227" on="1"/>
        <pt x="502" y="277" on="0"/>
        <pt x="523" y="366" on="0"/>
        <pt x="560" y="441" on="0"/>
        <pt x="612" y="500" on="0"/>
        <pt x="643" y="520" on="1"/>
        <pt x="575" y="564" on="0"/>
        <pt x="498" y="706" on="0"/>
        <pt x="498" y="797" on="1"/>
        <pt x="498" y="807" on="0"/>
        <pt x="499" y="849" on="0"/>
        <pt x="501" y="897" on="0"/>
        <pt x="502" y="942" on="0"/>
        <pt x="502" y="956" on="1"/>
        <pt x="502" y="1038" on="0"/>
        <pt x="439" y="1120" on="0"/>
        <pt x="373" y="1120" on="1"/>
        <pt x="172" y="1120" on="1"/>
        <pt x="172" y="1305" on="1"/>
        <pt x="338" y="1305" on="1"/>
        <pt x="533" y="1305" on="0"/>
        <pt x="729" y="1119" on="0"/>
        <pt x="729" y="936" on="1"/>
        <pt x="729" y="928" on="0"/>
        <pt x="728" y="884" on="0"/>
        <pt x="726" y="833" on="0"/>
        <pt x="725" y="786" on="0"/>
        <pt x="725" y="774" on="1"/>
        <pt x="725" y="687" on="0"/>
        <pt x="787" y="610" on="0"/>
        <pt x="850" y="610" on="1"/>
        <pt x="934" y="610" on="1"/>
        <pt x="934" y="428" on="1"/>
        <pt x="848" y="428" on="1"/>
        <pt x="819" y="428" on="0"/>
        <pt x="775" y="412" on="0"/>
        <pt x="745" y="373" on="0"/>
        <pt x="729" y="307" on="0"/>
        <pt x="729" y="256" on="1"/>
        <pt x="729" y="236" on="0"/>
        <pt x="731" y="180" on="0"/>
        <pt x="733" y="122" on="0"/>
        <pt x="735" y="69" on="0"/>
      </contour>
    </TTGlyph>
    <TTGlyph name="bracketleft" xMin="242" yMin="-184" xMax="877" yMax="1370">
      <contour>
        <pt x="242" y="1370" on="1"/>
        <pt x="877" y="1370" on="1"/>
        <pt x="877" y="1180" on="1"/>
        <pt x="457" y="1180" on="1"/>
        <pt x="457" y="0" on="1"/>
        <pt x="877" y="0" on="1"/>
        <pt x="877" y="-184" on="1"/>
        <pt x="242" y="-184" on="1"/>
      </contour>
    </TTGlyph>
    <TTGlyph name="bracketright" xMin="147" yMin="-184" xMax="780" yMax="1370">
      <contour>
        <pt x="780" y="1370" on="1"/>
        <pt x="780" y="-184" on="1"/>
        <pt x="147" y="-184" on="1"/>
        <pt x="147" y="0" on="1"/>
        <pt x="565" y="0" on="1"/>
        <pt x="565" y="1180" on="1"/>
        <pt x="150" y="1180" on="1"/>
        <pt x="150" y="1370" on="1"/>
      </contour>
    </TTGlyph>
    <TTGlyph name="breve" xMin="174" yMin="1061" xMax="842" yMax="1382">
      <contour>
        <pt x="299" y="1382" on="1"/>
        <pt x="342" y="1307" on="0"/>
        <pt x="459" y="1237" on="0"/>
        <pt x="518" y="1237" on="1"/>
        <pt x="545" y="1237" on="0"/>
        <pt x="602" y="1251" on="0"/>
        <pt x="660" y="1285" on="0"/>
        <pt x="716" y="1341" on="0"/>
        <pt x="743" y="1382" on="1"/>
        <pt x="842" y="1235" on="1"/>
        <pt x="808" y="1193" on="0"/>
        <pt x="728" y="1129" on="0"/>
        <pt x="643" y="1084" on="0"/>
        <pt x="554" y="1061" on="0"/>
        <pt x="512" y="1061" on="1"/>
        <pt x="432" y="1061" on="0"/>
        <pt x="261" y="1140" on="0"/>
        <pt x="174" y="1231" on="1"/>
      </contour>
    </TTGlyph>
    <TTGlyph name="breve.cap" xMin="158" yMin="1333" xMax="825" yMax="1655">
      <contour>
        <pt x="283" y="1655" on="1"/>
        <pt x="326" y="1579" on="0"/>
        <pt x="443" y="1509" on="0"/>
        <pt x="502" y="1509" on="1"/>
        <pt x="529" y="1509" on="0"/>
        <pt x="585" y="1523" on="0"/>
        <pt x="643" y="1557" on="0"/>
        <pt x="700" y="1613" on="0"/>
        <pt x="727" y="1655" on="1"/>
        <pt x="825" y="1507" on="1"/>
        <pt x="791" y="1466" on="0"/>
        <pt x="711" y="1401" on="0"/>
        <pt x="626" y="1356" on="0"/>
        <pt x="538" y="1333" on="0"/>
        <pt x="496" y="1333" on="1"/>
        <pt x="415" y="1333" on="0"/>
        <pt x="244" y="1412" on="0"/>
        <pt x="158" y="1503" on="1"/>
      </contour>
    </TTGlyph>
    <TTGlyph name="brokenbar" xMin="403" yMin="-309" xMax="623" yMax="1335">
      <contour>
        <pt x="403" y="1335" on="1"/>
        <pt x="623" y="1335" on="1"/>
        <pt x="623" y="557" on="1"/>
        <pt x="403" y="557" on="1"/>
      </contour>
      <contour>
        <pt x="623" y="-309" on="1"/>
        <pt x="403" y="-309" on="1"/>
        <pt x="403" y="446" on="1"/>
        <pt x="623" y="446" on="1"/>
      </contour>
    </TTGlyph>
    <TTGlyph name="bullet" xMin="313" yMin="422" xMax="727" yMax="811">
      <contour>
        <pt x="313" y="616" on="1"/>
        <pt x="313" y="656" on="0"/>
        <pt x="346" y="727" on="0"/>
        <pt x="402" y="780" on="0"/>
        <pt x="477" y="811" on="0"/>
        <pt x="520" y="811" on="1"/>
        <pt x="563" y="811" on="0"/>
        <pt x="639" y="780" on="0"/>
        <pt x="695" y="727" on="0"/>
        <pt x="727" y="656" on="0"/>
        <pt x="727" y="616" on="1"/>
        <pt x="727" y="576" on="0"/>
        <pt x="695" y="506" on="0"/>
        <pt x="639" y="453" on="0"/>
        <pt x="563" y="422" on="0"/>
        <pt x="520" y="422" on="1"/>
        <pt x="477" y="422" on="0"/>
        <pt x="402" y="453" on="0"/>
        <pt x="346" y="506" on="0"/>
        <pt x="313" y="576" on="0"/>
      </contour>
    </TTGlyph>
    <TTGlyph name="c" xMin="78" yMin="-33" xMax="946" yMax="977">
      <contour>
        <pt x="799" y="621" on="1"/>
        <pt x="790" y="623" on="0"/>
        <pt x="782" y="634" on="0"/>
        <pt x="778" y="648" on="0"/>
        <pt x="775" y="665" on="0"/>
        <pt x="772" y="674" on="1"/>
        <pt x="744" y="722" on="0"/>
        <pt x="639" y="786" on="0"/>
        <pt x="563" y="786" on="1"/>
        <pt x="511" y="786" on="0"/>
        <pt x="419" y="741" on="0"/>
        <pt x="351" y="660" on="0"/>
        <pt x="311" y="548" on="0"/>
        <pt x="311" y="481" on="1"/>
        <pt x="311" y="413" on="0"/>
        <pt x="348" y="298" on="0"/>
        <pt x="415" y="212" on="0"/>
        <pt x="508" y="164" on="0"/>
        <pt x="565" y="164" on="1"/>
        <pt x="593" y="164" on="0"/>
        <pt x="654" y="177" on="0"/>
        <pt x="716" y="207" on="0"/>
        <pt x="776" y="256" on="0"/>
        <pt x="805" y="291" on="1"/>
        <pt x="938" y="137" on="1"/>
        <pt x="857" y="46" on="0"/>
        <pt x="663" y="-33" on="0"/>
        <pt x="555" y="-33" on="1"/>
        <pt x="450" y="-33" on="0"/>
        <pt x="275" y="43" on="0"/>
        <pt x="149" y="177" on="0"/>
        <pt x="78" y="361" on="0"/>
        <pt x="78" y="469" on="1"/>
        <pt x="78" y="576" on="0"/>
        <pt x="148" y="761" on="0"/>
        <pt x="276" y="898" on="0"/>
        <pt x="455" y="977" on="0"/>
        <pt x="563" y="977" on="1"/>
        <pt x="623" y="977" on="0"/>
        <pt x="735" y="953" on="0"/>
        <pt x="834" y="907" on="0"/>
        <pt x="916" y="838" on="0"/>
        <pt x="946" y="793" on="1"/>
      </contour>
    </TTGlyph>
    <TTGlyph name="cacute" xMin="78" yMin="-33" xMax="946" yMax="1462">
      <component glyphName=".ttfautohint" x="78" y="0" flags="0x0"/>
      <component glyphName="c" x="0" y="0" flags="0x204"/>
      <component glyphName="acute" x="0" y="0" flags="0x4"/>
    </TTGlyph>
    <TTGlyph name="caron" xMin="254" yMin="1051" xMax="791" yMax="1438">
      <contour>
        <pt x="791" y="1348" on="1"/>
        <pt x="555" y="1051" on="1"/>
        <pt x="489" y="1051" on="1"/>
        <pt x="254" y="1350" on="1"/>
        <pt x="373" y="1438" on="1"/>
        <pt x="528" y="1257" on="1"/>
        <pt x="692" y="1436" on="1"/>
      </contour>
    </TTGlyph>
    <TTGlyph name="caron.cap" xMin="195" yMin="1329" xMax="788" yMax="1638">
      <contour>
        <pt x="788" y="1550" on="1"/>
        <pt x="516" y="1329" on="1"/>
        <pt x="453" y="1329" on="1"/>
        <pt x="195" y="1546" on="1"/>
        <pt x="272" y="1638" on="1"/>
        <pt x="487" y="1503" on="1"/>
        <pt x="719" y="1632" on="1"/>
      </contour>
    </TTGlyph>
    <TTGlyph name="ccaron" xMin="78" yMin="-33" xMax="946" yMax="1438">
      <component glyphName=".ttfautohint" x="78" y="0" flags="0x0"/>
      <component glyphName="c" x="0" y="0" flags="0x204"/>
      <component glyphName="caron" x="0" y="0" flags="0x4"/>
    </TTGlyph>
    <TTGlyph name="ccedilla" xMin="78" yMin="-389" xMax="946" yMax="977">
      <contour>
        <pt x="799" y="621" on="1"/>
        <pt x="790" y="623" on="0"/>
        <pt x="782" y="634" on="0"/>
        <pt x="778" y="648" on="0"/>
        <pt x="775" y="665" on="0"/>
        <pt x="772" y="674" on="1"/>
        <pt x="744" y="722" on="0"/>
        <pt x="639" y="786" on="0"/>
        <pt x="563" y="786" on="1"/>
        <pt x="511" y="786" on="0"/>
        <pt x="419" y="741" on="0"/>
        <pt x="351" y="660" on="0"/>
        <pt x="311" y="548" on="0"/>
        <pt x="311" y="481" on="1"/>
        <pt x="311" y="413" on="0"/>
        <pt x="348" y="298" on="0"/>
        <pt x="415" y="212" on="0"/>
        <pt x="508" y="164" on="0"/>
        <pt x="565" y="164" on="1"/>
        <pt x="593" y="164" on="0"/>
        <pt x="654" y="177" on="0"/>
        <pt x="716" y="207" on="0"/>
        <pt x="776" y="256" on="0"/>
        <pt x="805" y="291" on="1"/>
        <pt x="938" y="137" on="1"/>
        <pt x="878" y="68" on="0"/>
        <pt x="737" y="-9" on="0"/>
        <pt x="659" y="-23" on="1"/>
        <pt x="655" y="-63" on="1"/>
        <pt x="733" y="-71" on="0"/>
        <pt x="815" y="-149" on="0"/>
        <pt x="815" y="-209" on="1"/>
        <pt x="815" y="-241" on="0"/>
        <pt x="783" y="-306" on="0"/>
        <pt x="718" y="-357" on="0"/>
        <pt x="620" y="-389" on="0"/>
        <pt x="553" y="-389" on="1"/>
        <pt x="488" y="-389" on="0"/>
        <pt x="357" y="-346" on="0"/>
        <pt x="295" y="-295" on="1"/>
        <pt x="371" y="-166" on="1"/>
        <pt x="401" y="-191" on="0"/>
        <pt x="453" y="-224" on="0"/>
        <pt x="503" y="-243" on="0"/>
        <pt x="552" y="-250" on="0"/>
        <pt x="578" y="-250" on="1"/>
        <pt x="607" y="-250" on="0"/>
        <pt x="629" y="-226" on="0"/>
        <pt x="629" y="-215" on="1"/>
        <pt x="629" y="-204" on="0"/>
        <pt x="601" y="-182" on="0"/>
        <pt x="575" y="-182" on="1"/>
        <pt x="475" y="-182" on="1"/>
        <pt x="496" y="-29" on="1"/>
        <pt x="403" y="-19" on="0"/>
        <pt x="249" y="64" on="0"/>
        <pt x="139" y="195" on="0"/>
        <pt x="78" y="368" on="0"/>
        <pt x="78" y="469" on="1"/>
        <pt x="78" y="576" on="0"/>
        <pt x="148" y="761" on="0"/>
        <pt x="276" y="898" on="0"/>
        <pt x="455" y="977" on="0"/>
        <pt x="563" y="977" on="1"/>
        <pt x="623" y="977" on="0"/>
        <pt x="735" y="953" on="0"/>
        <pt x="834" y="907" on="0"/>
        <pt x="916" y="838" on="0"/>
        <pt x="946" y="793" on="1"/>
      </contour>
    </TTGlyph>
    <TTGlyph name="cedilla" xMin="295" yMin="-389" xMax="815" yMax="0">
      <contour>
        <pt x="629" y="-215" on="1"/>
        <pt x="629" y="-204" on="0"/>
        <pt x="601" y="-182" on="0"/>
        <pt x="575" y="-182" on="1"/>
        <pt x="475" y="-182" on="1"/>
        <pt x="500" y="0" on="1"/>
        <pt x="664" y="0" on="1"/>
        <pt x="655" y="-63" on="1"/>
        <pt x="733" y="-71" on="0"/>
        <pt x="815" y="-149" on="0"/>
        <pt x="815" y="-209" on="1"/>
        <pt x="815" y="-241" on="0"/>
        <pt x="783" y="-306" on="0"/>
        <pt x="718" y="-357" on="0"/>
        <pt x="620" y="-389" on="0"/>
        <pt x="553" y="-389" on="1"/>
        <pt x="488" y="-389" on="0"/>
        <pt x="357" y="-346" on="0"/>
        <pt x="295" y="-295" on="1"/>
        <pt x="371" y="-166" on="1"/>
        <pt x="401" y="-191" on="0"/>
        <pt x="453" y="-224" on="0"/>
        <pt x="503" y="-243" on="0"/>
        <pt x="552" y="-250" on="0"/>
        <pt x="578" y="-250" on="1"/>
        <pt x="607" y="-250" on="0"/>
        <pt x="629" y="-226" on="0"/>
      </contour>
    </TTGlyph>
    <TTGlyph name="cent" xMin="80" yMin="-162" xMax="944" yMax="1278">
      <contour>
        <pt x="805" y="696" on="1"/>
        <pt x="796" y="698" on="0"/>
        <pt x="788" y="709" on="0"/>
        <pt x="784" y="724" on="0"/>
        <pt x="781" y="741" on="0"/>
        <pt x="778" y="750" on="1"/>
        <pt x="763" y="774" on="0"/>
        <pt x="720" y="816" on="0"/>
        <pt x="692" y="831" on="1"/>
        <pt x="616" y="244" on="1"/>
        <pt x="664" y="252" on="0"/>
        <pt x="765" y="310" on="0"/>
        <pt x="811" y="367" on="1"/>
        <pt x="944" y="213" on="1"/>
        <pt x="869" y="128" on="0"/>
        <pt x="689" y="48" on="0"/>
        <pt x="590" y="43" on="1"/>
        <pt x="563" y="-162" on="1"/>
        <pt x="362" y="-137" on="1"/>
        <pt x="389" y="72" on="1"/>
        <pt x="320" y="98" on="0"/>
        <pt x="206" y="189" on="0"/>
        <pt x="125" y="311" on="0"/>
        <pt x="80" y="460" on="0"/>
        <pt x="80" y="545" on="1"/>
        <pt x="80" y="644" on="0"/>
        <pt x="142" y="818" on="0"/>
        <pt x="256" y="952" on="0"/>
        <pt x="414" y="1038" on="0"/>
        <pt x="510" y="1049" on="1"/>
        <pt x="539" y="1278" on="1"/>
        <pt x="760" y="1257" on="1"/>
        <pt x="760" y="1240" on="0"/>
        <pt x="749" y="1215" on="0"/>
        <pt x="741" y="1192" on="1"/>
        <pt x="719" y="1032" on="1"/>
        <pt x="854" y="996" on="0"/>
        <pt x="940" y="877" on="1"/>
      </contour>
      <contour>
        <pt x="313" y="557" on="1"/>
        <pt x="313" y="476" on="0"/>
        <pt x="363" y="344" on="0"/>
        <pt x="416" y="299" on="1"/>
        <pt x="483" y="846" on="1"/>
        <pt x="444" y="832" on="0"/>
        <pt x="381" y="777" on="0"/>
        <pt x="337" y="702" on="0"/>
        <pt x="313" y="609" on="0"/>
      </contour>
    </TTGlyph>
    <TTGlyph name="circumflex" xMin="254" yMin="1040" xMax="791" yMax="1427">
      <contour>
        <pt x="254" y="1130" on="1"/>
        <pt x="489" y="1427" on="1"/>
        <pt x="555" y="1427" on="1"/>
        <pt x="791" y="1128" on="1"/>
        <pt x="672" y="1040" on="1"/>
        <pt x="516" y="1221" on="1"/>
        <pt x="352" y="1042" on="1"/>
      </contour>
    </TTGlyph>
    <TTGlyph name="circumflex.cap" xMin="219" yMin="1329" xMax="813" yMax="1638">
      <contour>
        <pt x="219" y="1417" on="1"/>
        <pt x="492" y="1638" on="1"/>
        <pt x="555" y="1638" on="1"/>
        <pt x="813" y="1421" on="1"/>
        <pt x="735" y="1329" on="1"/>
        <pt x="520" y="1464" on="1"/>
        <pt x="289" y="1335" on="1"/>
      </contour>
    </TTGlyph>
    <TTGlyph name="colon" xMin="326" yMin="-27" xMax="631" yMax="891">
      <contour>
        <pt x="477" y="891" on="1"/>
        <pt x="505" y="891" on="0"/>
        <pt x="560" y="871" on="0"/>
        <pt x="604" y="834" on="0"/>
        <pt x="631" y="783" on="0"/>
        <pt x="631" y="752" on="1"/>
        <pt x="631" y="723" on="0"/>
        <pt x="606" y="673" on="0"/>
        <pt x="564" y="634" on="0"/>
        <pt x="508" y="612" on="0"/>
        <pt x="477" y="612" on="1"/>
        <pt x="447" y="612" on="0"/>
        <pt x="392" y="634" on="0"/>
        <pt x="351" y="673" on="0"/>
        <pt x="326" y="723" on="0"/>
        <pt x="326" y="752" on="1"/>
        <pt x="326" y="780" on="0"/>
        <pt x="351" y="831" on="0"/>
        <pt x="392" y="869" on="0"/>
        <pt x="447" y="891" on="0"/>
      </contour>
      <contour>
        <pt x="477" y="252" on="1"/>
        <pt x="505" y="252" on="0"/>
        <pt x="560" y="231" on="0"/>
        <pt x="604" y="193" on="0"/>
        <pt x="631" y="142" on="0"/>
        <pt x="631" y="111" on="1"/>
        <pt x="631" y="83" on="0"/>
        <pt x="607" y="33" on="0"/>
        <pt x="565" y="-5" on="0"/>
        <pt x="509" y="-27" on="0"/>
        <pt x="477" y="-27" on="1"/>
        <pt x="445" y="-27" on="0"/>
        <pt x="390" y="-5" on="0"/>
        <pt x="350" y="32" on="0"/>
        <pt x="326" y="82" on="0"/>
        <pt x="326" y="111" on="1"/>
        <pt x="326" y="140" on="0"/>
        <pt x="351" y="191" on="0"/>
        <pt x="392" y="230" on="0"/>
        <pt x="447" y="252" on="0"/>
      </contour>
    </TTGlyph>
    <TTGlyph name="comma" xMin="305" yMin="-346" xMax="662" yMax="250">
      <contour>
        <pt x="662" y="61" on="1"/>
        <pt x="662" y="-20" on="0"/>
        <pt x="542" y="-221" on="0"/>
        <pt x="420" y="-346" on="1"/>
        <pt x="305" y="-242" on="1"/>
        <pt x="333" y="-215" on="0"/>
        <pt x="382" y="-158" on="0"/>
        <pt x="418" y="-104" on="0"/>
        <pt x="438" y="-57" on="0"/>
        <pt x="438" y="-41" on="1"/>
        <pt x="438" y="-30" on="0"/>
        <pt x="420" y="-11" on="0"/>
        <pt x="408" y="0" on="1"/>
        <pt x="382" y="22" on="0"/>
        <pt x="340" y="71" on="0"/>
        <pt x="340" y="106" on="1"/>
        <pt x="340" y="136" on="0"/>
        <pt x="362" y="188" on="0"/>
        <pt x="402" y="227" on="0"/>
        <pt x="459" y="250" on="0"/>
        <pt x="494" y="250" on="1"/>
        <pt x="526" y="250" on="0"/>
        <pt x="587" y="222" on="0"/>
        <pt x="634" y="172" on="0"/>
        <pt x="662" y="103" on="0"/>
      </contour>
    </TTGlyph>
    <TTGlyph name="copyright" xMin="10" yMin="37" xMax="1018" yMax="1081">
      <contour>
        <pt x="643" y="596" on="1"/>
        <pt x="635" y="598" on="0"/>
        <pt x="630" y="610" on="0"/>
        <pt x="627" y="626" on="0"/>
        <pt x="626" y="644" on="0"/>
        <pt x="623" y="653" on="1"/>
        <pt x="612" y="685" on="0"/>
        <pt x="557" y="725" on="0"/>
        <pt x="520" y="725" on="1"/>
        <pt x="499" y="725" on="0"/>
        <pt x="458" y="710" on="0"/>
        <pt x="424" y="675" on="0"/>
        <pt x="403" y="617" on="0"/>
        <pt x="403" y="575" on="1"/>
        <pt x="403" y="497" on="0"/>
        <pt x="463" y="397" on="0"/>
        <pt x="526" y="397" on="1"/>
        <pt x="573" y="397" on="0"/>
        <pt x="631" y="449" on="0"/>
        <pt x="651" y="500" on="1"/>
        <pt x="795" y="408" on="1"/>
        <pt x="751" y="330" on="0"/>
        <pt x="606" y="240" on="0"/>
        <pt x="518" y="240" on="1"/>
        <pt x="450" y="240" on="0"/>
        <pt x="339" y="293" on="0"/>
        <pt x="261" y="382" on="0"/>
        <pt x="219" y="500" on="0"/>
        <pt x="219" y="565" on="1"/>
        <pt x="219" y="632" on="0"/>
        <pt x="265" y="747" on="0"/>
        <pt x="343" y="831" on="0"/>
        <pt x="446" y="879" on="0"/>
        <pt x="504" y="879" on="1"/>
        <pt x="568" y="879" on="0"/>
        <pt x="668" y="845" on="0"/>
        <pt x="743" y="784" on="0"/>
        <pt x="791" y="701" on="0"/>
        <pt x="803" y="653" on="1"/>
      </contour>
      <contour>
        <pt x="868" y="193" on="1"/>
        <pt x="796" y="117" on="0"/>
        <pt x="612" y="37" on="0"/>
        <pt x="506" y="37" on="1"/>
        <pt x="402" y="37" on="0"/>
        <pt x="221" y="120" on="0"/>
        <pt x="87" y="262" on="0"/>
        <pt x="10" y="452" on="0"/>
        <pt x="10" y="559" on="1"/>
        <pt x="10" y="667" on="0"/>
        <pt x="90" y="857" on="0"/>
        <pt x="227" y="999" on="0"/>
        <pt x="410" y="1081" on="0"/>
        <pt x="514" y="1081" on="1"/>
        <pt x="616" y="1081" on="0"/>
        <pt x="799" y="999" on="0"/>
        <pt x="937" y="857" on="0"/>
        <pt x="1018" y="667" on="0"/>
        <pt x="1018" y="559" on="1"/>
        <pt x="1018" y="347" on="0"/>
      </contour>
      <contour>
        <pt x="516" y="967" on="1"/>
        <pt x="441" y="967" on="0"/>
        <pt x="309" y="903" on="0"/>
        <pt x="212" y="793" on="0"/>
        <pt x="156" y="644" on="0"/>
        <pt x="156" y="559" on="1"/>
        <pt x="156" y="475" on="0"/>
        <pt x="212" y="329" on="0"/>
        <pt x="309" y="219" on="0"/>
        <pt x="441" y="156" on="0"/>
        <pt x="516" y="156" on="1"/>
        <pt x="590" y="156" on="0"/>
        <pt x="721" y="221" on="0"/>
        <pt x="820" y="332" on="0"/>
        <pt x="877" y="479" on="0"/>
        <pt x="877" y="561" on="1"/>
        <pt x="877" y="643" on="0"/>
        <pt x="821" y="791" on="0"/>
        <pt x="723" y="902" on="0"/>
        <pt x="591" y="967" on="0"/>
      </contour>
    </TTGlyph>
    <TTGlyph name="currency" xMin="106" yMin="309" xMax="918" yMax="1108">
      <contour>
        <pt x="106" y="987" on="1"/>
        <pt x="240" y="1108" on="1"/>
        <pt x="350" y="997" on="1"/>
        <pt x="387" y="1016" on="0"/>
        <pt x="472" y="1038" on="0"/>
        <pt x="514" y="1038" on="1"/>
        <pt x="556" y="1038" on="0"/>
        <pt x="637" y="1018" on="0"/>
        <pt x="674" y="999" on="1"/>
        <pt x="784" y="1108" on="1"/>
        <pt x="918" y="987" on="1"/>
        <pt x="805" y="877" on="1"/>
        <pt x="831" y="836" on="0"/>
        <pt x="852" y="752" on="0"/>
        <pt x="852" y="709" on="1"/>
        <pt x="852" y="664" on="0"/>
        <pt x="830" y="581" on="0"/>
        <pt x="805" y="541" on="1"/>
        <pt x="918" y="430" on="1"/>
        <pt x="784" y="309" on="1"/>
        <pt x="676" y="418" on="1"/>
        <pt x="638" y="396" on="0"/>
        <pt x="557" y="379" on="0"/>
        <pt x="514" y="379" on="1"/>
        <pt x="468" y="379" on="0"/>
        <pt x="386" y="398" on="0"/>
        <pt x="348" y="420" on="1"/>
        <pt x="240" y="309" on="1"/>
        <pt x="106" y="430" on="1"/>
        <pt x="219" y="545" on="1"/>
        <pt x="197" y="583" on="0"/>
        <pt x="174" y="667" on="0"/>
        <pt x="174" y="709" on="1"/>
        <pt x="174" y="752" on="0"/>
        <pt x="194" y="832" on="0"/>
        <pt x="219" y="874" on="1"/>
      </contour>
      <contour>
        <pt x="360" y="707" on="1"/>
        <pt x="360" y="672" on="0"/>
        <pt x="383" y="612" on="0"/>
        <pt x="424" y="567" on="0"/>
        <pt x="480" y="541" on="0"/>
        <pt x="512" y="541" on="1"/>
        <pt x="544" y="541" on="0"/>
        <pt x="600" y="567" on="0"/>
        <pt x="641" y="612" on="0"/>
        <pt x="664" y="672" on="0"/>
        <pt x="664" y="707" on="1"/>
        <pt x="664" y="741" on="0"/>
        <pt x="641" y="802" on="0"/>
        <pt x="600" y="848" on="0"/>
        <pt x="544" y="874" on="0"/>
        <pt x="512" y="874" on="1"/>
        <pt x="480" y="874" on="0"/>
        <pt x="424" y="848" on="0"/>
        <pt x="383" y="802" on="0"/>
        <pt x="360" y="741" on="0"/>
      </contour>
    </TTGlyph>
    <TTGlyph name="d" xMin="61" yMin="-31" xMax="946" yMax="1382">
      <contour>
        <pt x="918" y="115" on="1"/>
        <pt x="918" y="90" on="0"/>
        <pt x="928" y="31" on="0"/>
        <pt x="936" y="0" on="1"/>
        <pt x="719" y="0" on="1"/>
        <pt x="706" y="9" on="0"/>
        <pt x="698" y="45" on="0"/>
        <pt x="698" y="59" on="1"/>
        <pt x="698" y="88" on="1"/>
        <pt x="682" y="59" on="0"/>
        <pt x="629" y="15" on="0"/>
        <pt x="567" y="-15" on="0"/>
        <pt x="500" y="-31" on="0"/>
        <pt x="469" y="-31" on="1"/>
        <pt x="385" y="-31" on="0"/>
        <pt x="237" y="30" on="0"/>
        <pt x="126" y="153" on="0"/>
        <pt x="61" y="338" on="0"/>
        <pt x="61" y="463" on="1"/>
        <pt x="61" y="584" on="0"/>
        <pt x="127" y="775" on="0"/>
        <pt x="239" y="907" on="0"/>
        <pt x="386" y="977" on="0"/>
        <pt x="467" y="977" on="1"/>
        <pt x="495" y="977" on="0"/>
        <pt x="555" y="963" on="0"/>
        <pt x="614" y="938" on="0"/>
        <pt x="667" y="902" on="0"/>
        <pt x="688" y="881" on="1"/>
        <pt x="688" y="1382" on="1"/>
        <pt x="946" y="1382" on="1"/>
        <pt x="946" y="1371" on="0"/>
        <pt x="938" y="1357" on="0"/>
        <pt x="929" y="1345" on="0"/>
        <pt x="919" y="1332" on="0"/>
        <pt x="918" y="1323" on="1"/>
      </contour>
      <contour>
        <pt x="690" y="489" on="1"/>
        <pt x="690" y="549" on="0"/>
        <pt x="674" y="658" on="0"/>
        <pt x="634" y="742" on="0"/>
        <pt x="563" y="791" on="0"/>
        <pt x="508" y="791" on="1"/>
        <pt x="460" y="791" on="0"/>
        <pt x="397" y="760" on="0"/>
        <pt x="369" y="729" on="1"/>
        <pt x="293" y="648" on="0"/>
        <pt x="293" y="467" on="1"/>
        <pt x="293" y="381" on="0"/>
        <pt x="332" y="264" on="0"/>
        <pt x="394" y="192" on="0"/>
        <pt x="467" y="160" on="0"/>
        <pt x="502" y="160" on="1"/>
        <pt x="545" y="160" on="0"/>
        <pt x="614" y="196" on="0"/>
        <pt x="663" y="275" on="0"/>
        <pt x="690" y="400" on="0"/>
      </contour>
    </TTGlyph>
    <TTGlyph name="dagger" xMin="82" yMin="-307" xMax="932" yMax="1335">
      <contour>
        <pt x="397" y="1335" on="1"/>
        <pt x="618" y="1335" on="1"/>
        <pt x="618" y="971" on="1"/>
        <pt x="932" y="971" on="1"/>
        <pt x="932" y="782" on="1"/>
        <pt x="618" y="782" on="1"/>
        <pt x="618" y="-307" on="1"/>
        <pt x="397" y="-307" on="1"/>
        <pt x="397" y="782" on="1"/>
        <pt x="82" y="782" on="1"/>
        <pt x="82" y="971" on="1"/>
        <pt x="397" y="971" on="1"/>
      </contour>
    </TTGlyph>
    <TTGlyph name="daggerdbl" xMin="82" yMin="-307" xMax="932" yMax="1333">
      <contour>
        <pt x="397" y="1333" on="1"/>
        <pt x="618" y="1333" on="1"/>
        <pt x="618" y="969" on="1"/>
        <pt x="932" y="969" on="1"/>
        <pt x="932" y="780" on="1"/>
        <pt x="618" y="780" on="1"/>
        <pt x="618" y="283" on="1"/>
        <pt x="932" y="283" on="1"/>
        <pt x="932" y="92" on="1"/>
        <pt x="618" y="92" on="1"/>
        <pt x="618" y="-307" on="1"/>
        <pt x="397" y="-307" on="1"/>
        <pt x="397" y="92" on="1"/>
        <pt x="82" y="92" on="1"/>
        <pt x="82" y="283" on="1"/>
        <pt x="397" y="283" on="1"/>
        <pt x="397" y="780" on="1"/>
        <pt x="82" y="780" on="1"/>
        <pt x="82" y="969" on="1"/>
        <pt x="397" y="969" on="1"/>
      </contour>
    </TTGlyph>
    <TTGlyph name="dcaron" xMin="-25" yMin="-31" xMax="1059" yMax="1401">
      <contour>
        <pt x="1059" y="1239" on="1"/>
        <pt x="1059" y="1170" on="0"/>
        <pt x="988" y="1010" on="0"/>
        <pt x="903" y="907" on="1"/>
        <pt x="799" y="997" on="1"/>
        <pt x="820" y="1021" on="0"/>
        <pt x="853" y="1069" on="0"/>
        <pt x="876" y="1113" on="0"/>
        <pt x="889" y="1148" on="0"/>
        <pt x="889" y="1159" on="1"/>
        <pt x="889" y="1162" on="0"/>
        <pt x="877" y="1176" on="0"/>
        <pt x="870" y="1184" on="1"/>
        <pt x="853" y="1202" on="0"/>
        <pt x="819" y="1244" on="0"/>
        <pt x="819" y="1276" on="1"/>
        <pt x="819" y="1303" on="0"/>
        <pt x="837" y="1349" on="0"/>
        <pt x="869" y="1382" on="0"/>
        <pt x="914" y="1401" on="0"/>
        <pt x="940" y="1401" on="1"/>
        <pt x="963" y="1401" on="0"/>
        <pt x="1006" y="1377" on="0"/>
        <pt x="1039" y="1335" on="0"/>
        <pt x="1059" y="1275" on="0"/>
      </contour>
      <contour>
        <pt x="772" y="115" on="1"/>
        <pt x="772" y="90" on="0"/>
        <pt x="783" y="31" on="0"/>
        <pt x="791" y="0" on="1"/>
        <pt x="580" y="0" on="1"/>
        <pt x="567" y="9" on="0"/>
        <pt x="559" y="45" on="0"/>
        <pt x="559" y="59" on="1"/>
        <pt x="559" y="88" on="1"/>
        <pt x="545" y="61" on="0"/>
        <pt x="499" y="17" on="0"/>
        <pt x="444" y="-14" on="0"/>
        <pt x="384" y="-31" on="0"/>
        <pt x="356" y="-31" on="1"/>
        <pt x="279" y="-31" on="0"/>
        <pt x="140" y="30" on="0"/>
        <pt x="36" y="153" on="0"/>
        <pt x="-25" y="338" on="0"/>
        <pt x="-25" y="463" on="1"/>
        <pt x="-25" y="584" on="0"/>
        <pt x="38" y="775" on="0"/>
        <pt x="144" y="907" on="0"/>
        <pt x="280" y="977" on="0"/>
        <pt x="354" y="977" on="1"/>
        <pt x="379" y="977" on="0"/>
        <pt x="436" y="961" on="0"/>
        <pt x="489" y="934" on="0"/>
        <pt x="534" y="899" on="0"/>
        <pt x="549" y="881" on="1"/>
        <pt x="549" y="1382" on="1"/>
        <pt x="801" y="1382" on="1"/>
        <pt x="801" y="1371" on="0"/>
        <pt x="793" y="1357" on="0"/>
        <pt x="783" y="1345" on="0"/>
        <pt x="773" y="1332" on="0"/>
        <pt x="772" y="1323" on="1"/>
      </contour>
      <contour>
        <pt x="551" y="489" on="1"/>
        <pt x="551" y="549" on="0"/>
        <pt x="539" y="658" on="0"/>
        <pt x="505" y="742" on="0"/>
        <pt x="444" y="791" on="0"/>
        <pt x="395" y="791" on="1"/>
        <pt x="335" y="791" on="0"/>
        <pt x="262" y="738" on="0"/>
        <pt x="221" y="648" on="0"/>
        <pt x="207" y="531" on="0"/>
        <pt x="207" y="467" on="1"/>
        <pt x="207" y="381" on="0"/>
        <pt x="240" y="264" on="0"/>
        <pt x="292" y="192" on="0"/>
        <pt x="357" y="160" on="0"/>
        <pt x="389" y="160" on="1"/>
        <pt x="428" y="160" on="0"/>
        <pt x="489" y="196" on="0"/>
        <pt x="530" y="275" on="0"/>
        <pt x="551" y="400" on="0"/>
      </contour>
    </TTGlyph>
    <TTGlyph name="dcroat" xMin="61" yMin="-31" xMax="1006" yMax="1382">
      <contour>
        <pt x="918" y="115" on="1"/>
        <pt x="918" y="90" on="0"/>
        <pt x="928" y="31" on="0"/>
        <pt x="936" y="0" on="1"/>
        <pt x="719" y="0" on="1"/>
        <pt x="706" y="9" on="0"/>
        <pt x="698" y="45" on="0"/>
        <pt x="698" y="59" on="1"/>
        <pt x="698" y="88" on="1"/>
        <pt x="682" y="59" on="0"/>
        <pt x="629" y="15" on="0"/>
        <pt x="567" y="-15" on="0"/>
        <pt x="500" y="-31" on="0"/>
        <pt x="469" y="-31" on="1"/>
        <pt x="385" y="-31" on="0"/>
        <pt x="237" y="30" on="0"/>
        <pt x="126" y="153" on="0"/>
        <pt x="61" y="338" on="0"/>
        <pt x="61" y="463" on="1"/>
        <pt x="61" y="584" on="0"/>
        <pt x="127" y="775" on="0"/>
        <pt x="239" y="907" on="0"/>
        <pt x="386" y="977" on="0"/>
        <pt x="467" y="977" on="1"/>
        <pt x="495" y="977" on="0"/>
        <pt x="555" y="963" on="0"/>
        <pt x="614" y="938" on="0"/>
        <pt x="667" y="902" on="0"/>
        <pt x="688" y="881" on="1"/>
        <pt x="688" y="1075" on="1"/>
        <pt x="557" y="1075" on="1"/>
        <pt x="557" y="1251" on="1"/>
        <pt x="688" y="1251" on="1"/>
        <pt x="688" y="1382" on="1"/>
        <pt x="946" y="1382" on="1"/>
        <pt x="946" y="1371" on="0"/>
        <pt x="938" y="1357" on="0"/>
        <pt x="929" y="1345" on="0"/>
        <pt x="919" y="1332" on="0"/>
        <pt x="918" y="1323" on="1"/>
        <pt x="918" y="1251" on="1"/>
        <pt x="1006" y="1251" on="1"/>
        <pt x="1006" y="1075" on="1"/>
        <pt x="918" y="1075" on="1"/>
      </contour>
      <contour>
        <pt x="690" y="489" on="1"/>
        <pt x="690" y="549" on="0"/>
        <pt x="674" y="658" on="0"/>
        <pt x="634" y="742" on="0"/>
        <pt x="563" y="791" on="0"/>
        <pt x="508" y="791" on="1"/>
        <pt x="460" y="791" on="0"/>
        <pt x="397" y="760" on="0"/>
        <pt x="369" y="729" on="1"/>
        <pt x="293" y="648" on="0"/>
        <pt x="293" y="467" on="1"/>
        <pt x="293" y="381" on="0"/>
        <pt x="332" y="264" on="0"/>
        <pt x="394" y="192" on="0"/>
        <pt x="467" y="160" on="0"/>
        <pt x="502" y="160" on="1"/>
        <pt x="545" y="160" on="0"/>
        <pt x="614" y="196" on="0"/>
        <pt x="663" y="275" on="0"/>
        <pt x="690" y="400" on="0"/>
      </contour>
    </TTGlyph>
    <TTGlyph name="degree" xMin="223" yMin="782" xMax="825" yMax="1364">
      <contour>
        <pt x="524" y="1364" on="1"/>
        <pt x="587" y="1364" on="0"/>
        <pt x="697" y="1317" on="0"/>
        <pt x="778" y="1237" on="0"/>
        <pt x="825" y="1131" on="0"/>
        <pt x="825" y="1073" on="1"/>
        <pt x="825" y="1015" on="0"/>
        <pt x="778" y="909" on="0"/>
        <pt x="697" y="829" on="0"/>
        <pt x="587" y="782" on="0"/>
        <pt x="524" y="782" on="1"/>
        <pt x="461" y="782" on="0"/>
        <pt x="351" y="827" on="0"/>
        <pt x="270" y="906" on="0"/>
        <pt x="223" y="1012" on="0"/>
        <pt x="223" y="1073" on="1"/>
        <pt x="223" y="1134" on="0"/>
        <pt x="272" y="1241" on="0"/>
        <pt x="355" y="1319" on="0"/>
        <pt x="464" y="1364" on="0"/>
      </contour>
      <contour>
        <pt x="418" y="1075" on="1"/>
        <pt x="418" y="1019" on="0"/>
        <pt x="476" y="948" on="0"/>
        <pt x="524" y="948" on="1"/>
        <pt x="572" y="948" on="0"/>
        <pt x="633" y="1019" on="0"/>
        <pt x="633" y="1075" on="1"/>
        <pt x="633" y="1103" on="0"/>
        <pt x="617" y="1150" on="0"/>
        <pt x="588" y="1184" on="0"/>
        <pt x="548" y="1204" on="0"/>
        <pt x="524" y="1204" on="1"/>
        <pt x="476" y="1204" on="0"/>
        <pt x="418" y="1131" on="0"/>
      </contour>
    </TTGlyph>
    <TTGlyph name="dieresis" xMin="184" yMin="1122" xMax="844" yMax="1386">
      <contour>
        <pt x="326" y="1386" on="1"/>
        <pt x="353" y="1386" on="0"/>
        <pt x="404" y="1367" on="0"/>
        <pt x="444" y="1332" on="0"/>
        <pt x="469" y="1283" on="0"/>
        <pt x="469" y="1253" on="1"/>
        <pt x="469" y="1226" on="0"/>
        <pt x="446" y="1179" on="0"/>
        <pt x="407" y="1143" on="0"/>
        <pt x="355" y="1122" on="0"/>
        <pt x="326" y="1122" on="1"/>
        <pt x="297" y="1122" on="0"/>
        <pt x="245" y="1143" on="0"/>
        <pt x="206" y="1179" on="0"/>
        <pt x="184" y="1226" on="0"/>
        <pt x="184" y="1253" on="1"/>
        <pt x="184" y="1280" on="0"/>
        <pt x="206" y="1328" on="0"/>
        <pt x="245" y="1365" on="0"/>
        <pt x="297" y="1386" on="0"/>
      </contour>
      <contour>
        <pt x="702" y="1386" on="1"/>
        <pt x="728" y="1386" on="0"/>
        <pt x="779" y="1367" on="0"/>
        <pt x="819" y="1332" on="0"/>
        <pt x="844" y="1283" on="0"/>
        <pt x="844" y="1253" on="1"/>
        <pt x="844" y="1226" on="0"/>
        <pt x="822" y="1179" on="0"/>
        <pt x="783" y="1143" on="0"/>
        <pt x="731" y="1122" on="0"/>
        <pt x="702" y="1122" on="1"/>
        <pt x="673" y="1122" on="0"/>
        <pt x="622" y="1142" on="0"/>
        <pt x="583" y="1178" on="0"/>
        <pt x="561" y="1226" on="0"/>
        <pt x="561" y="1253" on="1"/>
        <pt x="561" y="1281" on="0"/>
        <pt x="583" y="1329" on="0"/>
        <pt x="622" y="1365" on="0"/>
        <pt x="673" y="1386" on="0"/>
      </contour>
    </TTGlyph>
    <TTGlyph name="dieresis.cap" xMin="164" yMin="1399" xMax="823" yMax="1663">
      <contour>
        <pt x="305" y="1663" on="1"/>
        <pt x="336" y="1663" on="0"/>
        <pt x="389" y="1640" on="0"/>
        <pt x="428" y="1603" on="0"/>
        <pt x="449" y="1555" on="0"/>
        <pt x="449" y="1530" on="1"/>
        <pt x="449" y="1503" on="0"/>
        <pt x="426" y="1455" on="0"/>
        <pt x="387" y="1420" on="0"/>
        <pt x="334" y="1399" on="0"/>
        <pt x="305" y="1399" on="1"/>
        <pt x="276" y="1399" on="0"/>
        <pt x="224" y="1420" on="0"/>
        <pt x="186" y="1455" on="0"/>
        <pt x="164" y="1503" on="0"/>
        <pt x="164" y="1530" on="1"/>
        <pt x="164" y="1557" on="0"/>
        <pt x="186" y="1605" on="0"/>
        <pt x="224" y="1642" on="0"/>
        <pt x="276" y="1663" on="0"/>
      </contour>
      <contour>
        <pt x="682" y="1663" on="1"/>
        <pt x="714" y="1663" on="0"/>
        <pt x="766" y="1640" on="0"/>
        <pt x="803" y="1602" on="0"/>
        <pt x="823" y="1554" on="0"/>
        <pt x="823" y="1530" on="1"/>
        <pt x="823" y="1503" on="0"/>
        <pt x="801" y="1455" on="0"/>
        <pt x="763" y="1420" on="0"/>
        <pt x="711" y="1399" on="0"/>
        <pt x="682" y="1399" on="1"/>
        <pt x="653" y="1399" on="0"/>
        <pt x="601" y="1419" on="0"/>
        <pt x="563" y="1454" on="0"/>
        <pt x="541" y="1502" on="0"/>
        <pt x="541" y="1530" on="1"/>
        <pt x="541" y="1558" on="0"/>
        <pt x="563" y="1606" on="0"/>
        <pt x="601" y="1642" on="0"/>
        <pt x="653" y="1663" on="0"/>
      </contour>
    </TTGlyph>
    <TTGlyph name="divide" xMin="127" yMin="246" xMax="899" yMax="1071">
      <contour>
        <pt x="127" y="762" on="1"/>
        <pt x="899" y="762" on="1"/>
        <pt x="899" y="559" on="1"/>
        <pt x="127" y="559" on="1"/>
      </contour>
      <contour>
        <pt x="522" y="1071" on="1"/>
        <pt x="553" y="1071" on="0"/>
        <pt x="601" y="1046" on="0"/>
        <pt x="635" y="1009" on="0"/>
        <pt x="653" y="965" on="0"/>
        <pt x="653" y="946" on="1"/>
        <pt x="653" y="922" on="0"/>
        <pt x="632" y="878" on="0"/>
        <pt x="597" y="845" on="0"/>
        <pt x="549" y="825" on="0"/>
        <pt x="522" y="825" on="1"/>
        <pt x="495" y="825" on="0"/>
        <pt x="448" y="845" on="0"/>
        <pt x="412" y="878" on="0"/>
        <pt x="391" y="922" on="0"/>
        <pt x="391" y="946" on="1"/>
        <pt x="391" y="971" on="0"/>
        <pt x="413" y="1017" on="0"/>
        <pt x="449" y="1051" on="0"/>
        <pt x="496" y="1071" on="0"/>
      </contour>
      <contour>
        <pt x="522" y="489" on="1"/>
        <pt x="554" y="489" on="0"/>
        <pt x="603" y="465" on="0"/>
        <pt x="636" y="428" on="0"/>
        <pt x="653" y="385" on="0"/>
        <pt x="653" y="367" on="1"/>
        <pt x="653" y="341" on="0"/>
        <pt x="632" y="297" on="0"/>
        <pt x="597" y="265" on="0"/>
        <pt x="549" y="246" on="0"/>
        <pt x="522" y="246" on="1"/>
        <pt x="496" y="246" on="0"/>
        <pt x="448" y="265" on="0"/>
        <pt x="411" y="297" on="0"/>
        <pt x="389" y="341" on="0"/>
        <pt x="389" y="367" on="1"/>
        <pt x="389" y="394" on="0"/>
        <pt x="412" y="439" on="0"/>
        <pt x="449" y="471" on="0"/>
        <pt x="497" y="489" on="0"/>
      </contour>
    </TTGlyph>
    <TTGlyph name="dollar" xMin="100" yMin="-90" xMax="961" yMax="1333">
      <contour>
        <pt x="436" y="1333" on="1"/>
        <pt x="641" y="1333" on="1"/>
        <pt x="649" y="1330" on="0"/>
        <pt x="653" y="1319" on="0"/>
        <pt x="653" y="1313" on="1"/>
        <pt x="653" y="1310" on="0"/>
        <pt x="649" y="1293" on="0"/>
        <pt x="645" y="1274" on="0"/>
        <pt x="641" y="1255" on="0"/>
        <pt x="641" y="1249" on="1"/>
        <pt x="641" y="1217" on="1"/>
        <pt x="726" y="1200" on="0"/>
        <pt x="871" y="1103" on="0"/>
        <pt x="930" y="1032" on="1"/>
        <pt x="809" y="879" on="1"/>
        <pt x="794" y="879" on="0"/>
        <pt x="779" y="893" on="0"/>
        <pt x="769" y="913" on="0"/>
        <pt x="762" y="936" on="0"/>
        <pt x="756" y="946" on="1"/>
        <pt x="736" y="969" on="0"/>
        <pt x="669" y="1013" on="0"/>
        <pt x="631" y="1022" on="1"/>
        <pt x="631" y="721" on="1"/>
        <pt x="712" y="695" on="0"/>
        <pt x="836" y="631" on="0"/>
        <pt x="919" y="547" on="0"/>
        <pt x="961" y="442" on="0"/>
        <pt x="961" y="375" on="1"/>
        <pt x="961" y="312" on="0"/>
        <pt x="917" y="197" on="0"/>
        <pt x="834" y="103" on="0"/>
        <pt x="716" y="35" on="0"/>
        <pt x="641" y="20" on="1"/>
        <pt x="641" y="-90" on="1"/>
        <pt x="436" y="-90" on="1"/>
        <pt x="436" y="14" on="1"/>
        <pt x="342" y="30" on="0"/>
        <pt x="168" y="124" on="0"/>
        <pt x="100" y="199" on="1"/>
        <pt x="225" y="375" on="1"/>
        <pt x="242" y="370" on="0"/>
        <pt x="261" y="350" on="0"/>
        <pt x="271" y="328" on="0"/>
        <pt x="278" y="308" on="0"/>
        <pt x="283" y="303" on="1"/>
        <pt x="317" y="266" on="0"/>
        <pt x="394" y="214" on="0"/>
        <pt x="446" y="203" on="1"/>
        <pt x="446" y="569" on="1"/>
        <pt x="373" y="596" on="0"/>
        <pt x="258" y="662" on="0"/>
        <pt x="179" y="743" on="0"/>
        <pt x="137" y="842" on="0"/>
        <pt x="137" y="901" on="1"/>
        <pt x="137" y="957" on="0"/>
        <pt x="179" y="1059" on="0"/>
        <pt x="257" y="1141" on="0"/>
        <pt x="368" y="1200" on="0"/>
        <pt x="436" y="1214" on="1"/>
      </contour>
      <contour>
        <pt x="631" y="215" on="1"/>
        <pt x="685" y="234" on="0"/>
        <pt x="752" y="304" on="0"/>
        <pt x="752" y="362" on="1"/>
        <pt x="752" y="410" on="0"/>
        <pt x="693" y="482" on="0"/>
        <pt x="631" y="504" on="1"/>
      </contour>
      <contour>
        <pt x="446" y="1024" on="1"/>
        <pt x="404" y="1013" on="0"/>
        <pt x="352" y="957" on="0"/>
        <pt x="352" y="913" on="1"/>
        <pt x="352" y="881" on="0"/>
        <pt x="394" y="813" on="0"/>
        <pt x="446" y="795" on="1"/>
      </contour>
    </TTGlyph>
    <TTGlyph name="dotaccent" xMin="377" yMin="1122" xMax="664" yMax="1393">
      <contour>
        <pt x="418" y="1354" on="1"/>
        <pt x="457" y="1393" on="0"/>
        <pt x="520" y="1393" on="1"/>
        <pt x="548" y="1393" on="0"/>
        <pt x="601" y="1371" on="0"/>
        <pt x="640" y="1334" on="0"/>
        <pt x="664" y="1285" on="0"/>
        <pt x="664" y="1257" on="1"/>
        <pt x="664" y="1230" on="0"/>
        <pt x="640" y="1181" on="0"/>
        <pt x="601" y="1144" on="0"/>
        <pt x="548" y="1122" on="0"/>
        <pt x="520" y="1122" on="1"/>
        <pt x="490" y="1122" on="0"/>
        <pt x="438" y="1144" on="0"/>
        <pt x="399" y="1181" on="0"/>
        <pt x="377" y="1230" on="0"/>
        <pt x="377" y="1257" on="1"/>
        <pt x="377" y="1285" on="0"/>
        <pt x="396" y="1332" on="0"/>
      </contour>
    </TTGlyph>
    <TTGlyph name="dotaccent.cap" xMin="385" yMin="1401" xMax="674" yMax="1667">
      <contour>
        <pt x="528" y="1667" on="1"/>
        <pt x="557" y="1667" on="0"/>
        <pt x="610" y="1646" on="0"/>
        <pt x="650" y="1610" on="0"/>
        <pt x="674" y="1562" on="0"/>
        <pt x="674" y="1534" on="1"/>
        <pt x="674" y="1506" on="0"/>
        <pt x="650" y="1458" on="0"/>
        <pt x="610" y="1422" on="0"/>
        <pt x="557" y="1401" on="0"/>
        <pt x="528" y="1401" on="1"/>
        <pt x="500" y="1401" on="0"/>
        <pt x="448" y="1422" on="0"/>
        <pt x="409" y="1458" on="0"/>
        <pt x="385" y="1506" on="0"/>
        <pt x="385" y="1534" on="1"/>
        <pt x="385" y="1558" on="0"/>
        <pt x="405" y="1606" on="0"/>
        <pt x="442" y="1644" on="0"/>
        <pt x="495" y="1667" on="0"/>
      </contour>
    </TTGlyph>
    <TTGlyph name="dotlessi" xMin="182" yMin="0" xMax="850" yMax="956">
      <contour>
        <pt x="193" y="956" on="1"/>
        <pt x="641" y="956" on="1"/>
        <pt x="641" y="184" on="1"/>
        <pt x="850" y="184" on="1"/>
        <pt x="850" y="0" on="1"/>
        <pt x="182" y="0" on="1"/>
        <pt x="182" y="184" on="1"/>
        <pt x="412" y="184" on="1"/>
        <pt x="412" y="772" on="1"/>
        <pt x="193" y="772" on="1"/>
      </contour>
    </TTGlyph>
    <TTGlyph name="dotlessj" xMin="59" yMin="-362" xMax="766" yMax="956">
      <contour>
        <pt x="203" y="956" on="1"/>
        <pt x="766" y="956" on="1"/>
        <pt x="766" y="47" on="1"/>
        <pt x="766" y="-61" on="0"/>
        <pt x="705" y="-216" on="0"/>
        <pt x="600" y="-315" on="0"/>
        <pt x="458" y="-362" on="0"/>
        <pt x="377" y="-362" on="1"/>
        <pt x="281" y="-362" on="0"/>
        <pt x="124" y="-281" on="0"/>
        <pt x="59" y="-203" on="1"/>
        <pt x="201" y="-16" on="1"/>
        <pt x="211" y="-20" on="0"/>
        <pt x="218" y="-31" on="0"/>
        <pt x="222" y="-46" on="0"/>
        <pt x="230" y="-67" on="0"/>
        <pt x="240" y="-82" on="1"/>
        <pt x="250" y="-96" on="0"/>
        <pt x="280" y="-126" on="0"/>
        <pt x="317" y="-152" on="0"/>
        <pt x="360" y="-168" on="0"/>
        <pt x="383" y="-168" on="1"/>
        <pt x="414" y="-168" on="0"/>
        <pt x="470" y="-145" on="0"/>
        <pt x="511" y="-95" on="0"/>
        <pt x="535" y="-17" on="0"/>
        <pt x="535" y="39" on="1"/>
        <pt x="535" y="770" on="1"/>
        <pt x="203" y="770" on="1"/>
      </contour>
    </TTGlyph>
    <TTGlyph name="downarrow" xMin="92" yMin="-72" xMax="932" yMax="1321">
      <contour>
        <pt x="932" y="416" on="1"/>
        <pt x="547" y="-72" on="1"/>
        <pt x="453" y="-72" on="1"/>
        <pt x="92" y="422" on="1"/>
        <pt x="260" y="532" on="1"/>
        <pt x="399" y="270" on="1"/>
        <pt x="399" y="1321" on="1"/>
        <pt x="621" y="1321" on="1"/>
        <pt x="621" y="260" on="1"/>
        <pt x="784" y="537" on="1"/>
      </contour>
    </TTGlyph>
    <TTGlyph name="e" xMin="76" yMin="-33" xMax="936" yMax="977">
      <contour>
        <pt x="528" y="977" on="1"/>
        <pt x="613" y="977" on="0"/>
        <pt x="761" y="917" on="0"/>
        <pt x="872" y="800" on="0"/>
        <pt x="936" y="625" on="0"/>
        <pt x="936" y="510" on="1"/>
        <pt x="936" y="485" on="0"/>
        <pt x="932" y="437" on="0"/>
        <pt x="930" y="414" on="1"/>
        <pt x="303" y="414" on="1"/>
        <pt x="311" y="345" on="0"/>
        <pt x="359" y="246" on="0"/>
        <pt x="427" y="181" on="0"/>
        <pt x="510" y="150" on="0"/>
        <pt x="553" y="150" on="1"/>
        <pt x="618" y="150" on="0"/>
        <pt x="743" y="209" on="0"/>
        <pt x="788" y="266" on="1"/>
        <pt x="915" y="139" on="1"/>
        <pt x="770" y="-33" on="0"/>
        <pt x="553" y="-33" on="1"/>
        <pt x="450" y="-33" on="0"/>
        <pt x="275" y="35" on="0"/>
        <pt x="148" y="163" on="0"/>
        <pt x="76" y="348" on="0"/>
        <pt x="76" y="465" on="1"/>
        <pt x="76" y="584" on="0"/>
        <pt x="144" y="774" on="0"/>
        <pt x="265" y="906" on="0"/>
        <pt x="430" y="977" on="0"/>
      </contour>
      <contour>
        <pt x="707" y="582" on="1"/>
        <pt x="707" y="627" on="0"/>
        <pt x="680" y="708" on="0"/>
        <pt x="631" y="769" on="0"/>
        <pt x="560" y="805" on="0"/>
        <pt x="516" y="805" on="1"/>
        <pt x="474" y="805" on="0"/>
        <pt x="403" y="773" on="0"/>
        <pt x="350" y="715" on="0"/>
        <pt x="317" y="633" on="0"/>
        <pt x="311" y="582" on="1"/>
      </contour>
    </TTGlyph>
    <TTGlyph name="eacute" xMin="76" yMin="-33" xMax="936" yMax="1462">
      <component glyphName=".ttfautohint" x="76" y="0" flags="0x0"/>
      <component glyphName="e" x="0" y="0" flags="0x204"/>
      <component glyphName="acute" x="0" y="0" flags="0x4"/>
    </TTGlyph>
    <TTGlyph name="ecaron" xMin="76" yMin="-33" xMax="936" yMax="1438">
      <component glyphName=".ttfautohint" x="76" y="0" flags="0x0"/>
      <component glyphName="e" x="0" y="0" flags="0x204"/>
      <component glyphName="caron" x="0" y="0" flags="0x4"/>
    </TTGlyph>
    <TTGlyph name="ecircumflex" xMin="76" yMin="-33" xMax="936" yMax="1427">
      <component glyphName=".ttfautohint" x="76" y="0" flags="0x0"/>
      <component glyphName="e" x="0" y="0" flags="0x204"/>
      <component glyphName="circumflex" x="0" y="0" flags="0x4"/>
    </TTGlyph>
    <TTGlyph name="edieresis" xMin="76" yMin="-33" xMax="936" yMax="1386">
      <component glyphName=".ttfautohint" x="76" y="0" flags="0x0"/>
      <component glyphName="e" x="0" y="0" flags="0x204"/>
      <component glyphName="dieresis" x="2" y="0" flags="0x4"/>
    </TTGlyph>
    <TTGlyph name="egrave" xMin="76" yMin="-33" xMax="936" yMax="1462">
      <component glyphName=".ttfautohint" x="76" y="0" flags="0x0"/>
      <component glyphName="e" x="0" y="0" flags="0x204"/>
      <component glyphName="uni02CB" x="0" y="0" flags="0x4"/>
    </TTGlyph>
    <TTGlyph name="eight" xMin="86" yMin="-39" xMax="940" yMax="1309">
      <contour>
        <pt x="897" y="977" on="1"/>
        <pt x="897" y="935" on="0"/>
        <pt x="868" y="852" on="0"/>
        <pt x="817" y="776" on="0"/>
        <pt x="749" y="709" on="0"/>
        <pt x="711" y="684" on="1"/>
        <pt x="761" y="656" on="0"/>
        <pt x="845" y="581" on="0"/>
        <pt x="906" y="491" on="0"/>
        <pt x="940" y="391" on="0"/>
        <pt x="940" y="338" on="1"/>
        <pt x="940" y="258" on="0"/>
        <pt x="874" y="120" on="0"/>
        <pt x="758" y="19" on="0"/>
        <pt x="602" y="-39" on="0"/>
        <pt x="512" y="-39" on="1"/>
        <pt x="421" y="-39" on="0"/>
        <pt x="265" y="19" on="0"/>
        <pt x="151" y="119" on="0"/>
        <pt x="86" y="254" on="0"/>
        <pt x="86" y="332" on="1"/>
        <pt x="86" y="383" on="0"/>
        <pt x="120" y="481" on="0"/>
        <pt x="183" y="571" on="0"/>
        <pt x="269" y="649" on="0"/>
        <pt x="322" y="678" on="1"/>
        <pt x="284" y="703" on="0"/>
        <pt x="219" y="768" on="0"/>
        <pt x="172" y="842" on="0"/>
        <pt x="145" y="923" on="0"/>
        <pt x="145" y="965" on="1"/>
        <pt x="145" y="1035" on="0"/>
        <pt x="205" y="1161" on="0"/>
        <pt x="308" y="1254" on="0"/>
        <pt x="446" y="1309" on="0"/>
        <pt x="524" y="1309" on="1"/>
        <pt x="604" y="1309" on="0"/>
        <pt x="740" y="1256" on="0"/>
        <pt x="840" y="1165" on="0"/>
        <pt x="897" y="1044" on="0"/>
      </contour>
      <contour>
        <pt x="698" y="340" on="1"/>
        <pt x="698" y="377" on="0"/>
        <pt x="668" y="447" on="0"/>
        <pt x="614" y="508" on="0"/>
        <pt x="537" y="558" on="0"/>
        <pt x="489" y="575" on="1"/>
        <pt x="454" y="557" on="0"/>
        <pt x="396" y="508" on="0"/>
        <pt x="352" y="449" on="0"/>
        <pt x="328" y="382" on="0"/>
        <pt x="328" y="346" on="1"/>
        <pt x="328" y="310" on="0"/>
        <pt x="358" y="245" on="0"/>
        <pt x="409" y="197" on="0"/>
        <pt x="478" y="168" on="0"/>
        <pt x="516" y="168" on="1"/>
        <pt x="556" y="168" on="0"/>
        <pt x="623" y="195" on="0"/>
        <pt x="671" y="241" on="0"/>
        <pt x="698" y="304" on="0"/>
      </contour>
      <contour>
        <pt x="377" y="975" on="1"/>
        <pt x="377" y="943" on="0"/>
        <pt x="404" y="886" on="0"/>
        <pt x="450" y="837" on="0"/>
        <pt x="511" y="796" on="0"/>
        <pt x="545" y="778" on="1"/>
        <pt x="597" y="813" on="0"/>
        <pt x="666" y="915" on="0"/>
        <pt x="666" y="971" on="1"/>
        <pt x="666" y="998" on="0"/>
        <pt x="643" y="1048" on="0"/>
        <pt x="603" y="1086" on="0"/>
        <pt x="549" y="1108" on="0"/>
        <pt x="518" y="1108" on="1"/>
        <pt x="487" y="1108" on="0"/>
        <pt x="435" y="1087" on="0"/>
        <pt x="398" y="1050" on="0"/>
        <pt x="377" y="1002" on="0"/>
      </contour>
    </TTGlyph>
    <TTGlyph name="ellipsis" xMin="10" yMin="-29" xMax="977" yMax="250">
      <contour>
        <pt x="350" y="111" on="1"/>
        <pt x="350" y="140" on="0"/>
        <pt x="371" y="191" on="0"/>
        <pt x="410" y="228" on="0"/>
        <pt x="462" y="250" on="0"/>
        <pt x="494" y="250" on="1"/>
        <pt x="525" y="250" on="0"/>
        <pt x="579" y="228" on="0"/>
        <pt x="617" y="191" on="0"/>
        <pt x="639" y="140" on="0"/>
        <pt x="639" y="111" on="1"/>
        <pt x="639" y="82" on="0"/>
        <pt x="617" y="31" on="0"/>
        <pt x="579" y="-7" on="0"/>
        <pt x="525" y="-29" on="0"/>
        <pt x="494" y="-29" on="1"/>
        <pt x="462" y="-29" on="0"/>
        <pt x="410" y="-7" on="0"/>
        <pt x="371" y="31" on="0"/>
        <pt x="350" y="82" on="0"/>
      </contour>
      <contour>
        <pt x="688" y="111" on="1"/>
        <pt x="688" y="140" on="0"/>
        <pt x="709" y="191" on="0"/>
        <pt x="747" y="228" on="0"/>
        <pt x="800" y="250" on="0"/>
        <pt x="831" y="250" on="1"/>
        <pt x="862" y="250" on="0"/>
        <pt x="916" y="228" on="0"/>
        <pt x="955" y="191" on="0"/>
        <pt x="977" y="140" on="0"/>
        <pt x="977" y="111" on="1"/>
        <pt x="977" y="82" on="0"/>
        <pt x="955" y="31" on="0"/>
        <pt x="916" y="-7" on="0"/>
        <pt x="862" y="-29" on="0"/>
        <pt x="831" y="-29" on="1"/>
        <pt x="800" y="-29" on="0"/>
        <pt x="747" y="-7" on="0"/>
        <pt x="709" y="31" on="0"/>
        <pt x="688" y="82" on="0"/>
      </contour>
      <contour>
        <pt x="10" y="111" on="1"/>
        <pt x="10" y="140" on="0"/>
        <pt x="31" y="191" on="0"/>
        <pt x="70" y="228" on="0"/>
        <pt x="122" y="250" on="0"/>
        <pt x="154" y="250" on="1"/>
        <pt x="185" y="250" on="0"/>
        <pt x="239" y="228" on="0"/>
        <pt x="277" y="191" on="0"/>
        <pt x="299" y="140" on="0"/>
        <pt x="299" y="111" on="1"/>
        <pt x="299" y="82" on="0"/>
        <pt x="277" y="31" on="0"/>
        <pt x="239" y="-7" on="0"/>
        <pt x="185" y="-29" on="0"/>
        <pt x="154" y="-29" on="1"/>
        <pt x="122" y="-29" on="0"/>
        <pt x="70" y="-7" on="0"/>
        <pt x="31" y="31" on="0"/>
        <pt x="10" y="82" on="0"/>
      </contour>
    </TTGlyph>
    <TTGlyph name="eng" xMin="123" yMin="-367" xMax="922" yMax="977">
      <contour>
        <pt x="123" y="0" on="1"/>
        <pt x="123" y="956" on="1"/>
        <pt x="354" y="956" on="1"/>
        <pt x="354" y="858" on="1"/>
        <pt x="404" y="912" on="0"/>
        <pt x="536" y="977" on="0"/>
        <pt x="604" y="977" on="1"/>
        <pt x="676" y="977" on="0"/>
        <pt x="794" y="933" on="0"/>
        <pt x="877" y="838" on="0"/>
        <pt x="922" y="687" on="0"/>
        <pt x="922" y="580" on="1"/>
        <pt x="922" y="109" on="1"/>
        <pt x="922" y="-16" on="0"/>
        <pt x="867" y="-196" on="0"/>
        <pt x="769" y="-312" on="0"/>
        <pt x="635" y="-367" on="0"/>
        <pt x="557" y="-367" on="1"/>
        <pt x="439" y="-367" on="0"/>
        <pt x="319" y="-274" on="1"/>
        <pt x="422" y="-74" on="1"/>
        <pt x="437" y="-79" on="0"/>
        <pt x="450" y="-100" on="0"/>
        <pt x="463" y="-117" on="1"/>
        <pt x="467" y="-123" on="0"/>
        <pt x="485" y="-139" on="0"/>
        <pt x="510" y="-154" on="0"/>
        <pt x="542" y="-164" on="0"/>
        <pt x="561" y="-164" on="1"/>
        <pt x="629" y="-164" on="0"/>
        <pt x="696" y="-40" on="0"/>
        <pt x="696" y="88" on="1"/>
        <pt x="696" y="578" on="1"/>
        <pt x="696" y="633" on="0"/>
        <pt x="676" y="713" on="0"/>
        <pt x="640" y="764" on="0"/>
        <pt x="590" y="788" on="0"/>
        <pt x="559" y="788" on="1"/>
        <pt x="516" y="788" on="0"/>
        <pt x="441" y="754" on="0"/>
        <pt x="386" y="692" on="0"/>
        <pt x="354" y="605" on="0"/>
        <pt x="354" y="553" on="1"/>
        <pt x="354" y="0" on="1"/>
      </contour>
    </TTGlyph>
    <TTGlyph name="eogonek" xMin="76" yMin="-373" xMax="936" yMax="977">
      <contour>
        <pt x="528" y="977" on="1"/>
        <pt x="613" y="977" on="0"/>
        <pt x="761" y="917" on="0"/>
        <pt x="872" y="800" on="0"/>
        <pt x="936" y="625" on="0"/>
        <pt x="936" y="510" on="1"/>
        <pt x="936" y="485" on="0"/>
        <pt x="932" y="437" on="0"/>
        <pt x="930" y="414" on="1"/>
        <pt x="303" y="414" on="1"/>
        <pt x="311" y="345" on="0"/>
        <pt x="359" y="246" on="0"/>
        <pt x="427" y="181" on="0"/>
        <pt x="510" y="150" on="0"/>
        <pt x="553" y="150" on="1"/>
        <pt x="618" y="150" on="0"/>
        <pt x="743" y="209" on="0"/>
        <pt x="788" y="266" on="1"/>
        <pt x="915" y="137" on="1"/>
        <pt x="788" y="-31" on="1"/>
        <pt x="754" y="-76" on="0"/>
        <pt x="727" y="-140" on="0"/>
        <pt x="727" y="-160" on="1"/>
        <pt x="727" y="-189" on="0"/>
        <pt x="761" y="-209" on="0"/>
        <pt x="776" y="-209" on="1"/>
        <pt x="788" y="-209" on="0"/>
        <pt x="813" y="-203" on="0"/>
        <pt x="843" y="-186" on="0"/>
        <pt x="881" y="-155" on="0"/>
        <pt x="905" y="-129" on="1"/>
        <pt x="905" y="-307" on="1"/>
        <pt x="863" y="-339" on="0"/>
        <pt x="779" y="-373" on="0"/>
        <pt x="731" y="-373" on="1"/>
        <pt x="634" y="-373" on="0"/>
        <pt x="543" y="-289" on="0"/>
        <pt x="543" y="-223" on="1"/>
        <pt x="543" y="-131" on="0"/>
        <pt x="682" y="2" on="1"/>
        <pt x="664" y="-6" on="0"/>
        <pt x="621" y="-18" on="0"/>
        <pt x="576" y="-28" on="0"/>
        <pt x="534" y="-33" on="0"/>
        <pt x="518" y="-33" on="1"/>
        <pt x="423" y="-33" on="0"/>
        <pt x="262" y="35" on="0"/>
        <pt x="143" y="163" on="0"/>
        <pt x="76" y="348" on="0"/>
        <pt x="76" y="465" on="1"/>
        <pt x="76" y="584" on="0"/>
        <pt x="144" y="774" on="0"/>
        <pt x="265" y="906" on="0"/>
        <pt x="430" y="977" on="0"/>
      </contour>
      <contour>
        <pt x="707" y="582" on="1"/>
        <pt x="707" y="627" on="0"/>
        <pt x="680" y="708" on="0"/>
        <pt x="631" y="769" on="0"/>
        <pt x="560" y="805" on="0"/>
        <pt x="516" y="805" on="1"/>
        <pt x="474" y="805" on="0"/>
        <pt x="403" y="773" on="0"/>
        <pt x="350" y="715" on="0"/>
        <pt x="317" y="633" on="0"/>
        <pt x="311" y="582" on="1"/>
      </contour>
    </TTGlyph>
    <TTGlyph name="equal" xMin="84" yMin="348" xMax="950" yMax="940">
      <contour>
        <pt x="84" y="940" on="1"/>
        <pt x="950" y="940" on="1"/>
        <pt x="950" y="766" on="1"/>
        <pt x="84" y="766" on="1"/>
      </contour>
      <contour>
        <pt x="84" y="522" on="1"/>
        <pt x="950" y="522" on="1"/>
        <pt x="950" y="348" on="1"/>
        <pt x="84" y="348" on="1"/>
      </contour>
    </TTGlyph>
    <TTGlyph name="eth" xMin="76" yMin="-33" xMax="963" yMax="1401">
      <contour>
        <pt x="473" y="1401" on="1"/>
        <pt x="516" y="1373" on="0"/>
        <pt x="596" y="1314" on="0"/>
        <pt x="633" y="1282" on="1"/>
        <pt x="868" y="1343" on="1"/>
        <pt x="926" y="1190" on="1"/>
        <pt x="762" y="1147" on="1"/>
        <pt x="859" y="1019" on="0"/>
        <pt x="963" y="704" on="0"/>
        <pt x="963" y="514" on="1"/>
        <pt x="963" y="392" on="0"/>
        <pt x="908" y="191" on="0"/>
        <pt x="797" y="47" on="0"/>
        <pt x="632" y="-33" on="0"/>
        <pt x="522" y="-33" on="1"/>
        <pt x="426" y="-33" on="0"/>
        <pt x="263" y="42" on="0"/>
        <pt x="143" y="173" on="0"/>
        <pt x="76" y="352" on="0"/>
        <pt x="76" y="457" on="1"/>
        <pt x="76" y="559" on="0"/>
        <pt x="137" y="743" on="0"/>
        <pt x="248" y="883" on="0"/>
        <pt x="403" y="965" on="0"/>
        <pt x="496" y="965" on="1"/>
        <pt x="520" y="965" on="0"/>
        <pt x="574" y="954" on="0"/>
        <pt x="626" y="935" on="0"/>
        <pt x="675" y="907" on="0"/>
        <pt x="694" y="889" on="1"/>
        <pt x="674" y="931" on="0"/>
        <pt x="619" y="1030" on="0"/>
        <pt x="569" y="1087" on="1"/>
        <pt x="315" y="1016" on="1"/>
        <pt x="254" y="1178" on="1"/>
        <pt x="424" y="1221" on="1"/>
        <pt x="382" y="1252" on="0"/>
        <pt x="286" y="1314" on="0"/>
        <pt x="227" y="1346" on="1"/>
      </contour>
      <contour>
        <pt x="528" y="160" on="1"/>
        <pt x="571" y="160" on="0"/>
        <pt x="645" y="199" on="0"/>
        <pt x="699" y="277" on="0"/>
        <pt x="729" y="395" on="0"/>
        <pt x="729" y="475" on="1"/>
        <pt x="729" y="556" on="0"/>
        <pt x="695" y="669" on="0"/>
        <pt x="638" y="741" on="0"/>
        <pt x="564" y="774" on="0"/>
        <pt x="524" y="774" on="1"/>
        <pt x="480" y="774" on="0"/>
        <pt x="403" y="735" on="0"/>
        <pt x="347" y="659" on="0"/>
        <pt x="315" y="547" on="0"/>
        <pt x="315" y="475" on="1"/>
        <pt x="315" y="407" on="0"/>
        <pt x="345" y="291" on="0"/>
        <pt x="400" y="207" on="0"/>
        <pt x="479" y="160" on="0"/>
      </contour>
    </TTGlyph>
    <TTGlyph name="exclam" xMin="332" yMin="-20" xMax="651" yMax="1374">
      <contour>
        <pt x="489" y="276" on="1"/>
        <pt x="524" y="276" on="0"/>
        <pt x="583" y="250" on="0"/>
        <pt x="627" y="208" on="0"/>
        <pt x="651" y="155" on="0"/>
        <pt x="651" y="127" on="1"/>
        <pt x="651" y="97" on="0"/>
        <pt x="625" y="44" on="0"/>
        <pt x="580" y="3" on="0"/>
        <pt x="521" y="-20" on="0"/>
        <pt x="489" y="-20" on="1"/>
        <pt x="457" y="-20" on="0"/>
        <pt x="400" y="3" on="0"/>
        <pt x="357" y="43" on="0"/>
        <pt x="332" y="96" on="0"/>
        <pt x="332" y="127" on="1"/>
        <pt x="332" y="157" on="0"/>
        <pt x="357" y="211" on="0"/>
        <pt x="400" y="252" on="0"/>
        <pt x="457" y="276" on="0"/>
      </contour>
      <contour>
        <pt x="494" y="1374" on="1"/>
        <pt x="560" y="1374" on="0"/>
        <pt x="637" y="1282" on="0"/>
        <pt x="637" y="1178" on="1"/>
        <pt x="637" y="1158" on="0"/>
        <pt x="633" y="1104" on="0"/>
        <pt x="628" y="1044" on="0"/>
        <pt x="622" y="986" on="0"/>
        <pt x="621" y="963" on="1"/>
        <pt x="584" y="406" on="1"/>
        <pt x="399" y="406" on="1"/>
        <pt x="371" y="963" on="1"/>
        <pt x="369" y="987" on="0"/>
        <pt x="363" y="1050" on="0"/>
        <pt x="355" y="1115" on="0"/>
        <pt x="350" y="1176" on="0"/>
        <pt x="350" y="1198" on="1"/>
        <pt x="350" y="1283" on="0"/>
        <pt x="425" y="1374" on="0"/>
      </contour>
    </TTGlyph>
    <TTGlyph name="exclamdown" xMin="332" yMin="-20" xMax="651" yMax="1374">
      <contour>
        <pt x="604" y="1122" on="1"/>
        <pt x="557" y="1077" on="0"/>
        <pt x="489" y="1077" on="1"/>
        <pt x="457" y="1077" on="0"/>
        <pt x="400" y="1101" on="0"/>
        <pt x="357" y="1143" on="0"/>
        <pt x="332" y="1197" on="0"/>
        <pt x="332" y="1227" on="1"/>
        <pt x="332" y="1258" on="0"/>
        <pt x="357" y="1311" on="0"/>
        <pt x="400" y="1351" on="0"/>
        <pt x="457" y="1374" on="0"/>
        <pt x="489" y="1374" on="1"/>
        <pt x="521" y="1374" on="0"/>
        <pt x="580" y="1351" on="0"/>
        <pt x="625" y="1310" on="0"/>
        <pt x="651" y="1257" on="0"/>
        <pt x="651" y="1227" on="1"/>
        <pt x="651" y="1198" on="0"/>
        <pt x="627" y="1147" on="0"/>
      </contour>
      <contour>
        <pt x="494" y="-20" on="1"/>
        <pt x="425" y="-20" on="0"/>
        <pt x="350" y="71" on="0"/>
        <pt x="350" y="156" on="1"/>
        <pt x="350" y="178" on="0"/>
        <pt x="355" y="239" on="0"/>
        <pt x="363" y="304" on="0"/>
        <pt x="369" y="367" on="0"/>
        <pt x="371" y="391" on="1"/>
        <pt x="399" y="948" on="1"/>
        <pt x="584" y="948" on="1"/>
        <pt x="621" y="391" on="1"/>
        <pt x="622" y="368" on="0"/>
        <pt x="628" y="310" on="0"/>
        <pt x="633" y="250" on="0"/>
        <pt x="637" y="195" on="0"/>
        <pt x="637" y="176" on="1"/>
        <pt x="637" y="72" on="0"/>
        <pt x="560" y="-20" on="0"/>
      </contour>
    </TTGlyph>
    <TTGlyph name="f" xMin="135" yMin="0" xMax="1055" yMax="1399">
      <contour>
        <pt x="737" y="1399" on="1"/>
        <pt x="928" y="1399" on="0"/>
        <pt x="1055" y="1243" on="1"/>
        <pt x="961" y="1059" on="1"/>
        <pt x="945" y="1059" on="0"/>
        <pt x="934" y="1079" on="0"/>
        <pt x="928" y="1102" on="1"/>
        <pt x="916" y="1120" on="0"/>
        <pt x="879" y="1160" on="0"/>
        <pt x="830" y="1194" on="0"/>
        <pt x="769" y="1217" on="0"/>
        <pt x="735" y="1217" on="1"/>
        <pt x="649" y="1217" on="0"/>
        <pt x="565" y="1089" on="0"/>
        <pt x="565" y="954" on="1"/>
        <pt x="565" y="905" on="1"/>
        <pt x="858" y="905" on="1"/>
        <pt x="858" y="723" on="1"/>
        <pt x="565" y="723" on="1"/>
        <pt x="565" y="0" on="1"/>
        <pt x="342" y="0" on="1"/>
        <pt x="342" y="723" on="1"/>
        <pt x="135" y="723" on="1"/>
        <pt x="135" y="905" on="1"/>
        <pt x="342" y="905" on="1"/>
        <pt x="342" y="973" on="1"/>
        <pt x="342" y="1079" on="0"/>
        <pt x="405" y="1239" on="0"/>
        <pt x="513" y="1346" on="0"/>
        <pt x="656" y="1399" on="0"/>
      </contour>
    </TTGlyph>
    <TTGlyph name="five" xMin="109" yMin="-39" xMax="944" yMax="1276">
      <contour>
        <pt x="219" y="1276" on="1"/>
        <pt x="905" y="1276" on="1"/>
        <pt x="905" y="1081" on="1"/>
        <pt x="420" y="1081" on="1"/>
        <pt x="403" y="834" on="1"/>
        <pt x="439" y="845" on="0"/>
        <pt x="508" y="856" on="0"/>
        <pt x="545" y="856" on="1"/>
        <pt x="636" y="856" on="0"/>
        <pt x="784" y="796" on="0"/>
        <pt x="888" y="682" on="0"/>
        <pt x="944" y="517" on="0"/>
        <pt x="944" y="412" on="1"/>
        <pt x="944" y="312" on="0"/>
        <pt x="885" y="146" on="0"/>
        <pt x="774" y="27" on="0"/>
        <pt x="617" y="-39" on="0"/>
        <pt x="520" y="-39" on="1"/>
        <pt x="456" y="-39" on="0"/>
        <pt x="338" y="-13" on="0"/>
        <pt x="234" y="45" on="0"/>
        <pt x="144" y="137" on="0"/>
        <pt x="109" y="203" on="1"/>
        <pt x="291" y="340" on="1"/>
        <pt x="300" y="335" on="0"/>
        <pt x="309" y="321" on="0"/>
        <pt x="315" y="303" on="0"/>
        <pt x="319" y="285" on="0"/>
        <pt x="322" y="276" on="1"/>
        <pt x="343" y="230" on="0"/>
        <pt x="438" y="164" on="0"/>
        <pt x="512" y="164" on="1"/>
        <pt x="555" y="164" on="0"/>
        <pt x="630" y="195" on="0"/>
        <pt x="685" y="258" on="0"/>
        <pt x="717" y="352" on="0"/>
        <pt x="717" y="414" on="1"/>
        <pt x="717" y="474" on="0"/>
        <pt x="688" y="568" on="0"/>
        <pt x="636" y="633" on="0"/>
        <pt x="564" y="666" on="0"/>
        <pt x="520" y="666" on="1"/>
        <pt x="458" y="666" on="0"/>
        <pt x="364" y="606" on="0"/>
        <pt x="319" y="543" on="1"/>
        <pt x="172" y="606" on="1"/>
      </contour>
    </TTGlyph>
    <TTGlyph name="florin" xMin="16" yMin="-358" xMax="1006" yMax="1389">
      <contour>
        <pt x="926" y="1087" on="1"/>
        <pt x="892" y="1087" on="0"/>
        <pt x="854" y="1111" on="0"/>
        <pt x="848" y="1139" on="1"/>
        <pt x="840" y="1171" on="0"/>
        <pt x="787" y="1204" on="0"/>
        <pt x="750" y="1204" on="1"/>
        <pt x="727" y="1204" on="0"/>
        <pt x="683" y="1184" on="0"/>
        <pt x="649" y="1130" on="0"/>
        <pt x="625" y="1033" on="0"/>
        <pt x="621" y="956" on="1"/>
        <pt x="612" y="817" on="1"/>
        <pt x="840" y="817" on="1"/>
        <pt x="840" y="633" on="1"/>
        <pt x="596" y="633" on="1"/>
        <pt x="591" y="566" on="0"/>
        <pt x="581" y="421" on="0"/>
        <pt x="569" y="272" on="0"/>
        <pt x="556" y="126" on="0"/>
        <pt x="549" y="59" on="1"/>
        <pt x="538" y="-48" on="0"/>
        <pt x="481" y="-205" on="0"/>
        <pt x="396" y="-308" on="0"/>
        <pt x="287" y="-358" on="0"/>
        <pt x="225" y="-358" on="1"/>
        <pt x="168" y="-358" on="0"/>
        <pt x="63" y="-309" on="0"/>
        <pt x="16" y="-258" on="1"/>
        <pt x="131" y="-78" on="1"/>
        <pt x="154" y="-80" on="0"/>
        <pt x="170" y="-99" on="0"/>
        <pt x="176" y="-109" on="1"/>
        <pt x="187" y="-130" on="0"/>
        <pt x="220" y="-156" on="0"/>
        <pt x="240" y="-156" on="1"/>
        <pt x="275" y="-156" on="0"/>
        <pt x="320" y="-34" on="0"/>
        <pt x="328" y="68" on="1"/>
        <pt x="373" y="633" on="1"/>
        <pt x="145" y="633" on="1"/>
        <pt x="145" y="817" on="1"/>
        <pt x="383" y="817" on="1"/>
        <pt x="397" y="981" on="1"/>
        <pt x="416" y="1193" on="0"/>
        <pt x="595" y="1389" on="0"/>
        <pt x="741" y="1389" on="1"/>
        <pt x="893" y="1389" on="0"/>
        <pt x="1006" y="1255" on="1"/>
      </contour>
    </TTGlyph>
    <TTGlyph name="four" xMin="88" yMin="0" xMax="976" yMax="1276">
      <contour>
        <pt x="641" y="1276" on="1"/>
        <pt x="806" y="1276" on="1"/>
        <pt x="806" y="506" on="1"/>
        <pt x="976" y="506" on="1"/>
        <pt x="976" y="313" on="1"/>
        <pt x="806" y="313" on="1"/>
        <pt x="806" y="0" on="1"/>
        <pt x="575" y="0" on="1"/>
        <pt x="575" y="315" on="1"/>
        <pt x="88" y="315" on="1"/>
        <pt x="88" y="459" on="1"/>
      </contour>
      <contour>
        <pt x="583" y="881" on="1"/>
        <pt x="325" y="500" on="1"/>
        <pt x="583" y="500" on="1"/>
      </contour>
    </TTGlyph>
    <TTGlyph name="fraction" xMin="123" yMin="-100" xMax="928" yMax="1374">
      <contour>
        <pt x="123" y="-8" on="1"/>
        <pt x="758" y="1374" on="1"/>
        <pt x="928" y="1278" on="1"/>
        <pt x="291" y="-100" on="1"/>
      </contour>
    </TTGlyph>
    <TTGlyph name="g" xMin="66" yMin="-354" xMax="999" yMax="985">
      <contour>
        <pt x="475" y="809" on="1"/>
        <pt x="444" y="809" on="0"/>
        <pt x="391" y="787" on="0"/>
        <pt x="351" y="746" on="0"/>
        <pt x="328" y="687" on="0"/>
        <pt x="328" y="649" on="1"/>
        <pt x="328" y="617" on="0"/>
        <pt x="349" y="561" on="0"/>
        <pt x="387" y="519" on="0"/>
        <pt x="441" y="494" on="0"/>
        <pt x="475" y="494" on="1"/>
        <pt x="510" y="494" on="0"/>
        <pt x="566" y="519" on="0"/>
        <pt x="605" y="561" on="0"/>
        <pt x="625" y="617" on="0"/>
        <pt x="625" y="649" on="1"/>
        <pt x="625" y="681" on="0"/>
        <pt x="605" y="739" on="0"/>
        <pt x="566" y="783" on="0"/>
        <pt x="510" y="809" on="0"/>
      </contour>
      <contour>
        <pt x="479" y="985" on="1"/>
        <pt x="604" y="985" on="0"/>
        <pt x="692" y="918" on="1"/>
        <pt x="737" y="948" on="0"/>
        <pt x="841" y="979" on="0"/>
        <pt x="903" y="979" on="1"/>
        <pt x="969" y="979" on="1"/>
        <pt x="999" y="784" on="1"/>
        <pt x="980" y="787" on="0"/>
        <pt x="943" y="791" on="0"/>
        <pt x="914" y="795" on="0"/>
        <pt x="894" y="797" on="0"/>
        <pt x="893" y="797" on="1"/>
        <pt x="850" y="797" on="0"/>
        <pt x="805" y="780" on="1"/>
        <pt x="819" y="748" on="0"/>
        <pt x="838" y="681" on="0"/>
        <pt x="838" y="647" on="1"/>
        <pt x="838" y="579" on="0"/>
        <pt x="781" y="459" on="0"/>
        <pt x="683" y="369" on="0"/>
        <pt x="552" y="317" on="0"/>
        <pt x="477" y="317" on="1"/>
        <pt x="457" y="317" on="0"/>
        <pt x="415" y="321" on="0"/>
        <pt x="393" y="328" on="1"/>
        <pt x="365" y="309" on="0"/>
        <pt x="332" y="273" on="0"/>
        <pt x="332" y="250" on="1"/>
        <pt x="332" y="222" on="0"/>
        <pt x="390" y="203" on="0"/>
        <pt x="436" y="203" on="1"/>
        <pt x="471" y="203" on="0"/>
        <pt x="547" y="209" on="0"/>
        <pt x="578" y="209" on="1"/>
        <pt x="679" y="209" on="0"/>
        <pt x="820" y="171" on="0"/>
        <pt x="907" y="102" on="0"/>
        <pt x="946" y="8" on="0"/>
        <pt x="946" y="-49" on="1"/>
        <pt x="946" y="-108" on="0"/>
        <pt x="891" y="-217" on="0"/>
        <pt x="781" y="-303" on="0"/>
        <pt x="615" y="-354" on="0"/>
        <pt x="504" y="-354" on="1"/>
        <pt x="388" y="-354" on="0"/>
        <pt x="222" y="-315" on="0"/>
        <pt x="116" y="-248" on="0"/>
        <pt x="66" y="-159" on="0"/>
        <pt x="66" y="-109" on="1"/>
        <pt x="66" y="-84" on="0"/>
        <pt x="84" y="-31" on="0"/>
        <pt x="117" y="19" on="0"/>
        <pt x="163" y="63" on="0"/>
        <pt x="190" y="80" on="1"/>
        <pt x="155" y="105" on="0"/>
        <pt x="129" y="174" on="0"/>
        <pt x="129" y="209" on="1"/>
        <pt x="129" y="257" on="0"/>
        <pt x="195" y="355" on="0"/>
        <pt x="246" y="397" on="1"/>
        <pt x="215" y="416" on="0"/>
        <pt x="167" y="472" on="0"/>
        <pt x="133" y="536" on="0"/>
        <pt x="115" y="606" on="0"/>
        <pt x="115" y="641" on="1"/>
        <pt x="115" y="713" on="0"/>
        <pt x="176" y="839" on="0"/>
        <pt x="278" y="932" on="0"/>
        <pt x="409" y="985" on="0"/>
      </contour>
      <contour>
        <pt x="616" y="20" on="1"/>
        <pt x="542" y="20" on="0"/>
        <pt x="416" y="22" on="0"/>
        <pt x="348" y="27" on="1"/>
        <pt x="311" y="5" on="0"/>
        <pt x="276" y="-54" on="0"/>
        <pt x="276" y="-80" on="1"/>
        <pt x="276" y="-109" on="0"/>
        <pt x="313" y="-148" on="0"/>
        <pt x="377" y="-173" on="0"/>
        <pt x="461" y="-184" on="0"/>
        <pt x="508" y="-184" on="1"/>
        <pt x="557" y="-184" on="0"/>
        <pt x="639" y="-167" on="0"/>
        <pt x="699" y="-136" on="0"/>
        <pt x="733" y="-93" on="0"/>
        <pt x="735" y="-66" on="1"/>
        <pt x="732" y="-28" on="0"/>
        <pt x="678" y="20" on="0"/>
      </contour>
    </TTGlyph>
    <TTGlyph name="gbreve" xMin="66" yMin="-354" xMax="999" yMax="1382">
      <component glyphName=".ttfautohint" x="66" y="0" flags="0x0"/>
      <component glyphName="g" x="0" y="0" flags="0x204"/>
      <component glyphName="breve" x="18" y="0" flags="0x4"/>
    </TTGlyph>
    <TTGlyph name="germandbls" xMin="78" yMin="-31" xMax="950" yMax="1382">
      <contour>
        <pt x="78" y="0" on="1"/>
        <pt x="78" y="854" on="1"/>
        <pt x="78" y="980" on="0"/>
        <pt x="131" y="1176" on="0"/>
        <pt x="233" y="1311" on="0"/>
        <pt x="382" y="1382" on="0"/>
        <pt x="477" y="1382" on="1"/>
        <pt x="565" y="1382" on="0"/>
        <pt x="709" y="1316" on="0"/>
        <pt x="809" y="1207" on="0"/>
        <pt x="864" y="1068" on="0"/>
        <pt x="864" y="995" on="1"/>
        <pt x="864" y="955" on="0"/>
        <pt x="842" y="879" on="0"/>
        <pt x="804" y="812" on="0"/>
        <pt x="753" y="757" on="0"/>
        <pt x="725" y="739" on="1"/>
        <pt x="776" y="718" on="0"/>
        <pt x="860" y="649" on="0"/>
        <pt x="918" y="557" on="0"/>
        <pt x="950" y="443" on="0"/>
        <pt x="950" y="379" on="1"/>
        <pt x="950" y="287" on="0"/>
        <pt x="900" y="136" on="0"/>
        <pt x="801" y="28" on="0"/>
        <pt x="653" y="-31" on="0"/>
        <pt x="555" y="-31" on="1"/>
        <pt x="498" y="-31" on="0"/>
        <pt x="398" y="2" on="0"/>
        <pt x="342" y="33" on="1"/>
        <pt x="457" y="213" on="1"/>
        <pt x="509" y="164" on="0"/>
        <pt x="563" y="164" on="1"/>
        <pt x="599" y="164" on="0"/>
        <pt x="660" y="193" on="0"/>
        <pt x="705" y="246" on="0"/>
        <pt x="731" y="318" on="0"/>
        <pt x="731" y="362" on="1"/>
        <pt x="731" y="420" on="0"/>
        <pt x="699" y="518" on="0"/>
        <pt x="636" y="588" on="0"/>
        <pt x="542" y="627" on="0"/>
        <pt x="479" y="627" on="1"/>
        <pt x="377" y="627" on="1"/>
        <pt x="377" y="809" on="1"/>
        <pt x="492" y="809" on="1"/>
        <pt x="525" y="809" on="0"/>
        <pt x="580" y="832" on="0"/>
        <pt x="621" y="881" on="0"/>
        <pt x="643" y="957" on="0"/>
        <pt x="643" y="1010" on="1"/>
        <pt x="643" y="1046" on="0"/>
        <pt x="622" y="1114" on="0"/>
        <pt x="580" y="1166" on="0"/>
        <pt x="516" y="1198" on="0"/>
        <pt x="473" y="1198" on="1"/>
        <pt x="428" y="1198" on="0"/>
        <pt x="362" y="1148" on="0"/>
        <pt x="319" y="1058" on="0"/>
        <pt x="299" y="933" on="0"/>
        <pt x="299" y="858" on="1"/>
        <pt x="299" y="0" on="1"/>
      </contour>
    </TTGlyph>
    <TTGlyph name="grave" xMin="244" yMin="877" xMax="662" yMax="1417">
      <contour>
        <pt x="244" y="1333" on="1"/>
        <pt x="424" y="1417" on="1"/>
        <pt x="489" y="1251" on="1"/>
        <pt x="511" y="1199" on="0"/>
        <pt x="562" y="1138" on="0"/>
        <pt x="590" y="1110" on="1"/>
        <pt x="621" y="1079" on="0"/>
        <pt x="662" y="1024" on="0"/>
        <pt x="662" y="983" on="1"/>
        <pt x="661" y="954" on="0"/>
        <pt x="637" y="913" on="0"/>
        <pt x="601" y="888" on="0"/>
        <pt x="561" y="877" on="0"/>
        <pt x="543" y="877" on="1"/>
        <pt x="519" y="877" on="0"/>
        <pt x="469" y="889" on="0"/>
        <pt x="411" y="946" on="0"/>
        <pt x="344" y="1066" on="0"/>
        <pt x="303" y="1174" on="1"/>
      </contour>
    </TTGlyph>
    <TTGlyph name="grave.cap" xMin="326" yMin="1339" xMax="750" yMax="1671">
      <contour>
        <pt x="436" y="1671" on="1"/>
        <pt x="750" y="1440" on="1"/>
        <pt x="694" y="1339" on="1"/>
        <pt x="326" y="1468" on="1"/>
      </contour>
    </TTGlyph>
    <TTGlyph name="greater" xMin="76" yMin="80" xMax="971" yMax="1192">
      <contour>
        <pt x="78" y="989" on="1"/>
        <pt x="78" y="1192" on="1"/>
        <pt x="971" y="723" on="1"/>
        <pt x="971" y="604" on="1"/>
        <pt x="76" y="80" on="1"/>
        <pt x="76" y="299" on="1"/>
        <pt x="719" y="662" on="1"/>
      </contour>
    </TTGlyph>
    <TTGlyph name="guillemotleft" xMin="121" yMin="96" xMax="940" yMax="856">
      <contour>
        <pt x="463" y="532" on="1"/>
        <pt x="797" y="856" on="1"/>
        <pt x="930" y="719" on="1"/>
        <pt x="696" y="496" on="1"/>
        <pt x="940" y="231" on="1"/>
        <pt x="805" y="96" on="1"/>
        <pt x="463" y="465" on="1"/>
      </contour>
      <contour>
        <pt x="457" y="856" on="1"/>
        <pt x="588" y="719" on="1"/>
        <pt x="356" y="496" on="1"/>
        <pt x="600" y="231" on="1"/>
        <pt x="463" y="96" on="1"/>
        <pt x="121" y="465" on="1"/>
        <pt x="121" y="532" on="1"/>
      </contour>
    </TTGlyph>
    <TTGlyph name="guillemotright" xMin="121" yMin="96" xMax="940" yMax="856">
      <contour>
        <pt x="598" y="465" on="1"/>
        <pt x="256" y="96" on="1"/>
        <pt x="121" y="231" on="1"/>
        <pt x="365" y="496" on="1"/>
        <pt x="131" y="719" on="1"/>
        <pt x="264" y="856" on="1"/>
        <pt x="598" y="532" on="1"/>
      </contour>
      <contour>
        <pt x="940" y="465" on="1"/>
        <pt x="598" y="96" on="1"/>
        <pt x="461" y="231" on="1"/>
        <pt x="705" y="496" on="1"/>
        <pt x="473" y="719" on="1"/>
        <pt x="604" y="856" on="1"/>
        <pt x="940" y="532" on="1"/>
      </contour>
    </TTGlyph>
    <TTGlyph name="guilsinglleft" xMin="250" yMin="88" xMax="731" yMax="852">
      <contour>
        <pt x="250" y="526" on="1"/>
        <pt x="586" y="852" on="1"/>
        <pt x="721" y="713" on="1"/>
        <pt x="487" y="489" on="1"/>
        <pt x="731" y="227" on="1"/>
        <pt x="592" y="88" on="1"/>
        <pt x="250" y="457" on="1"/>
      </contour>
    </TTGlyph>
    <TTGlyph name="guilsinglright" xMin="256" yMin="88" xMax="737" yMax="852">
      <contour>
        <pt x="737" y="457" on="1"/>
        <pt x="395" y="88" on="1"/>
        <pt x="256" y="227" on="1"/>
        <pt x="500" y="489" on="1"/>
        <pt x="266" y="713" on="1"/>
        <pt x="401" y="852" on="1"/>
        <pt x="737" y="526" on="1"/>
      </contour>
    </TTGlyph>
    <TTGlyph name="h" xMin="123" yMin="0" xMax="922" yMax="1382">
      <contour>
        <pt x="123" y="0" on="1"/>
        <pt x="123" y="1382" on="1"/>
        <pt x="383" y="1382" on="1"/>
        <pt x="383" y="1370" on="0"/>
        <pt x="375" y="1356" on="0"/>
        <pt x="365" y="1345" on="0"/>
        <pt x="355" y="1333" on="0"/>
        <pt x="354" y="1323" on="1"/>
        <pt x="354" y="858" on="1"/>
        <pt x="404" y="912" on="0"/>
        <pt x="536" y="977" on="0"/>
        <pt x="604" y="977" on="1"/>
        <pt x="677" y="977" on="0"/>
        <pt x="795" y="933" on="0"/>
        <pt x="877" y="838" on="0"/>
        <pt x="922" y="687" on="0"/>
        <pt x="922" y="580" on="1"/>
        <pt x="922" y="0" on="1"/>
        <pt x="696" y="0" on="1"/>
        <pt x="696" y="578" on="1"/>
        <pt x="696" y="633" on="0"/>
        <pt x="676" y="713" on="0"/>
        <pt x="640" y="764" on="0"/>
        <pt x="590" y="788" on="0"/>
        <pt x="559" y="788" on="1"/>
        <pt x="516" y="788" on="0"/>
        <pt x="441" y="754" on="0"/>
        <pt x="386" y="692" on="0"/>
        <pt x="354" y="605" on="0"/>
        <pt x="354" y="553" on="1"/>
        <pt x="354" y="0" on="1"/>
      </contour>
    </TTGlyph>
    <TTGlyph name="hungarumlaut" xMin="248" yMin="1059" xMax="895" yMax="1462">
      <contour>
        <pt x="412" y="1462" on="1"/>
        <pt x="578" y="1348" on="1"/>
        <pt x="362" y="1059" on="1"/>
        <pt x="248" y="1126" on="1"/>
      </contour>
      <contour>
        <pt x="729" y="1462" on="1"/>
        <pt x="895" y="1348" on="1"/>
        <pt x="680" y="1059" on="1"/>
        <pt x="565" y="1126" on="1"/>
      </contour>
    </TTGlyph>
    <TTGlyph name="hungarumlaut.cap" xMin="195" yMin="1307" xMax="956" yMax="1686">
      <contour>
        <pt x="838" y="1686" on="1"/>
        <pt x="956" y="1516" on="1"/>
        <pt x="639" y="1307" on="1"/>
        <pt x="561" y="1405" on="1"/>
      </contour>
      <contour>
        <pt x="471" y="1686" on="1"/>
        <pt x="590" y="1516" on="1"/>
        <pt x="272" y="1307" on="1"/>
        <pt x="195" y="1405" on="1"/>
      </contour>
    </TTGlyph>
    <TTGlyph name="hyphen" xMin="131" yMin="563" xMax="899" yMax="750">
      <contour>
        <pt x="131" y="750" on="1"/>
        <pt x="899" y="750" on="1"/>
        <pt x="899" y="563" on="1"/>
        <pt x="131" y="563" on="1"/>
      </contour>
    </TTGlyph>
    <TTGlyph name="i" xMin="197" yMin="0" xMax="866" yMax="1384">
      <contour>
        <pt x="545" y="1384" on="1"/>
        <pt x="574" y="1384" on="0"/>
        <pt x="626" y="1363" on="0"/>
        <pt x="665" y="1328" on="0"/>
        <pt x="688" y="1280" on="0"/>
        <pt x="688" y="1253" on="1"/>
        <pt x="688" y="1226" on="0"/>
        <pt x="665" y="1178" on="0"/>
        <pt x="626" y="1142" on="0"/>
        <pt x="574" y="1122" on="0"/>
        <pt x="545" y="1122" on="1"/>
        <pt x="516" y="1122" on="0"/>
        <pt x="463" y="1142" on="0"/>
        <pt x="424" y="1178" on="0"/>
        <pt x="401" y="1226" on="0"/>
        <pt x="401" y="1253" on="1"/>
        <pt x="401" y="1277" on="0"/>
        <pt x="419" y="1324" on="0"/>
        <pt x="455" y="1361" on="0"/>
        <pt x="509" y="1384" on="0"/>
      </contour>
      <contour>
        <pt x="207" y="956" on="1"/>
        <pt x="655" y="956" on="1"/>
        <pt x="655" y="178" on="1"/>
        <pt x="866" y="178" on="1"/>
        <pt x="866" y="0" on="1"/>
        <pt x="197" y="0" on="1"/>
        <pt x="197" y="178" on="1"/>
        <pt x="428" y="178" on="1"/>
        <pt x="428" y="778" on="1"/>
        <pt x="207" y="778" on="1"/>
      </contour>
    </TTGlyph>
    <TTGlyph name="iacute" xMin="182" yMin="0" xMax="850" yMax="1462">
      <component glyphName=".ttfautohint" x="182" y="0" flags="0x0"/>
      <component glyphName="dotlessi" x="0" y="0" flags="0x204"/>
      <component glyphName="acute" x="-15" y="0" flags="0x4"/>
    </TTGlyph>
    <TTGlyph name="icircumflex" xMin="182" yMin="0" xMax="850" yMax="1427">
      <component glyphName=".ttfautohint" x="182" y="0" flags="0x0"/>
      <component glyphName="dotlessi" x="0" y="0" flags="0x204"/>
      <component glyphName="circumflex" x="-40" y="0" flags="0x4"/>
    </TTGlyph>
    <TTGlyph name="idieresis" xMin="169" yMin="0" xMax="850" yMax="1386">
      <component glyphName=".ttfautohint" x="169" y="0" flags="0x0"/>
      <component glyphName="dotlessi" x="0" y="0" flags="0x204"/>
      <component glyphName="dieresis" x="-15" y="0" flags="0x4"/>
    </TTGlyph>
    <TTGlyph name="igrave" xMin="182" yMin="0" xMax="850" yMax="1462">
      <component glyphName=".ttfautohint" x="182" y="0" flags="0x0"/>
      <component glyphName="dotlessi" x="0" y="0" flags="0x204"/>
      <component glyphName="uni02CB" x="-101" y="0" flags="0x4"/>
    </TTGlyph>
    <TTGlyph name="j" xMin="59" yMin="-362" xMax="797" yMax="1393">
      <contour>
        <pt x="203" y="956" on="1"/>
        <pt x="766" y="956" on="1"/>
        <pt x="766" y="47" on="1"/>
        <pt x="766" y="-61" on="0"/>
        <pt x="705" y="-216" on="0"/>
        <pt x="600" y="-315" on="0"/>
        <pt x="458" y="-362" on="0"/>
        <pt x="377" y="-362" on="1"/>
        <pt x="280" y="-362" on="0"/>
        <pt x="125" y="-281" on="0"/>
        <pt x="59" y="-203" on="1"/>
        <pt x="201" y="-16" on="1"/>
        <pt x="211" y="-20" on="0"/>
        <pt x="218" y="-30" on="0"/>
        <pt x="223" y="-46" on="0"/>
        <pt x="230" y="-67" on="0"/>
        <pt x="240" y="-82" on="1"/>
        <pt x="250" y="-96" on="0"/>
        <pt x="280" y="-126" on="0"/>
        <pt x="317" y="-152" on="0"/>
        <pt x="360" y="-168" on="0"/>
        <pt x="383" y="-168" on="1"/>
        <pt x="414" y="-168" on="0"/>
        <pt x="470" y="-145" on="0"/>
        <pt x="511" y="-95" on="0"/>
        <pt x="535" y="-17" on="0"/>
        <pt x="535" y="39" on="1"/>
        <pt x="535" y="770" on="1"/>
        <pt x="203" y="770" on="1"/>
      </contour>
      <contour>
        <pt x="651" y="1393" on="1"/>
        <pt x="680" y="1393" on="0"/>
        <pt x="733" y="1372" on="0"/>
        <pt x="773" y="1335" on="0"/>
        <pt x="797" y="1285" on="0"/>
        <pt x="797" y="1257" on="1"/>
        <pt x="797" y="1230" on="0"/>
        <pt x="773" y="1181" on="0"/>
        <pt x="733" y="1144" on="0"/>
        <pt x="680" y="1122" on="0"/>
        <pt x="651" y="1122" on="1"/>
        <pt x="622" y="1122" on="0"/>
        <pt x="569" y="1144" on="0"/>
        <pt x="529" y="1181" on="0"/>
        <pt x="506" y="1230" on="0"/>
        <pt x="506" y="1257" on="1"/>
        <pt x="506" y="1282" on="0"/>
        <pt x="525" y="1331" on="0"/>
        <pt x="563" y="1370" on="0"/>
        <pt x="616" y="1393" on="0"/>
      </contour>
    </TTGlyph>
    <TTGlyph name="k" xMin="123" yMin="-8" xMax="1028" yMax="1382">
      <contour>
        <pt x="123" y="1382" on="1"/>
        <pt x="383" y="1382" on="1"/>
        <pt x="383" y="1370" on="0"/>
        <pt x="375" y="1356" on="0"/>
        <pt x="365" y="1346" on="0"/>
        <pt x="355" y="1334" on="0"/>
        <pt x="354" y="1325" on="1"/>
        <pt x="354" y="604" on="1"/>
        <pt x="721" y="967" on="1"/>
        <pt x="794" y="950" on="0"/>
        <pt x="838" y="950" on="1"/>
        <pt x="987" y="950" on="1"/>
        <pt x="596" y="573" on="1"/>
        <pt x="647" y="512" on="0"/>
        <pt x="759" y="361" on="0"/>
        <pt x="872" y="207" on="0"/>
        <pt x="981" y="60" on="0"/>
        <pt x="1028" y="2" on="1"/>
        <pt x="748" y="-8" on="1"/>
        <pt x="432" y="432" on="1"/>
        <pt x="354" y="358" on="1"/>
        <pt x="354" y="0" on="1"/>
        <pt x="123" y="0" on="1"/>
      </contour>
    </TTGlyph>
    <TTGlyph name="kgreenlandic" xMin="123" yMin="-8" xMax="1028" yMax="967">
      <contour>
        <pt x="123" y="958" on="1"/>
        <pt x="383" y="958" on="1"/>
        <pt x="383" y="946" on="0"/>
        <pt x="375" y="932" on="0"/>
        <pt x="365" y="922" on="0"/>
        <pt x="355" y="910" on="0"/>
        <pt x="354" y="901" on="1"/>
        <pt x="354" y="604" on="1"/>
        <pt x="721" y="967" on="1"/>
        <pt x="794" y="950" on="0"/>
        <pt x="838" y="950" on="1"/>
        <pt x="987" y="950" on="1"/>
        <pt x="596" y="573" on="1"/>
        <pt x="647" y="512" on="0"/>
        <pt x="759" y="361" on="0"/>
        <pt x="872" y="207" on="0"/>
        <pt x="981" y="60" on="0"/>
        <pt x="1028" y="2" on="1"/>
        <pt x="748" y="-8" on="1"/>
        <pt x="432" y="432" on="1"/>
        <pt x="354" y="358" on="1"/>
        <pt x="354" y="0" on="1"/>
        <pt x="123" y="0" on="1"/>
      </contour>
    </TTGlyph>
    <TTGlyph name="l" xMin="137" yMin="0" xMax="891" yMax="1382">
      <contour>
        <pt x="150" y="1382" on="1"/>
        <pt x="629" y="1382" on="1"/>
        <pt x="629" y="178" on="1"/>
        <pt x="891" y="178" on="1"/>
        <pt x="891" y="0" on="1"/>
        <pt x="137" y="0" on="1"/>
        <pt x="137" y="178" on="1"/>
        <pt x="399" y="178" on="1"/>
        <pt x="399" y="1204" on="1"/>
        <pt x="150" y="1204" on="1"/>
      </contour>
    </TTGlyph>
    <TTGlyph name="lacute" xMin="137" yMin="0" xMax="891" yMax="1759">
      <component glyphName=".ttfautohint" x="137" y="0" flags="0x0"/>
      <component glyphName="l" x="0" y="0" flags="0x204"/>
      <component glyphName="acute.cap" x="-34" y="88" flags="0x4"/>
    </TTGlyph>
    <TTGlyph name="lcaron" xMin="103" yMin="0" xMax="1004" yMax="1401">
      <component glyphName=".ttfautohint" x="103" y="0" flags="0x0"/>
      <component glyphName="l" x="-34" y="0" flags="0x204"/>
      <component glyphName="afii57929" x="336" y="0" flags="0x4"/>
    </TTGlyph>
    <TTGlyph name="less" xMin="66" yMin="80" xMax="961" yMax="1192">
      <contour>
        <pt x="954" y="989" on="1"/>
        <pt x="315" y="662" on="1"/>
        <pt x="961" y="299" on="1"/>
        <pt x="961" y="80" on="1"/>
        <pt x="66" y="604" on="1"/>
        <pt x="66" y="723" on="1"/>
        <pt x="954" y="1192" on="1"/>
      </contour>
    </TTGlyph>
    <TTGlyph name="logicalnot" xMin="166" yMin="315" xMax="868" yMax="750">
      <contour>
        <pt x="166" y="750" on="1"/>
        <pt x="868" y="750" on="1"/>
        <pt x="868" y="315" on="1"/>
        <pt x="653" y="315" on="1"/>
        <pt x="653" y="555" on="1"/>
        <pt x="166" y="555" on="1"/>
      </contour>
    </TTGlyph>
    <TTGlyph name="lslash" xMin="137" yMin="0" xMax="891" yMax="1382">
      <contour>
        <pt x="150" y="1382" on="1"/>
        <pt x="629" y="1382" on="1"/>
        <pt x="629" y="803" on="1"/>
        <pt x="686" y="823" on="1"/>
        <pt x="698" y="829" on="0"/>
        <pt x="750" y="860" on="0"/>
        <pt x="801" y="891" on="1"/>
        <pt x="801" y="659" on="1"/>
        <pt x="629" y="601" on="1"/>
        <pt x="629" y="178" on="1"/>
        <pt x="891" y="178" on="1"/>
        <pt x="891" y="0" on="1"/>
        <pt x="137" y="0" on="1"/>
        <pt x="137" y="178" on="1"/>
        <pt x="399" y="178" on="1"/>
        <pt x="399" y="524" on="1"/>
        <pt x="248" y="473" on="1"/>
        <pt x="248" y="672" on="1"/>
        <pt x="399" y="724" on="1"/>
        <pt x="399" y="1204" on="1"/>
        <pt x="150" y="1204" on="1"/>
      </contour>
    </TTGlyph>
    <TTGlyph name="m" xMin="66" yMin="0" xMax="979" yMax="997">
      <contour>
        <pt x="66" y="0" on="1"/>
        <pt x="66" y="967" on="1"/>
        <pt x="262" y="967" on="1"/>
        <pt x="262" y="907" on="1"/>
        <pt x="307" y="955" on="0"/>
        <pt x="398" y="997" on="0"/>
        <pt x="438" y="997" on="1"/>
        <pt x="457" y="997" on="0"/>
        <pt x="500" y="986" on="0"/>
        <pt x="541" y="959" on="0"/>
        <pt x="579" y="915" on="0"/>
        <pt x="594" y="883" on="1"/>
        <pt x="629" y="939" on="0"/>
        <pt x="735" y="997" on="0"/>
        <pt x="788" y="997" on="1"/>
        <pt x="843" y="997" on="0"/>
        <pt x="916" y="960" on="0"/>
        <pt x="960" y="887" on="0"/>
        <pt x="979" y="778" on="0"/>
        <pt x="979" y="707" on="1"/>
        <pt x="979" y="0" on="1"/>
        <pt x="766" y="0" on="1"/>
        <pt x="766" y="668" on="1"/>
        <pt x="766" y="748" on="0"/>
        <pt x="739" y="817" on="0"/>
        <pt x="705" y="817" on="1"/>
        <pt x="627" y="817" on="0"/>
        <pt x="627" y="629" on="1"/>
        <pt x="627" y="0" on="1"/>
        <pt x="416" y="0" on="1"/>
        <pt x="416" y="657" on="1"/>
        <pt x="416" y="708" on="0"/>
        <pt x="405" y="771" on="0"/>
        <pt x="388" y="805" on="0"/>
        <pt x="367" y="817" on="0"/>
        <pt x="356" y="817" on="1"/>
        <pt x="337" y="817" on="0"/>
        <pt x="306" y="800" on="0"/>
        <pt x="284" y="759" on="0"/>
        <pt x="272" y="689" on="0"/>
        <pt x="272" y="635" on="1"/>
        <pt x="272" y="0" on="1"/>
      </contour>
    </TTGlyph>
    <TTGlyph name="macron" xMin="221" yMin="1135" xMax="795" yMax="1315">
      <contour>
        <pt x="221" y="1315" on="1"/>
        <pt x="795" y="1315" on="1"/>
        <pt x="795" y="1135" on="1"/>
        <pt x="221" y="1135" on="1"/>
      </contour>
    </TTGlyph>
    <TTGlyph name="micro" xMin="20" yMin="-315" xMax="1004" yMax="936">
      <contour>
        <pt x="770" y="256" on="1"/>
        <pt x="770" y="164" on="0"/>
        <pt x="797" y="164" on="1"/>
        <pt x="809" y="164" on="0"/>
        <pt x="838" y="196" on="0"/>
        <pt x="846" y="213" on="1"/>
        <pt x="899" y="315" on="1"/>
        <pt x="1004" y="121" on="1"/>
        <pt x="906" y="-18" on="0"/>
        <pt x="786" y="-18" on="1"/>
        <pt x="732" y="-18" on="0"/>
        <pt x="647" y="27" on="0"/>
        <pt x="621" y="68" on="1"/>
        <pt x="576" y="26" on="0"/>
        <pt x="458" y="-18" on="0"/>
        <pt x="399" y="-18" on="1"/>
        <pt x="354" y="-18" on="0"/>
        <pt x="267" y="6" on="0"/>
        <pt x="231" y="29" on="1"/>
        <pt x="231" y="-315" on="1"/>
        <pt x="20" y="-315" on="1"/>
        <pt x="20" y="-296" on="0"/>
        <pt x="22" y="-219" on="0"/>
        <pt x="27" y="-121" on="0"/>
        <pt x="33" y="-13" on="0"/>
        <pt x="37" y="37" on="1"/>
        <pt x="40" y="93" on="0"/>
        <pt x="47" y="206" on="0"/>
        <pt x="53" y="307" on="0"/>
        <pt x="57" y="391" on="0"/>
        <pt x="57" y="418" on="1"/>
        <pt x="57" y="936" on="1"/>
        <pt x="276" y="936" on="1"/>
        <pt x="276" y="387" on="1"/>
        <pt x="276" y="319" on="0"/>
        <pt x="299" y="233" on="0"/>
        <pt x="337" y="181" on="0"/>
        <pt x="387" y="159" on="0"/>
        <pt x="414" y="156" on="1"/>
        <pt x="440" y="161" on="0"/>
        <pt x="490" y="191" on="0"/>
        <pt x="530" y="245" on="0"/>
        <pt x="555" y="326" on="0"/>
        <pt x="555" y="383" on="1"/>
        <pt x="555" y="936" on="1"/>
        <pt x="770" y="936" on="1"/>
      </contour>
    </TTGlyph>
    <TTGlyph name="minus" xMin="78" yMin="555" xMax="946" yMax="745">
      <contour>
        <pt x="78" y="745" on="1"/>
        <pt x="946" y="745" on="1"/>
        <pt x="946" y="555" on="1"/>
        <pt x="78" y="555" on="1"/>
      </contour>
    </TTGlyph>
    <TTGlyph name="multiply" xMin="141" yMin="289" xMax="911" yMax="1085">
      <contour>
        <pt x="758" y="1083" on="1"/>
        <pt x="911" y="944" on="1"/>
        <pt x="668" y="690" on="1"/>
        <pt x="905" y="438" on="1"/>
        <pt x="758" y="289" on="1"/>
        <pt x="520" y="541" on="1"/>
        <pt x="285" y="299" on="1"/>
        <pt x="141" y="442" on="1"/>
        <pt x="379" y="688" on="1"/>
        <pt x="141" y="940" on="1"/>
        <pt x="291" y="1085" on="1"/>
        <pt x="524" y="840" on="1"/>
      </contour>
    </TTGlyph>
    <TTGlyph name="n" xMin="123" yMin="0" xMax="922" yMax="977">
      <contour>
        <pt x="123" y="0" on="1"/>
        <pt x="123" y="956" on="1"/>
        <pt x="354" y="956" on="1"/>
        <pt x="354" y="858" on="1"/>
        <pt x="404" y="912" on="0"/>
        <pt x="536" y="977" on="0"/>
        <pt x="604" y="977" on="1"/>
        <pt x="676" y="977" on="0"/>
        <pt x="794" y="933" on="0"/>
        <pt x="877" y="838" on="0"/>
        <pt x="922" y="687" on="0"/>
        <pt x="922" y="580" on="1"/>
        <pt x="922" y="0" on="1"/>
        <pt x="696" y="0" on="1"/>
        <pt x="696" y="578" on="1"/>
        <pt x="696" y="633" on="0"/>
        <pt x="676" y="713" on="0"/>
        <pt x="640" y="764" on="0"/>
        <pt x="590" y="788" on="0"/>
        <pt x="559" y="788" on="1"/>
        <pt x="516" y="788" on="0"/>
        <pt x="441" y="754" on="0"/>
        <pt x="386" y="692" on="0"/>
        <pt x="354" y="605" on="0"/>
        <pt x="354" y="553" on="1"/>
        <pt x="354" y="0" on="1"/>
      </contour>
    </TTGlyph>
    <TTGlyph name="nacute" xMin="123" yMin="0" xMax="922" yMax="1462">
      <component glyphName=".ttfautohint" x="123" y="0" flags="0x0"/>
      <component glyphName="n" x="0" y="0" flags="0x204"/>
      <component glyphName="acute" x="0" y="0" flags="0x4"/>
    </TTGlyph>
    <TTGlyph name="ncaron" xMin="123" yMin="0" xMax="922" yMax="1438">
      <component glyphName=".ttfautohint" x="123" y="0" flags="0x0"/>
      <component glyphName="n" x="0" y="0" flags="0x204"/>
      <component glyphName="caron" x="0" y="0" flags="0x4"/>
    </TTGlyph>
    <TTGlyph name="nine" xMin="86" yMin="-39" xMax="911" yMax="1303">
      <contour>
        <pt x="436" y="-39" on="1"/>
        <pt x="348" y="-39" on="0"/>
        <pt x="186" y="40" on="0"/>
        <pt x="115" y="113" on="1"/>
        <pt x="268" y="279" on="1"/>
        <pt x="279" y="276" on="0"/>
        <pt x="290" y="263" on="0"/>
        <pt x="297" y="246" on="0"/>
        <pt x="304" y="225" on="0"/>
        <pt x="311" y="213" on="1"/>
        <pt x="331" y="190" on="0"/>
        <pt x="399" y="160" on="0"/>
        <pt x="436" y="160" on="1"/>
        <pt x="473" y="160" on="0"/>
        <pt x="551" y="195" on="0"/>
        <pt x="619" y="277" on="0"/>
        <pt x="671" y="411" on="0"/>
        <pt x="682" y="510" on="1"/>
        <pt x="662" y="490" on="0"/>
        <pt x="612" y="455" on="0"/>
        <pt x="557" y="429" on="0"/>
        <pt x="499" y="414" on="0"/>
        <pt x="471" y="414" on="1"/>
        <pt x="391" y="414" on="0"/>
        <pt x="251" y="478" on="0"/>
        <pt x="146" y="594" on="0"/>
        <pt x="86" y="754" on="0"/>
        <pt x="86" y="850" on="1"/>
        <pt x="86" y="946" on="0"/>
        <pt x="149" y="1112" on="0"/>
        <pt x="257" y="1233" on="0"/>
        <pt x="402" y="1303" on="0"/>
        <pt x="485" y="1303" on="1"/>
        <pt x="586" y="1303" on="0"/>
        <pt x="744" y="1209" on="0"/>
        <pt x="854" y="1043" on="0"/>
        <pt x="911" y="812" on="0"/>
        <pt x="911" y="676" on="1"/>
        <pt x="911" y="509" on="0"/>
        <pt x="842" y="244" on="0"/>
        <pt x="717" y="59" on="0"/>
        <pt x="542" y="-39" on="0"/>
      </contour>
      <contour>
        <pt x="483" y="616" on="1"/>
        <pt x="539" y="616" on="0"/>
        <pt x="644" y="684" on="0"/>
        <pt x="678" y="739" on="1"/>
        <pt x="678" y="776" on="1"/>
        <pt x="678" y="837" on="0"/>
        <pt x="649" y="952" on="0"/>
        <pt x="597" y="1039" on="0"/>
        <pt x="525" y="1092" on="0"/>
        <pt x="481" y="1092" on="1"/>
        <pt x="446" y="1092" on="0"/>
        <pt x="385" y="1060" on="0"/>
        <pt x="340" y="999" on="0"/>
        <pt x="313" y="908" on="0"/>
        <pt x="313" y="850" on="1"/>
        <pt x="313" y="789" on="0"/>
        <pt x="344" y="701" on="0"/>
        <pt x="392" y="644" on="0"/>
        <pt x="453" y="616" on="0"/>
      </contour>
    </TTGlyph>
    <TTGlyph name="ntilde" xMin="123" yMin="0" xMax="922" yMax="1421">
      <component glyphName=".ttfautohint" x="123" y="0" flags="0x0"/>
      <component glyphName="n" x="0" y="0" flags="0x204"/>
      <component glyphName="tilde" x="-7" y="0" flags="0x4"/>
    </TTGlyph>
    <TTGlyph name="numbersign" xMin="39" yMin="14" xMax="991" yMax="1284">
      <contour>
        <pt x="326" y="1282" on="1"/>
        <pt x="537" y="1284" on="1"/>
        <pt x="498" y="963" on="1"/>
        <pt x="608" y="963" on="1"/>
        <pt x="645" y="1278" on="1"/>
        <pt x="856" y="1280" on="1"/>
        <pt x="819" y="967" on="1"/>
        <pt x="991" y="967" on="1"/>
        <pt x="971" y="803" on="1"/>
        <pt x="799" y="803" on="1"/>
        <pt x="768" y="526" on="1"/>
        <pt x="950" y="526" on="1"/>
        <pt x="938" y="367" on="1"/>
        <pt x="750" y="367" on="1"/>
        <pt x="709" y="27" on="1"/>
        <pt x="498" y="14" on="1"/>
        <pt x="541" y="360" on="1"/>
        <pt x="426" y="360" on="1"/>
        <pt x="385" y="25" on="1"/>
        <pt x="180" y="23" on="1"/>
        <pt x="217" y="358" on="1"/>
        <pt x="39" y="358" on="1"/>
        <pt x="51" y="518" on="1"/>
        <pt x="240" y="518" on="1"/>
        <pt x="270" y="797" on="1"/>
        <pt x="68" y="797" on="1"/>
        <pt x="78" y="958" on="1"/>
        <pt x="289" y="958" on="1"/>
      </contour>
      <contour>
        <pt x="475" y="799" on="1"/>
        <pt x="444" y="522" on="1"/>
        <pt x="557" y="522" on="1"/>
        <pt x="590" y="799" on="1"/>
      </contour>
    </TTGlyph>
    <TTGlyph name="o" xMin="59" yMin="-33" xMax="965" yMax="977">
      <contour>
        <pt x="520" y="977" on="1"/>
        <pt x="613" y="977" on="0"/>
        <pt x="775" y="909" on="0"/>
        <pt x="896" y="780" on="0"/>
        <pt x="965" y="592" on="0"/>
        <pt x="965" y="473" on="1"/>
        <pt x="965" y="354" on="0"/>
        <pt x="897" y="166" on="0"/>
        <pt x="778" y="36" on="0"/>
        <pt x="614" y="-33" on="0"/>
        <pt x="518" y="-33" on="1"/>
        <pt x="422" y="-33" on="0"/>
        <pt x="255" y="41" on="0"/>
        <pt x="130" y="175" on="0"/>
        <pt x="59" y="359" on="0"/>
        <pt x="59" y="469" on="1"/>
        <pt x="59" y="578" on="0"/>
        <pt x="132" y="764" on="0"/>
        <pt x="258" y="900" on="0"/>
        <pt x="425" y="977" on="0"/>
      </contour>
      <contour>
        <pt x="737" y="469" on="1"/>
        <pt x="737" y="547" on="0"/>
        <pt x="704" y="667" on="0"/>
        <pt x="644" y="750" on="0"/>
        <pt x="562" y="793" on="0"/>
        <pt x="514" y="793" on="1"/>
        <pt x="465" y="793" on="0"/>
        <pt x="384" y="750" on="0"/>
        <pt x="327" y="668" on="0"/>
        <pt x="295" y="551" on="0"/>
        <pt x="295" y="477" on="1"/>
        <pt x="295" y="403" on="0"/>
        <pt x="326" y="284" on="0"/>
        <pt x="384" y="200" on="0"/>
        <pt x="467" y="154" on="0"/>
        <pt x="518" y="154" on="1"/>
        <pt x="618" y="154" on="0"/>
        <pt x="737" y="316" on="0"/>
      </contour>
    </TTGlyph>
    <TTGlyph name="oacute" xMin="59" yMin="-33" xMax="965" yMax="1462">
      <component glyphName=".ttfautohint" x="59" y="0" flags="0x0"/>
      <component glyphName="o" x="0" y="0" flags="0x204"/>
      <component glyphName="acute" x="0" y="0" flags="0x4"/>
    </TTGlyph>
    <TTGlyph name="ocircumflex" xMin="59" yMin="-33" xMax="965" yMax="1427">
      <component glyphName=".ttfautohint" x="59" y="0" flags="0x0"/>
      <component glyphName="o" x="0" y="0" flags="0x204"/>
      <component glyphName="circumflex" x="0" y="0" flags="0x4"/>
    </TTGlyph>
    <TTGlyph name="odieresis" xMin="59" yMin="-33" xMax="965" yMax="1386">
      <component glyphName=".ttfautohint" x="59" y="0" flags="0x0"/>
      <component glyphName="o" x="0" y="0" flags="0x204"/>
      <component glyphName="dieresis" x="0" y="0" flags="0x4"/>
    </TTGlyph>
</ttFont>
